<?xml version="1.0" encoding="utf-8" standalone="no"?>
<!DOCTYPE svg PUBLIC "-//W3C//DTD SVG 1.1//EN"
  "http://www.w3.org/Graphics/SVG/1.1/DTD/svg11.dtd">
<svg xmlns:xlink="http://www.w3.org/1999/xlink" width="720pt" height="324pt" viewBox="0 0 720 324" xmlns="http://www.w3.org/2000/svg" version="1.1">
 <metadata>
  <rdf:RDF xmlns:dc="http://purl.org/dc/elements/1.1/" xmlns:cc="http://creativecommons.org/ns#" xmlns:rdf="http://www.w3.org/1999/02/22-rdf-syntax-ns#">
   <cc:Work>
    <dc:type rdf:resource="http://purl.org/dc/dcmitype/StillImage"/>
    <dc:date>2022-05-25T17:00:51.262182</dc:date>
    <dc:format>image/svg+xml</dc:format>
    <dc:creator>
     <cc:Agent>
      <dc:title>Matplotlib v3.5.1, https://matplotlib.org/</dc:title>
     </cc:Agent>
    </dc:creator>
   </cc:Work>
  </rdf:RDF>
 </metadata>
 <defs>
  <style type="text/css">*{stroke-linejoin: round; stroke-linecap: butt}</style>
 </defs>
 <g id="figure_1">
  <g id="patch_1">
   <path d="M 0 324 
L 720 324 
L 720 0 
L 0 0 
L 0 324 
z
" style="fill: none"/>
  </g>
  <g id="axes_1">
   <g id="patch_2">
    <path d="M 232.94 233.94 
L 694.08 233.94 
L 694.08 25.92 
L 232.94 25.92 
L 232.94 233.94 
z
" style="fill: none"/>
   </g>
   <g id="matplotlib.axis_1">
    <g id="xtick_1">
     <g id="line2d_1">
      <path d="M 261.76125 233.94 
L 261.76125 25.92 
" clip-path="url(#p45a669fafc)" style="fill: none; stroke: #cccccc; stroke-width: 2; stroke-linecap: round"/>
     </g>
     <g id="text_1">
      <!-- 0.20 -->
      <g style="fill: #262626" transform="translate(237.269062 266.156563)scale(0.22 -0.22)">
       <defs>
        <path id="DejaVuSans-30" d="M 2034 4250 
Q 1547 4250 1301 3770 
Q 1056 3291 1056 2328 
Q 1056 1369 1301 889 
Q 1547 409 2034 409 
Q 2525 409 2770 889 
Q 3016 1369 3016 2328 
Q 3016 3291 2770 3770 
Q 2525 4250 2034 4250 
z
M 2034 4750 
Q 2819 4750 3233 4129 
Q 3647 3509 3647 2328 
Q 3647 1150 3233 529 
Q 2819 -91 2034 -91 
Q 1250 -91 836 529 
Q 422 1150 422 2328 
Q 422 3509 836 4129 
Q 1250 4750 2034 4750 
z
" transform="scale(0.015625)"/>
        <path id="DejaVuSans-2e" d="M 684 794 
L 1344 794 
L 1344 0 
L 684 0 
L 684 794 
z
" transform="scale(0.015625)"/>
        <path id="DejaVuSans-32" d="M 1228 531 
L 3431 531 
L 3431 0 
L 469 0 
L 469 531 
Q 828 903 1448 1529 
Q 2069 2156 2228 2338 
Q 2531 2678 2651 2914 
Q 2772 3150 2772 3378 
Q 2772 3750 2511 3984 
Q 2250 4219 1831 4219 
Q 1534 4219 1204 4116 
Q 875 4013 500 3803 
L 500 4441 
Q 881 4594 1212 4672 
Q 1544 4750 1819 4750 
Q 2544 4750 2975 4387 
Q 3406 4025 3406 3419 
Q 3406 3131 3298 2873 
Q 3191 2616 2906 2266 
Q 2828 2175 2409 1742 
Q 1991 1309 1228 531 
z
" transform="scale(0.015625)"/>
       </defs>
       <use xlink:href="#DejaVuSans-30"/>
       <use xlink:href="#DejaVuSans-2e" x="63.623047"/>
       <use xlink:href="#DejaVuSans-32" x="95.410156"/>
       <use xlink:href="#DejaVuSans-30" x="159.033203"/>
      </g>
     </g>
    </g>
    <g id="xtick_2">
     <g id="line2d_2">
      <path d="M 405.8675 233.94 
L 405.8675 25.92 
" clip-path="url(#p45a669fafc)" style="fill: none; stroke: #cccccc; stroke-width: 2; stroke-linecap: round"/>
     </g>
     <g id="text_2">
      <!-- 0.25 -->
      <g style="fill: #262626" transform="translate(381.375312 266.156563)scale(0.22 -0.22)">
       <defs>
        <path id="DejaVuSans-35" d="M 691 4666 
L 3169 4666 
L 3169 4134 
L 1269 4134 
L 1269 2991 
Q 1406 3038 1543 3061 
Q 1681 3084 1819 3084 
Q 2600 3084 3056 2656 
Q 3513 2228 3513 1497 
Q 3513 744 3044 326 
Q 2575 -91 1722 -91 
Q 1428 -91 1123 -41 
Q 819 9 494 109 
L 494 744 
Q 775 591 1075 516 
Q 1375 441 1709 441 
Q 2250 441 2565 725 
Q 2881 1009 2881 1497 
Q 2881 1984 2565 2268 
Q 2250 2553 1709 2553 
Q 1456 2553 1204 2497 
Q 953 2441 691 2322 
L 691 4666 
z
" transform="scale(0.015625)"/>
       </defs>
       <use xlink:href="#DejaVuSans-30"/>
       <use xlink:href="#DejaVuSans-2e" x="63.623047"/>
       <use xlink:href="#DejaVuSans-32" x="95.410156"/>
       <use xlink:href="#DejaVuSans-35" x="159.033203"/>
      </g>
     </g>
    </g>
    <g id="xtick_3">
     <g id="line2d_3">
      <path d="M 549.97375 233.94 
L 549.97375 25.92 
" clip-path="url(#p45a669fafc)" style="fill: none; stroke: #cccccc; stroke-width: 2; stroke-linecap: round"/>
     </g>
     <g id="text_3">
      <!-- 0.30 -->
      <g style="fill: #262626" transform="translate(525.481563 266.156563)scale(0.22 -0.22)">
       <defs>
        <path id="DejaVuSans-33" d="M 2597 2516 
Q 3050 2419 3304 2112 
Q 3559 1806 3559 1356 
Q 3559 666 3084 287 
Q 2609 -91 1734 -91 
Q 1441 -91 1130 -33 
Q 819 25 488 141 
L 488 750 
Q 750 597 1062 519 
Q 1375 441 1716 441 
Q 2309 441 2620 675 
Q 2931 909 2931 1356 
Q 2931 1769 2642 2001 
Q 2353 2234 1838 2234 
L 1294 2234 
L 1294 2753 
L 1863 2753 
Q 2328 2753 2575 2939 
Q 2822 3125 2822 3475 
Q 2822 3834 2567 4026 
Q 2313 4219 1838 4219 
Q 1578 4219 1281 4162 
Q 984 4106 628 3988 
L 628 4550 
Q 988 4650 1302 4700 
Q 1616 4750 1894 4750 
Q 2613 4750 3031 4423 
Q 3450 4097 3450 3541 
Q 3450 3153 3228 2886 
Q 3006 2619 2597 2516 
z
" transform="scale(0.015625)"/>
       </defs>
       <use xlink:href="#DejaVuSans-30"/>
       <use xlink:href="#DejaVuSans-2e" x="63.623047"/>
       <use xlink:href="#DejaVuSans-33" x="95.410156"/>
       <use xlink:href="#DejaVuSans-30" x="159.033203"/>
      </g>
     </g>
    </g>
    <g id="xtick_4">
     <g id="line2d_4">
      <path d="M 694.08 233.94 
L 694.08 25.92 
" clip-path="url(#p45a669fafc)" style="fill: none; stroke: #cccccc; stroke-width: 2; stroke-linecap: round"/>
     </g>
     <g id="text_4">
      <!-- 0.35 -->
      <g style="fill: #262626" transform="translate(669.587813 266.156563)scale(0.22 -0.22)">
       <use xlink:href="#DejaVuSans-30"/>
       <use xlink:href="#DejaVuSans-2e" x="63.623047"/>
       <use xlink:href="#DejaVuSans-33" x="95.410156"/>
       <use xlink:href="#DejaVuSans-35" x="159.033203"/>
      </g>
     </g>
    </g>
    <g id="text_5">
     <!-- Pearson correlation -->
     <g style="fill: #262626" transform="translate(347.6425 292.968125)scale(0.24 -0.24)">
      <defs>
       <path id="DejaVuSans-50" d="M 1259 4147 
L 1259 2394 
L 2053 2394 
Q 2494 2394 2734 2622 
Q 2975 2850 2975 3272 
Q 2975 3691 2734 3919 
Q 2494 4147 2053 4147 
L 1259 4147 
z
M 628 4666 
L 2053 4666 
Q 2838 4666 3239 4311 
Q 3641 3956 3641 3272 
Q 3641 2581 3239 2228 
Q 2838 1875 2053 1875 
L 1259 1875 
L 1259 0 
L 628 0 
L 628 4666 
z
" transform="scale(0.015625)"/>
       <path id="DejaVuSans-65" d="M 3597 1894 
L 3597 1613 
L 953 1613 
Q 991 1019 1311 708 
Q 1631 397 2203 397 
Q 2534 397 2845 478 
Q 3156 559 3463 722 
L 3463 178 
Q 3153 47 2828 -22 
Q 2503 -91 2169 -91 
Q 1331 -91 842 396 
Q 353 884 353 1716 
Q 353 2575 817 3079 
Q 1281 3584 2069 3584 
Q 2775 3584 3186 3129 
Q 3597 2675 3597 1894 
z
M 3022 2063 
Q 3016 2534 2758 2815 
Q 2500 3097 2075 3097 
Q 1594 3097 1305 2825 
Q 1016 2553 972 2059 
L 3022 2063 
z
" transform="scale(0.015625)"/>
       <path id="DejaVuSans-61" d="M 2194 1759 
Q 1497 1759 1228 1600 
Q 959 1441 959 1056 
Q 959 750 1161 570 
Q 1363 391 1709 391 
Q 2188 391 2477 730 
Q 2766 1069 2766 1631 
L 2766 1759 
L 2194 1759 
z
M 3341 1997 
L 3341 0 
L 2766 0 
L 2766 531 
Q 2569 213 2275 61 
Q 1981 -91 1556 -91 
Q 1019 -91 701 211 
Q 384 513 384 1019 
Q 384 1609 779 1909 
Q 1175 2209 1959 2209 
L 2766 2209 
L 2766 2266 
Q 2766 2663 2505 2880 
Q 2244 3097 1772 3097 
Q 1472 3097 1187 3025 
Q 903 2953 641 2809 
L 641 3341 
Q 956 3463 1253 3523 
Q 1550 3584 1831 3584 
Q 2591 3584 2966 3190 
Q 3341 2797 3341 1997 
z
" transform="scale(0.015625)"/>
       <path id="DejaVuSans-72" d="M 2631 2963 
Q 2534 3019 2420 3045 
Q 2306 3072 2169 3072 
Q 1681 3072 1420 2755 
Q 1159 2438 1159 1844 
L 1159 0 
L 581 0 
L 581 3500 
L 1159 3500 
L 1159 2956 
Q 1341 3275 1631 3429 
Q 1922 3584 2338 3584 
Q 2397 3584 2469 3576 
Q 2541 3569 2628 3553 
L 2631 2963 
z
" transform="scale(0.015625)"/>
       <path id="DejaVuSans-73" d="M 2834 3397 
L 2834 2853 
Q 2591 2978 2328 3040 
Q 2066 3103 1784 3103 
Q 1356 3103 1142 2972 
Q 928 2841 928 2578 
Q 928 2378 1081 2264 
Q 1234 2150 1697 2047 
L 1894 2003 
Q 2506 1872 2764 1633 
Q 3022 1394 3022 966 
Q 3022 478 2636 193 
Q 2250 -91 1575 -91 
Q 1294 -91 989 -36 
Q 684 19 347 128 
L 347 722 
Q 666 556 975 473 
Q 1284 391 1588 391 
Q 1994 391 2212 530 
Q 2431 669 2431 922 
Q 2431 1156 2273 1281 
Q 2116 1406 1581 1522 
L 1381 1569 
Q 847 1681 609 1914 
Q 372 2147 372 2553 
Q 372 3047 722 3315 
Q 1072 3584 1716 3584 
Q 2034 3584 2315 3537 
Q 2597 3491 2834 3397 
z
" transform="scale(0.015625)"/>
       <path id="DejaVuSans-6f" d="M 1959 3097 
Q 1497 3097 1228 2736 
Q 959 2375 959 1747 
Q 959 1119 1226 758 
Q 1494 397 1959 397 
Q 2419 397 2687 759 
Q 2956 1122 2956 1747 
Q 2956 2369 2687 2733 
Q 2419 3097 1959 3097 
z
M 1959 3584 
Q 2709 3584 3137 3096 
Q 3566 2609 3566 1747 
Q 3566 888 3137 398 
Q 2709 -91 1959 -91 
Q 1206 -91 779 398 
Q 353 888 353 1747 
Q 353 2609 779 3096 
Q 1206 3584 1959 3584 
z
" transform="scale(0.015625)"/>
       <path id="DejaVuSans-6e" d="M 3513 2113 
L 3513 0 
L 2938 0 
L 2938 2094 
Q 2938 2591 2744 2837 
Q 2550 3084 2163 3084 
Q 1697 3084 1428 2787 
Q 1159 2491 1159 1978 
L 1159 0 
L 581 0 
L 581 3500 
L 1159 3500 
L 1159 2956 
Q 1366 3272 1645 3428 
Q 1925 3584 2291 3584 
Q 2894 3584 3203 3211 
Q 3513 2838 3513 2113 
z
" transform="scale(0.015625)"/>
       <path id="DejaVuSans-20" transform="scale(0.015625)"/>
       <path id="DejaVuSans-63" d="M 3122 3366 
L 3122 2828 
Q 2878 2963 2633 3030 
Q 2388 3097 2138 3097 
Q 1578 3097 1268 2742 
Q 959 2388 959 1747 
Q 959 1106 1268 751 
Q 1578 397 2138 397 
Q 2388 397 2633 464 
Q 2878 531 3122 666 
L 3122 134 
Q 2881 22 2623 -34 
Q 2366 -91 2075 -91 
Q 1284 -91 818 406 
Q 353 903 353 1747 
Q 353 2603 823 3093 
Q 1294 3584 2113 3584 
Q 2378 3584 2631 3529 
Q 2884 3475 3122 3366 
z
" transform="scale(0.015625)"/>
       <path id="DejaVuSans-6c" d="M 603 4863 
L 1178 4863 
L 1178 0 
L 603 0 
L 603 4863 
z
" transform="scale(0.015625)"/>
       <path id="DejaVuSans-74" d="M 1172 4494 
L 1172 3500 
L 2356 3500 
L 2356 3053 
L 1172 3053 
L 1172 1153 
Q 1172 725 1289 603 
Q 1406 481 1766 481 
L 2356 481 
L 2356 0 
L 1766 0 
Q 1100 0 847 248 
Q 594 497 594 1153 
L 594 3053 
L 172 3053 
L 172 3500 
L 594 3500 
L 594 4494 
L 1172 4494 
z
" transform="scale(0.015625)"/>
       <path id="DejaVuSans-69" d="M 603 3500 
L 1178 3500 
L 1178 0 
L 603 0 
L 603 3500 
z
M 603 4863 
L 1178 4863 
L 1178 4134 
L 603 4134 
L 603 4863 
z
" transform="scale(0.015625)"/>
      </defs>
      <use xlink:href="#DejaVuSans-50"/>
      <use xlink:href="#DejaVuSans-65" x="56.677734"/>
      <use xlink:href="#DejaVuSans-61" x="118.201172"/>
      <use xlink:href="#DejaVuSans-72" x="179.480469"/>
      <use xlink:href="#DejaVuSans-73" x="220.59375"/>
      <use xlink:href="#DejaVuSans-6f" x="272.693359"/>
      <use xlink:href="#DejaVuSans-6e" x="333.875"/>
      <use xlink:href="#DejaVuSans-20" x="397.253906"/>
      <use xlink:href="#DejaVuSans-63" x="429.041016"/>
      <use xlink:href="#DejaVuSans-6f" x="484.021484"/>
      <use xlink:href="#DejaVuSans-72" x="545.203125"/>
      <use xlink:href="#DejaVuSans-72" x="584.566406"/>
      <use xlink:href="#DejaVuSans-65" x="623.429688"/>
      <use xlink:href="#DejaVuSans-6c" x="684.953125"/>
      <use xlink:href="#DejaVuSans-61" x="712.736328"/>
      <use xlink:href="#DejaVuSans-74" x="774.015625"/>
      <use xlink:href="#DejaVuSans-69" x="813.224609"/>
      <use xlink:href="#DejaVuSans-6f" x="841.007812"/>
      <use xlink:href="#DejaVuSans-6e" x="902.189453"/>
     </g>
    </g>
   </g>
   <g id="matplotlib.axis_2">
    <g id="ytick_1">
     <g id="line2d_5">
      <path d="M 232.94 73.197273 
L 694.08 73.197273 
" clip-path="url(#p45a669fafc)" style="fill: none; stroke: #cccccc; stroke-width: 2; stroke-linecap: round"/>
     </g>
     <g id="text_6">
      <!-- baseline -->
      <g style="fill: #262626" transform="translate(125.290937 81.555554)scale(0.22 -0.22)">
       <defs>
        <path id="DejaVuSans-62" d="M 3116 1747 
Q 3116 2381 2855 2742 
Q 2594 3103 2138 3103 
Q 1681 3103 1420 2742 
Q 1159 2381 1159 1747 
Q 1159 1113 1420 752 
Q 1681 391 2138 391 
Q 2594 391 2855 752 
Q 3116 1113 3116 1747 
z
M 1159 2969 
Q 1341 3281 1617 3432 
Q 1894 3584 2278 3584 
Q 2916 3584 3314 3078 
Q 3713 2572 3713 1747 
Q 3713 922 3314 415 
Q 2916 -91 2278 -91 
Q 1894 -91 1617 61 
Q 1341 213 1159 525 
L 1159 0 
L 581 0 
L 581 4863 
L 1159 4863 
L 1159 2969 
z
" transform="scale(0.015625)"/>
       </defs>
       <use xlink:href="#DejaVuSans-62"/>
       <use xlink:href="#DejaVuSans-61" x="63.476562"/>
       <use xlink:href="#DejaVuSans-73" x="124.755859"/>
       <use xlink:href="#DejaVuSans-65" x="176.855469"/>
       <use xlink:href="#DejaVuSans-6c" x="238.378906"/>
       <use xlink:href="#DejaVuSans-69" x="266.162109"/>
       <use xlink:href="#DejaVuSans-6e" x="293.945312"/>
       <use xlink:href="#DejaVuSans-65" x="357.324219"/>
      </g>
     </g>
    </g>
    <g id="ytick_2">
     <g id="line2d_6">
      <path d="M 232.94 186.662727 
L 694.08 186.662727 
" clip-path="url(#p45a669fafc)" style="fill: none; stroke: #cccccc; stroke-width: 2; stroke-linecap: round"/>
     </g>
     <g id="text_7">
      <!-- baseline_sigma-5 -->
      <g style="fill: #262626" transform="translate(25.905937 195.021009)scale(0.22 -0.22)">
       <defs>
        <path id="DejaVuSans-5f" d="M 3263 -1063 
L 3263 -1509 
L -63 -1509 
L -63 -1063 
L 3263 -1063 
z
" transform="scale(0.015625)"/>
        <path id="DejaVuSans-67" d="M 2906 1791 
Q 2906 2416 2648 2759 
Q 2391 3103 1925 3103 
Q 1463 3103 1205 2759 
Q 947 2416 947 1791 
Q 947 1169 1205 825 
Q 1463 481 1925 481 
Q 2391 481 2648 825 
Q 2906 1169 2906 1791 
z
M 3481 434 
Q 3481 -459 3084 -895 
Q 2688 -1331 1869 -1331 
Q 1566 -1331 1297 -1286 
Q 1028 -1241 775 -1147 
L 775 -588 
Q 1028 -725 1275 -790 
Q 1522 -856 1778 -856 
Q 2344 -856 2625 -561 
Q 2906 -266 2906 331 
L 2906 616 
Q 2728 306 2450 153 
Q 2172 0 1784 0 
Q 1141 0 747 490 
Q 353 981 353 1791 
Q 353 2603 747 3093 
Q 1141 3584 1784 3584 
Q 2172 3584 2450 3431 
Q 2728 3278 2906 2969 
L 2906 3500 
L 3481 3500 
L 3481 434 
z
" transform="scale(0.015625)"/>
        <path id="DejaVuSans-6d" d="M 3328 2828 
Q 3544 3216 3844 3400 
Q 4144 3584 4550 3584 
Q 5097 3584 5394 3201 
Q 5691 2819 5691 2113 
L 5691 0 
L 5113 0 
L 5113 2094 
Q 5113 2597 4934 2840 
Q 4756 3084 4391 3084 
Q 3944 3084 3684 2787 
Q 3425 2491 3425 1978 
L 3425 0 
L 2847 0 
L 2847 2094 
Q 2847 2600 2669 2842 
Q 2491 3084 2119 3084 
Q 1678 3084 1418 2786 
Q 1159 2488 1159 1978 
L 1159 0 
L 581 0 
L 581 3500 
L 1159 3500 
L 1159 2956 
Q 1356 3278 1631 3431 
Q 1906 3584 2284 3584 
Q 2666 3584 2933 3390 
Q 3200 3197 3328 2828 
z
" transform="scale(0.015625)"/>
        <path id="DejaVuSans-2d" d="M 313 2009 
L 1997 2009 
L 1997 1497 
L 313 1497 
L 313 2009 
z
" transform="scale(0.015625)"/>
       </defs>
       <use xlink:href="#DejaVuSans-62"/>
       <use xlink:href="#DejaVuSans-61" x="63.476562"/>
       <use xlink:href="#DejaVuSans-73" x="124.755859"/>
       <use xlink:href="#DejaVuSans-65" x="176.855469"/>
       <use xlink:href="#DejaVuSans-6c" x="238.378906"/>
       <use xlink:href="#DejaVuSans-69" x="266.162109"/>
       <use xlink:href="#DejaVuSans-6e" x="293.945312"/>
       <use xlink:href="#DejaVuSans-65" x="357.324219"/>
       <use xlink:href="#DejaVuSans-5f" x="418.847656"/>
       <use xlink:href="#DejaVuSans-73" x="468.847656"/>
       <use xlink:href="#DejaVuSans-69" x="520.947266"/>
       <use xlink:href="#DejaVuSans-67" x="548.730469"/>
       <use xlink:href="#DejaVuSans-6d" x="612.207031"/>
       <use xlink:href="#DejaVuSans-61" x="709.619141"/>
       <use xlink:href="#DejaVuSans-2d" x="770.898438"/>
       <use xlink:href="#DejaVuSans-35" x="806.982422"/>
      </g>
     </g>
    </g>
   </g>
   <g id="PathCollection_1">
    <defs>
     <path id="C0_0_a4fe8b7eec" d="M 0 5 
C 1.326016 5 2.597899 4.473168 3.535534 3.535534 
C 4.473168 2.597899 5 1.326016 5 -0 
C 5 -1.326016 4.473168 -2.597899 3.535534 -3.535534 
C 2.597899 -4.473168 1.326016 -5 0 -5 
C -1.326016 -5 -2.597899 -4.473168 -3.535534 -3.535534 
C -4.473168 -2.597899 -5 -1.326016 -5 0 
C -5 1.326016 -4.473168 2.597899 -3.535534 3.535534 
C -2.597899 4.473168 -1.326016 5 0 5 
z
"/>
    </defs>
    <g clip-path="url(#p45a669fafc)">
     <use xlink:href="#C0_0_a4fe8b7eec" x="507.762647" y="69.261094" style="fill: #4c72b0; fill-opacity: 0.7"/>
    </g>
    <g clip-path="url(#p45a669fafc)">
     <use xlink:href="#C0_0_a4fe8b7eec" x="562.526112" y="56.730923" style="fill: #4c72b0; fill-opacity: 0.7"/>
    </g>
    <g clip-path="url(#p45a669fafc)">
     <use xlink:href="#C0_0_a4fe8b7eec" x="507.649914" y="61.845408" style="fill: #4c72b0; fill-opacity: 0.7"/>
    </g>
    <g clip-path="url(#p45a669fafc)">
     <use xlink:href="#C0_0_a4fe8b7eec" x="479.98487" y="78.090039" style="fill: #4c72b0; fill-opacity: 0.7"/>
    </g>
    <g clip-path="url(#p45a669fafc)">
     <use xlink:href="#C0_0_a4fe8b7eec" x="619.154013" y="68.930919" style="fill: #4c72b0; fill-opacity: 0.7"/>
    </g>
    <g clip-path="url(#p45a669fafc)">
     <use xlink:href="#C0_0_a4fe8b7eec" x="320.931862" y="68.345936" style="fill: #4c72b0; fill-opacity: 0.7"/>
    </g>
    <g clip-path="url(#p45a669fafc)">
     <use xlink:href="#C0_0_a4fe8b7eec" x="626.636639" y="77.799854" style="fill: #4c72b0; fill-opacity: 0.7"/>
    </g>
    <g clip-path="url(#p45a669fafc)">
     <use xlink:href="#C0_0_a4fe8b7eec" x="265.002842" y="81.892173" style="fill: #4c72b0; fill-opacity: 0.7"/>
    </g>
    <g clip-path="url(#p45a669fafc)">
     <use xlink:href="#C0_0_a4fe8b7eec" x="309.859836" y="65.281586" style="fill: #4c72b0; fill-opacity: 0.7"/>
    </g>
    <g clip-path="url(#p45a669fafc)">
     <use xlink:href="#C0_0_a4fe8b7eec" x="403.966114" y="68.034104" style="fill: #4c72b0; fill-opacity: 0.7"/>
    </g>
    <g clip-path="url(#p45a669fafc)">
     <use xlink:href="#C0_0_a4fe8b7eec" x="385.723651" y="91.88486" style="fill: #4c72b0; fill-opacity: 0.7"/>
    </g>
    <g clip-path="url(#p45a669fafc)">
     <use xlink:href="#C0_0_a4fe8b7eec" x="522.041414" y="62.8182" style="fill: #4c72b0; fill-opacity: 0.7"/>
    </g>
    <g clip-path="url(#p45a669fafc)">
     <use xlink:href="#C0_0_a4fe8b7eec" x="429.425155" y="73.351187" style="fill: #4c72b0; fill-opacity: 0.7"/>
    </g>
    <g clip-path="url(#p45a669fafc)">
     <use xlink:href="#C0_0_a4fe8b7eec" x="467.358078" y="91.379614" style="fill: #4c72b0; fill-opacity: 0.7"/>
    </g>
    <g clip-path="url(#p45a669fafc)">
     <use xlink:href="#C0_0_a4fe8b7eec" x="291.593016" y="80.195465" style="fill: #4c72b0; fill-opacity: 0.7"/>
    </g>
    <g clip-path="url(#p45a669fafc)">
     <use xlink:href="#C0_0_a4fe8b7eec" x="563.969229" y="72.449984" style="fill: #4c72b0; fill-opacity: 0.7"/>
    </g>
    <g clip-path="url(#p45a669fafc)">
     <use xlink:href="#C0_0_a4fe8b7eec" x="409.807582" y="65.960728" style="fill: #4c72b0; fill-opacity: 0.7"/>
    </g>
    <g clip-path="url(#p45a669fafc)">
     <use xlink:href="#C0_0_a4fe8b7eec" x="340.949644" y="49.884834" style="fill: #4c72b0; fill-opacity: 0.7"/>
    </g>
    <g clip-path="url(#p45a669fafc)">
     <use xlink:href="#C0_0_a4fe8b7eec" x="474.806353" y="68.265935" style="fill: #4c72b0; fill-opacity: 0.7"/>
    </g>
    <g clip-path="url(#p45a669fafc)">
     <use xlink:href="#C0_0_a4fe8b7eec" x="644.276815" y="83.12387" style="fill: #4c72b0; fill-opacity: 0.7"/>
    </g>
    <g clip-path="url(#p45a669fafc)">
     <use xlink:href="#C0_0_a4fe8b7eec" x="491.016276" y="93.269211" style="fill: #4c72b0; fill-opacity: 0.7"/>
    </g>
    <g clip-path="url(#p45a669fafc)">
     <use xlink:href="#C0_0_a4fe8b7eec" x="578.86398" y="73.463252" style="fill: #4c72b0; fill-opacity: 0.7"/>
    </g>
    <g clip-path="url(#p45a669fafc)">
     <use xlink:href="#C0_0_a4fe8b7eec" x="401.45428" y="87.965214" style="fill: #4c72b0; fill-opacity: 0.7"/>
    </g>
    <g clip-path="url(#p45a669fafc)">
     <use xlink:href="#C0_0_a4fe8b7eec" x="602.544057" y="60.60389" style="fill: #4c72b0; fill-opacity: 0.7"/>
    </g>
    <g clip-path="url(#p45a669fafc)">
     <use xlink:href="#C0_0_a4fe8b7eec" x="294.959937" y="96.741706" style="fill: #4c72b0; fill-opacity: 0.7"/>
    </g>
    <g clip-path="url(#p45a669fafc)">
     <use xlink:href="#C0_0_a4fe8b7eec" x="278.511535" y="59.285337" style="fill: #4c72b0; fill-opacity: 0.7"/>
    </g>
    <g clip-path="url(#p45a669fafc)">
     <use xlink:href="#C0_0_a4fe8b7eec" x="502.369725" y="81.405833" style="fill: #4c72b0; fill-opacity: 0.7"/>
    </g>
    <g clip-path="url(#p45a669fafc)">
     <use xlink:href="#C0_0_a4fe8b7eec" x="589.319004" y="87.914109" style="fill: #4c72b0; fill-opacity: 0.7"/>
    </g>
    <g clip-path="url(#p45a669fafc)">
     <use xlink:href="#C0_0_a4fe8b7eec" x="644.236364" y="81.454534" style="fill: #4c72b0; fill-opacity: 0.7"/>
    </g>
    <g clip-path="url(#p45a669fafc)">
     <use xlink:href="#C0_0_a4fe8b7eec" x="341.681542" y="76.007264" style="fill: #4c72b0; fill-opacity: 0.7"/>
    </g>
    <g clip-path="url(#p45a669fafc)">
     <use xlink:href="#C0_0_a4fe8b7eec" x="675.386213" y="78.359245" style="fill: #4c72b0; fill-opacity: 0.7"/>
    </g>
    <g clip-path="url(#p45a669fafc)">
     <use xlink:href="#C0_0_a4fe8b7eec" x="406.699086" y="95.543567" style="fill: #4c72b0; fill-opacity: 0.7"/>
    </g>
    <g clip-path="url(#p45a669fafc)">
     <use xlink:href="#C0_0_a4fe8b7eec" x="331.394614" y="72.931317" style="fill: #4c72b0; fill-opacity: 0.7"/>
    </g>
    <g clip-path="url(#p45a669fafc)">
     <use xlink:href="#C0_0_a4fe8b7eec" x="482.692333" y="86.246974" style="fill: #4c72b0; fill-opacity: 0.7"/>
    </g>
    <g clip-path="url(#p45a669fafc)">
     <use xlink:href="#C0_0_a4fe8b7eec" x="511.726016" y="74.110785" style="fill: #4c72b0; fill-opacity: 0.7"/>
    </g>
    <g clip-path="url(#p45a669fafc)">
     <use xlink:href="#C0_0_a4fe8b7eec" x="264.629277" y="78.086751" style="fill: #4c72b0; fill-opacity: 0.7"/>
    </g>
    <g clip-path="url(#p45a669fafc)">
     <use xlink:href="#C0_0_a4fe8b7eec" x="561.985028" y="78.892982" style="fill: #4c72b0; fill-opacity: 0.7"/>
    </g>
    <g clip-path="url(#p45a669fafc)">
     <use xlink:href="#C0_0_a4fe8b7eec" x="261.609452" y="80.816698" style="fill: #4c72b0; fill-opacity: 0.7"/>
    </g>
    <g clip-path="url(#p45a669fafc)">
     <use xlink:href="#C0_0_a4fe8b7eec" x="324.925612" y="55.192244" style="fill: #4c72b0; fill-opacity: 0.7"/>
    </g>
    <g clip-path="url(#p45a669fafc)">
     <use xlink:href="#C0_0_a4fe8b7eec" x="367.743221" y="59.289509" style="fill: #4c72b0; fill-opacity: 0.7"/>
    </g>
    <g clip-path="url(#p45a669fafc)">
     <use xlink:href="#C0_0_a4fe8b7eec" x="280.590021" y="61.306899" style="fill: #4c72b0; fill-opacity: 0.7"/>
    </g>
    <g clip-path="url(#p45a669fafc)">
     <use xlink:href="#C0_0_a4fe8b7eec" x="588.455002" y="63.971767" style="fill: #4c72b0; fill-opacity: 0.7"/>
    </g>
    <g clip-path="url(#p45a669fafc)">
     <use xlink:href="#C0_0_a4fe8b7eec" x="361.011216" y="96.467505" style="fill: #4c72b0; fill-opacity: 0.7"/>
    </g>
    <g clip-path="url(#p45a669fafc)">
     <use xlink:href="#C0_0_a4fe8b7eec" x="357.545365" y="78.912757" style="fill: #4c72b0; fill-opacity: 0.7"/>
    </g>
    <g clip-path="url(#p45a669fafc)">
     <use xlink:href="#C0_0_a4fe8b7eec" x="517.387345" y="71.057629" style="fill: #4c72b0; fill-opacity: 0.7"/>
    </g>
    <g clip-path="url(#p45a669fafc)">
     <use xlink:href="#C0_0_a4fe8b7eec" x="324.245009" y="51.354958" style="fill: #4c72b0; fill-opacity: 0.7"/>
    </g>
    <g clip-path="url(#p45a669fafc)">
     <use xlink:href="#C0_0_a4fe8b7eec" x="256.585388" y="57.02499" style="fill: #4c72b0; fill-opacity: 0.7"/>
    </g>
    <g clip-path="url(#p45a669fafc)">
     <use xlink:href="#C0_0_a4fe8b7eec" x="270.68352" y="73.04813" style="fill: #4c72b0; fill-opacity: 0.7"/>
    </g>
    <g clip-path="url(#p45a669fafc)">
     <use xlink:href="#C0_0_a4fe8b7eec" x="366.301168" y="81.459913" style="fill: #4c72b0; fill-opacity: 0.7"/>
    </g>
    <g clip-path="url(#p45a669fafc)">
     <use xlink:href="#C0_0_a4fe8b7eec" x="367.48574" y="99.461079" style="fill: #4c72b0; fill-opacity: 0.7"/>
    </g>
    <g clip-path="url(#p45a669fafc)">
     <use xlink:href="#C0_0_a4fe8b7eec" x="341.33012" y="57.736081" style="fill: #4c72b0; fill-opacity: 0.7"/>
    </g>
    <g clip-path="url(#p45a669fafc)">
     <use xlink:href="#C0_0_a4fe8b7eec" x="484.050633" y="84.184879" style="fill: #4c72b0; fill-opacity: 0.7"/>
    </g>
    <g clip-path="url(#p45a669fafc)">
     <use xlink:href="#C0_0_a4fe8b7eec" x="310.001328" y="84.780695" style="fill: #4c72b0; fill-opacity: 0.7"/>
    </g>
    <g clip-path="url(#p45a669fafc)">
     <use xlink:href="#C0_0_a4fe8b7eec" x="395.508272" y="69.435938" style="fill: #4c72b0; fill-opacity: 0.7"/>
    </g>
    <g clip-path="url(#p45a669fafc)">
     <use xlink:href="#C0_0_a4fe8b7eec" x="342.767531" y="95.22725" style="fill: #4c72b0; fill-opacity: 0.7"/>
    </g>
   </g>
   <g id="PolyCollection_1">
    <defs>
     <path id="m70874e27cd" d="M 256.585388 -227.824728 
L 256.585388 -273.780727 
L 260.815699 -275.0662 
L 265.046011 -276.330813 
L 269.276322 -277.566617 
L 273.506633 -278.765916 
L 277.736945 -279.921347 
L 281.967256 -281.025957 
L 286.197567 -282.073268 
L 290.427879 -283.057324 
L 294.65819 -283.972742 
L 298.888501 -284.814736 
L 303.118813 -285.579152 
L 307.349124 -286.262486 
L 311.579436 -286.8619 
L 315.809747 -287.375238 
L 320.040058 -287.801037 
L 324.27037 -288.138541 
L 328.500681 -288.387711 
L 332.730992 -288.549236 
L 336.961304 -288.624545 
L 341.191615 -288.61581 
L 345.421926 -288.525953 
L 349.652238 -288.358641 
L 353.882549 -288.118281 
L 358.112861 -287.809995 
L 362.343172 -287.439595 
L 366.573483 -287.013536 
L 370.803795 -286.538861 
L 375.034106 -286.023121 
L 379.264417 -285.474292 
L 383.494729 -284.900665 
L 387.72504 -284.310727 
L 391.955351 -283.713024 
L 396.185663 -283.116021 
L 400.415974 -282.527944 
L 404.646286 -281.956625 
L 408.876597 -281.409347 
L 413.106908 -280.892693 
L 417.33722 -280.412403 
L 421.567531 -279.973255 
L 425.797842 -279.578955 
L 430.028154 -279.232063 
L 434.258465 -278.933942 
L 438.488776 -278.684743 
L 442.719088 -278.483416 
L 446.949399 -278.327769 
L 451.179711 -278.214548 
L 455.410022 -278.139554 
L 459.640333 -278.097788 
L 463.870645 -278.08362 
L 468.100956 -278.090966 
L 472.331267 -278.113488 
L 476.561579 -278.144786 
L 480.79189 -278.178587 
L 485.022201 -278.208929 
L 489.252513 -278.230311 
L 493.482824 -278.237833 
L 497.713136 -278.227297 
L 501.943447 -278.195279 
L 506.173758 -278.139162 
L 510.40407 -278.05714 
L 514.634381 -277.948189 
L 518.864692 -277.812002 
L 523.095004 -277.648908 
L 527.325315 -277.459763 
L 531.555627 -277.245833 
L 535.785938 -277.008668 
L 540.016249 -276.749978 
L 544.246561 -276.47151 
L 548.476872 -276.174936 
L 552.707183 -275.861767 
L 556.937495 -275.533268 
L 561.167806 -275.190412 
L 565.398117 -274.833844 
L 569.628429 -274.463875 
L 573.85874 -274.08049 
L 578.089052 -273.68338 
L 582.319363 -273.27199 
L 586.549674 -272.845575 
L 590.779986 -272.40327 
L 595.010297 -271.944162 
L 599.240608 -271.467364 
L 603.47092 -270.972087 
L 607.701231 -270.457709 
L 611.931542 -269.923832 
L 616.161854 -269.370334 
L 620.392165 -268.797407 
L 624.622477 -268.205584 
L 628.852788 -267.595756 
L 633.083099 -266.969174 
L 637.313411 -266.32744 
L 641.543722 -265.67249 
L 645.774033 -265.006563 
L 650.004345 -264.332169 
L 654.234656 -263.652039 
L 658.464967 -262.969084 
L 662.695279 -262.286337 
L 666.92559 -261.606904 
L 671.155902 -260.933904 
L 675.386213 -260.270418 
L 675.386213 -241.335036 
L 675.386213 -241.335036 
L 671.155902 -240.671551 
L 666.92559 -239.998551 
L 662.695279 -239.319117 
L 658.464967 -238.636371 
L 654.234656 -237.953416 
L 650.004345 -237.273286 
L 645.774033 -236.598891 
L 641.543722 -235.932965 
L 637.313411 -235.278015 
L 633.083099 -234.636281 
L 628.852788 -234.009699 
L 624.622477 -233.399871 
L 620.392165 -232.808048 
L 616.161854 -232.23512 
L 611.931542 -231.681622 
L 607.701231 -231.147745 
L 603.47092 -230.633367 
L 599.240608 -230.138091 
L 595.010297 -229.661293 
L 590.779986 -229.202185 
L 586.549674 -228.75988 
L 582.319363 -228.333465 
L 578.089052 -227.922074 
L 573.85874 -227.524965 
L 569.628429 -227.141579 
L 565.398117 -226.77161 
L 561.167806 -226.415043 
L 556.937495 -226.072187 
L 552.707183 -225.743688 
L 548.476872 -225.430518 
L 544.246561 -225.133945 
L 540.016249 -224.855476 
L 535.785938 -224.596786 
L 531.555627 -224.359622 
L 527.325315 -224.145692 
L 523.095004 -223.956546 
L 518.864692 -223.793452 
L 514.634381 -223.657266 
L 510.40407 -223.548315 
L 506.173758 -223.466293 
L 501.943447 -223.410176 
L 497.713136 -223.378157 
L 493.482824 -223.367622 
L 489.252513 -223.375144 
L 485.022201 -223.396526 
L 480.79189 -223.426867 
L 476.561579 -223.460669 
L 472.331267 -223.491966 
L 468.100956 -223.514488 
L 463.870645 -223.521835 
L 459.640333 -223.507666 
L 455.410022 -223.465901 
L 451.179711 -223.390907 
L 446.949399 -223.277686 
L 442.719088 -223.122039 
L 438.488776 -222.920712 
L 434.258465 -222.671512 
L 430.028154 -222.373392 
L 425.797842 -222.0265 
L 421.567531 -221.6322 
L 417.33722 -221.193051 
L 413.106908 -220.712762 
L 408.876597 -220.196107 
L 404.646286 -219.648829 
L 400.415974 -219.07751 
L 396.185663 -218.489433 
L 391.955351 -217.89243 
L 387.72504 -217.294728 
L 383.494729 -216.70479 
L 379.264417 -216.131163 
L 375.034106 -215.582334 
L 370.803795 -215.066594 
L 366.573483 -214.591918 
L 362.343172 -214.16586 
L 358.112861 -213.79546 
L 353.882549 -213.487174 
L 349.652238 -213.246813 
L 345.421926 -213.079502 
L 341.191615 -212.989644 
L 336.961304 -212.980909 
L 332.730992 -213.056218 
L 328.500681 -213.217744 
L 324.27037 -213.466914 
L 320.040058 -213.804418 
L 315.809747 -214.230217 
L 311.579436 -214.743554 
L 307.349124 -215.342969 
L 303.118813 -216.026303 
L 298.888501 -216.790719 
L 294.65819 -217.632713 
L 290.427879 -218.54813 
L 286.197567 -219.532187 
L 281.967256 -220.579497 
L 277.736945 -221.684108 
L 273.506633 -222.839539 
L 269.276322 -224.038837 
L 265.046011 -225.274642 
L 260.815699 -226.539255 
L 256.585388 -227.824728 
z
" style="stroke: #ffffff; stroke-opacity: 0.3; stroke-width: 2"/>
    </defs>
    <g clip-path="url(#p45a669fafc)">
     <use xlink:href="#m70874e27cd" x="0" y="324" style="fill: #4c72b0; fill-opacity: 0.3; stroke: #ffffff; stroke-opacity: 0.3; stroke-width: 2"/>
    </g>
   </g>
   <g id="PathCollection_2">
    <defs>
     <path id="C1_0_521055cd7c" d="M 0 5 
C 1.326016 5 2.597899 4.473168 3.535534 3.535534 
C 4.473168 2.597899 5 1.326016 5 -0 
C 5 -1.326016 4.473168 -2.597899 3.535534 -3.535534 
C 2.597899 -4.473168 1.326016 -5 0 -5 
C -1.326016 -5 -2.597899 -4.473168 -3.535534 -3.535534 
C -4.473168 -2.597899 -5 -1.326016 -5 0 
C -5 1.326016 -4.473168 2.597899 -3.535534 3.535534 
C -2.597899 4.473168 -1.326016 5 0 5 
z
"/>
    </defs>
    <g clip-path="url(#p45a669fafc)">
     <use xlink:href="#C1_0_521055cd7c" x="476.077083" y="185.994677" style="fill: #dd8452; fill-opacity: 0.7"/>
    </g>
    <g clip-path="url(#p45a669fafc)">
     <use xlink:href="#C1_0_521055cd7c" x="496.044573" y="197.545531" style="fill: #dd8452; fill-opacity: 0.7"/>
    </g>
    <g clip-path="url(#p45a669fafc)">
     <use xlink:href="#C1_0_521055cd7c" x="507.407246" y="167.713327" style="fill: #dd8452; fill-opacity: 0.7"/>
    </g>
    <g clip-path="url(#p45a669fafc)">
     <use xlink:href="#C1_0_521055cd7c" x="535.081114" y="177.058667" style="fill: #dd8452; fill-opacity: 0.7"/>
    </g>
    <g clip-path="url(#p45a669fafc)">
     <use xlink:href="#C1_0_521055cd7c" x="550.616285" y="191.65463" style="fill: #dd8452; fill-opacity: 0.7"/>
    </g>
    <g clip-path="url(#p45a669fafc)">
     <use xlink:href="#C1_0_521055cd7c" x="514.541376" y="200.682609" style="fill: #dd8452; fill-opacity: 0.7"/>
    </g>
    <g clip-path="url(#p45a669fafc)">
     <use xlink:href="#C1_0_521055cd7c" x="543.426516" y="173.605884" style="fill: #dd8452; fill-opacity: 0.7"/>
    </g>
    <g clip-path="url(#p45a669fafc)">
     <use xlink:href="#C1_0_521055cd7c" x="490.233187" y="176.199383" style="fill: #dd8452; fill-opacity: 0.7"/>
    </g>
    <g clip-path="url(#p45a669fafc)">
     <use xlink:href="#C1_0_521055cd7c" x="539.35553" y="183.504926" style="fill: #dd8452; fill-opacity: 0.7"/>
    </g>
    <g clip-path="url(#p45a669fafc)">
     <use xlink:href="#C1_0_521055cd7c" x="536.964465" y="191.562081" style="fill: #dd8452; fill-opacity: 0.7"/>
    </g>
    <g clip-path="url(#p45a669fafc)">
     <use xlink:href="#C1_0_521055cd7c" x="391.394079" y="185.070891" style="fill: #dd8452; fill-opacity: 0.7"/>
    </g>
    <g clip-path="url(#p45a669fafc)">
     <use xlink:href="#C1_0_521055cd7c" x="392.018282" y="181.757668" style="fill: #dd8452; fill-opacity: 0.7"/>
    </g>
    <g clip-path="url(#p45a669fafc)">
     <use xlink:href="#C1_0_521055cd7c" x="375.451451" y="185.424027" style="fill: #dd8452; fill-opacity: 0.7"/>
    </g>
    <g clip-path="url(#p45a669fafc)">
     <use xlink:href="#C1_0_521055cd7c" x="399.375611" y="189.973607" style="fill: #dd8452; fill-opacity: 0.7"/>
    </g>
    <g clip-path="url(#p45a669fafc)">
     <use xlink:href="#C1_0_521055cd7c" x="330.472423" y="187.134557" style="fill: #dd8452; fill-opacity: 0.7"/>
    </g>
    <g clip-path="url(#p45a669fafc)">
     <use xlink:href="#C1_0_521055cd7c" x="371.736311" y="182.13689" style="fill: #dd8452; fill-opacity: 0.7"/>
    </g>
    <g clip-path="url(#p45a669fafc)">
     <use xlink:href="#C1_0_521055cd7c" x="451.808302" y="176.48384" style="fill: #dd8452; fill-opacity: 0.7"/>
    </g>
    <g clip-path="url(#p45a669fafc)">
     <use xlink:href="#C1_0_521055cd7c" x="421.406924" y="178.14771" style="fill: #dd8452; fill-opacity: 0.7"/>
    </g>
    <g clip-path="url(#p45a669fafc)">
     <use xlink:href="#C1_0_521055cd7c" x="427.402584" y="188.993681" style="fill: #dd8452; fill-opacity: 0.7"/>
    </g>
    <g clip-path="url(#p45a669fafc)">
     <use xlink:href="#C1_0_521055cd7c" x="451.211975" y="206.175528" style="fill: #dd8452; fill-opacity: 0.7"/>
    </g>
    <g clip-path="url(#p45a669fafc)">
     <use xlink:href="#C1_0_521055cd7c" x="394.920811" y="190.304708" style="fill: #dd8452; fill-opacity: 0.7"/>
    </g>
    <g clip-path="url(#p45a669fafc)">
     <use xlink:href="#C1_0_521055cd7c" x="436.659773" y="184.424735" style="fill: #dd8452; fill-opacity: 0.7"/>
    </g>
    <g clip-path="url(#p45a669fafc)">
     <use xlink:href="#C1_0_521055cd7c" x="441.888366" y="190.267257" style="fill: #dd8452; fill-opacity: 0.7"/>
    </g>
    <g clip-path="url(#p45a669fafc)">
     <use xlink:href="#C1_0_521055cd7c" x="476.001641" y="181.149946" style="fill: #dd8452; fill-opacity: 0.7"/>
    </g>
    <g clip-path="url(#p45a669fafc)">
     <use xlink:href="#C1_0_521055cd7c" x="433.232642" y="177.400186" style="fill: #dd8452; fill-opacity: 0.7"/>
    </g>
    <g clip-path="url(#p45a669fafc)">
     <use xlink:href="#C1_0_521055cd7c" x="472.012018" y="200.114959" style="fill: #dd8452; fill-opacity: 0.7"/>
    </g>
    <g clip-path="url(#p45a669fafc)">
     <use xlink:href="#C1_0_521055cd7c" x="475.382072" y="210.523827" style="fill: #dd8452; fill-opacity: 0.7"/>
    </g>
    <g clip-path="url(#p45a669fafc)">
     <use xlink:href="#C1_0_521055cd7c" x="490.232444" y="172.292923" style="fill: #dd8452; fill-opacity: 0.7"/>
    </g>
    <g clip-path="url(#p45a669fafc)">
     <use xlink:href="#C1_0_521055cd7c" x="523.278329" y="199.350444" style="fill: #dd8452; fill-opacity: 0.7"/>
    </g>
    <g clip-path="url(#p45a669fafc)">
     <use xlink:href="#C1_0_521055cd7c" x="471.44634" y="179.274536" style="fill: #dd8452; fill-opacity: 0.7"/>
    </g>
    <g clip-path="url(#p45a669fafc)">
     <use xlink:href="#C1_0_521055cd7c" x="479.78155" y="196.26637" style="fill: #dd8452; fill-opacity: 0.7"/>
    </g>
    <g clip-path="url(#p45a669fafc)">
     <use xlink:href="#C1_0_521055cd7c" x="564.46647" y="189.690206" style="fill: #dd8452; fill-opacity: 0.7"/>
    </g>
    <g clip-path="url(#p45a669fafc)">
     <use xlink:href="#C1_0_521055cd7c" x="495.013112" y="183.114278" style="fill: #dd8452; fill-opacity: 0.7"/>
    </g>
    <g clip-path="url(#p45a669fafc)">
     <use xlink:href="#C1_0_521055cd7c" x="509.37183" y="165.09961" style="fill: #dd8452; fill-opacity: 0.7"/>
    </g>
    <g clip-path="url(#p45a669fafc)">
     <use xlink:href="#C1_0_521055cd7c" x="524.936067" y="197.317742" style="fill: #dd8452; fill-opacity: 0.7"/>
    </g>
    <g clip-path="url(#p45a669fafc)">
     <use xlink:href="#C1_0_521055cd7c" x="476.10275" y="175.074498" style="fill: #dd8452; fill-opacity: 0.7"/>
    </g>
    <g clip-path="url(#p45a669fafc)">
     <use xlink:href="#C1_0_521055cd7c" x="550.254709" y="175.948988" style="fill: #dd8452; fill-opacity: 0.7"/>
    </g>
    <g clip-path="url(#p45a669fafc)">
     <use xlink:href="#C1_0_521055cd7c" x="502.088719" y="185.011103" style="fill: #dd8452; fill-opacity: 0.7"/>
    </g>
    <g clip-path="url(#p45a669fafc)">
     <use xlink:href="#C1_0_521055cd7c" x="484.744802" y="207.594027" style="fill: #dd8452; fill-opacity: 0.7"/>
    </g>
    <g clip-path="url(#p45a669fafc)">
     <use xlink:href="#C1_0_521055cd7c" x="498.202024" y="192.210406" style="fill: #dd8452; fill-opacity: 0.7"/>
    </g>
    <g clip-path="url(#p45a669fafc)">
     <use xlink:href="#C1_0_521055cd7c" x="467.932102" y="211.524511" style="fill: #dd8452; fill-opacity: 0.7"/>
    </g>
    <g clip-path="url(#p45a669fafc)">
     <use xlink:href="#C1_0_521055cd7c" x="460.962738" y="180.34767" style="fill: #dd8452; fill-opacity: 0.7"/>
    </g>
    <g clip-path="url(#p45a669fafc)">
     <use xlink:href="#C1_0_521055cd7c" x="485.841684" y="202.779084" style="fill: #dd8452; fill-opacity: 0.7"/>
    </g>
    <g clip-path="url(#p45a669fafc)">
     <use xlink:href="#C1_0_521055cd7c" x="463.557184" y="191.489773" style="fill: #dd8452; fill-opacity: 0.7"/>
    </g>
    <g clip-path="url(#p45a669fafc)">
     <use xlink:href="#C1_0_521055cd7c" x="468.60396" y="212.800985" style="fill: #dd8452; fill-opacity: 0.7"/>
    </g>
    <g clip-path="url(#p45a669fafc)">
     <use xlink:href="#C1_0_521055cd7c" x="463.432383" y="174.805804" style="fill: #dd8452; fill-opacity: 0.7"/>
    </g>
    <g clip-path="url(#p45a669fafc)">
     <use xlink:href="#C1_0_521055cd7c" x="467.21234" y="178.960077" style="fill: #dd8452; fill-opacity: 0.7"/>
    </g>
    <g clip-path="url(#p45a669fafc)">
     <use xlink:href="#C1_0_521055cd7c" x="472.623086" y="199.621375" style="fill: #dd8452; fill-opacity: 0.7"/>
    </g>
    <g clip-path="url(#p45a669fafc)">
     <use xlink:href="#C1_0_521055cd7c" x="499.991033" y="205.104213" style="fill: #dd8452; fill-opacity: 0.7"/>
    </g>
    <g clip-path="url(#p45a669fafc)">
     <use xlink:href="#C1_0_521055cd7c" x="468.477706" y="194.281783" style="fill: #dd8452; fill-opacity: 0.7"/>
    </g>
    <g clip-path="url(#p45a669fafc)">
     <use xlink:href="#C1_0_521055cd7c" x="505.369132" y="183.42089" style="fill: #dd8452; fill-opacity: 0.7"/>
    </g>
    <g clip-path="url(#p45a669fafc)">
     <use xlink:href="#C1_0_521055cd7c" x="475.20057" y="191.110369" style="fill: #dd8452; fill-opacity: 0.7"/>
    </g>
    <g clip-path="url(#p45a669fafc)">
     <use xlink:href="#C1_0_521055cd7c" x="530.596022" y="176.890562" style="fill: #dd8452; fill-opacity: 0.7"/>
    </g>
    <g clip-path="url(#p45a669fafc)">
     <use xlink:href="#C1_0_521055cd7c" x="513.731773" y="187.202014" style="fill: #dd8452; fill-opacity: 0.7"/>
    </g>
    <g clip-path="url(#p45a669fafc)">
     <use xlink:href="#C1_0_521055cd7c" x="555.185769" y="193.139862" style="fill: #dd8452; fill-opacity: 0.7"/>
    </g>
   </g>
   <g id="PolyCollection_2">
    <defs>
     <path id="mc1e310fed1" d="M 330.472423 -135.281836 
L 330.472423 -139.392709 
L 332.835999 -139.525241 
L 335.199575 -139.666656 
L 337.563151 -139.819838 
L 339.926728 -139.987843 
L 342.290304 -140.173724 
L 344.65388 -140.380339 
L 347.017456 -140.610142 
L 349.381033 -140.864991 
L 351.744609 -141.145966 
L 354.108185 -141.453224 
L 356.471761 -141.7859 
L 358.835338 -142.142055 
L 361.198914 -142.518687 
L 363.56249 -142.911809 
L 365.926066 -143.316578 
L 368.289642 -143.727492 
L 370.653219 -144.138632 
L 373.016795 -144.543939 
L 375.380371 -144.937516 
L 377.743947 -145.313946 
L 380.107524 -145.668589 
L 382.4711 -145.997864 
L 384.834676 -146.299482 
L 387.198252 -146.572628 
L 389.561829 -146.818079 
L 391.925405 -147.038246 
L 394.288981 -147.237143 
L 396.652557 -147.420285 
L 399.016134 -147.594523 
L 401.37971 -147.767826 
L 403.743286 -147.949025 
L 406.106862 -148.147533 
L 408.470438 -148.373064 
L 410.834015 -148.635355 
L 413.197591 -148.943913 
L 415.561167 -149.307778 
L 417.924743 -149.735322 
L 420.28832 -150.23407 
L 422.651896 -150.810533 
L 425.015472 -151.470052 
L 427.379048 -152.216641 
L 429.742625 -153.052815 
L 432.106201 -153.979408 
L 434.469777 -154.995373 
L 436.833353 -156.097585 
L 439.196929 -157.280648 
L 441.560506 -158.536732 
L 443.924082 -159.855477 
L 446.287658 -161.223965 
L 448.651234 -162.626808 
L 451.014811 -164.046352 
L 453.378387 -165.463026 
L 455.741963 -166.855813 
L 458.105539 -168.202847 
L 460.469116 -169.482105 
L 462.832692 -170.672162 
L 465.196268 -171.752959 
L 467.559844 -172.706549 
L 469.92342 -173.517761 
L 472.286997 -174.174755 
L 474.650573 -174.669417 
L 477.014149 -174.997584 
L 479.377725 -175.159091 
L 481.741302 -175.157623 
L 484.104878 -175.000417 
L 486.468454 -174.697817 
L 488.83203 -174.262724 
L 491.195607 -173.709981 
L 493.559183 -173.055724 
L 495.922759 -172.316738 
L 498.286335 -171.509845 
L 500.649911 -170.651352 
L 503.013488 -169.756572 
L 505.377064 -168.839423 
L 507.74064 -167.912124 
L 510.104216 -166.984969 
L 512.467793 -166.066194 
L 514.831369 -165.161914 
L 517.194945 -164.27614 
L 519.558521 -163.41087 
L 521.922098 -162.566227 
L 524.285674 -161.740674 
L 526.64925 -160.931269 
L 529.012826 -160.133966 
L 531.376402 -159.343949 
L 533.739979 -158.55599 
L 536.103555 -157.764817 
L 538.467131 -156.965463 
L 540.830707 -156.153606 
L 543.194284 -155.32586 
L 545.55786 -154.480009 
L 547.921436 -153.615182 
L 550.285012 -152.731948 
L 552.648589 -151.832325 
L 555.012165 -150.919728 
L 557.375741 -149.998822 
L 559.739317 -149.075328 
L 562.102894 -148.15577 
L 564.46647 -147.247189 
L 564.46647 -127.427356 
L 564.46647 -127.427356 
L 562.102894 -126.518776 
L 559.739317 -125.599217 
L 557.375741 -124.675723 
L 555.012165 -123.754817 
L 552.648589 -122.84222 
L 550.285012 -121.942598 
L 547.921436 -121.059363 
L 545.55786 -120.194537 
L 543.194284 -119.348686 
L 540.830707 -118.520939 
L 538.467131 -117.709083 
L 536.103555 -116.909729 
L 533.739979 -116.118555 
L 531.376402 -115.330597 
L 529.012826 -114.54058 
L 526.64925 -113.743276 
L 524.285674 -112.933872 
L 521.922098 -112.108319 
L 519.558521 -111.263676 
L 517.194945 -110.398405 
L 514.831369 -109.512632 
L 512.467793 -108.608351 
L 510.104216 -107.689576 
L 507.74064 -106.762422 
L 505.377064 -105.835123 
L 503.013488 -104.917974 
L 500.649911 -104.023193 
L 498.286335 -103.1647 
L 495.922759 -102.357808 
L 493.559183 -101.618821 
L 491.195607 -100.964564 
L 488.83203 -100.411822 
L 486.468454 -99.976729 
L 484.104878 -99.674128 
L 481.741302 -99.516922 
L 479.377725 -99.515455 
L 477.014149 -99.676961 
L 474.650573 -100.005129 
L 472.286997 -100.49979 
L 469.92342 -101.156784 
L 467.559844 -101.967996 
L 465.196268 -102.921586 
L 462.832692 -104.002383 
L 460.469116 -105.19244 
L 458.105539 -106.471698 
L 455.741963 -107.818732 
L 453.378387 -109.211519 
L 451.014811 -110.628193 
L 448.651234 -112.047738 
L 446.287658 -113.45058 
L 443.924082 -114.819068 
L 441.560506 -116.137813 
L 439.196929 -117.393898 
L 436.833353 -118.57696 
L 434.469777 -119.679172 
L 432.106201 -120.695138 
L 429.742625 -121.62173 
L 427.379048 -122.457904 
L 425.015472 -123.204493 
L 422.651896 -123.864012 
L 420.28832 -124.440475 
L 417.924743 -124.939223 
L 415.561167 -125.366768 
L 413.197591 -125.730633 
L 410.834015 -126.03919 
L 408.470438 -126.301482 
L 406.106862 -126.527013 
L 403.743286 -126.725521 
L 401.37971 -126.906719 
L 399.016134 -127.080023 
L 396.652557 -127.254261 
L 394.288981 -127.437403 
L 391.925405 -127.636299 
L 389.561829 -127.856466 
L 387.198252 -128.101918 
L 384.834676 -128.375064 
L 382.4711 -128.676681 
L 380.107524 -129.005956 
L 377.743947 -129.3606 
L 375.380371 -129.73703 
L 373.016795 -130.130607 
L 370.653219 -130.535913 
L 368.289642 -130.947053 
L 365.926066 -131.357968 
L 363.56249 -131.762737 
L 361.198914 -132.155858 
L 358.835338 -132.53249 
L 356.471761 -132.888645 
L 354.108185 -133.221321 
L 351.744609 -133.52858 
L 349.381033 -133.809554 
L 347.017456 -134.064403 
L 344.65388 -134.294207 
L 342.290304 -134.500821 
L 339.926728 -134.686703 
L 337.563151 -134.854707 
L 335.199575 -135.007889 
L 332.835999 -135.149304 
L 330.472423 -135.281836 
z
" style="stroke: #ffffff; stroke-opacity: 0.3; stroke-width: 2"/>
    </defs>
    <g clip-path="url(#p45a669fafc)">
     <use xlink:href="#mc1e310fed1" x="0" y="324" style="fill: #dd8452; fill-opacity: 0.3; stroke: #ffffff; stroke-opacity: 0.3; stroke-width: 2"/>
    </g>
   </g>
   <g id="line2d_7">
    <path d="M 507.762647 69.261094 
L 476.077083 185.994677 
" clip-path="url(#p45a669fafc)" style="fill: none; stroke: #000000; stroke-opacity: 0.2; stroke-width: 1.5; stroke-linecap: round"/>
   </g>
   <g id="line2d_8">
    <path d="M 562.526112 56.730923 
L 496.044573 197.545531 
" clip-path="url(#p45a669fafc)" style="fill: none; stroke: #000000; stroke-opacity: 0.2; stroke-width: 1.5; stroke-linecap: round"/>
   </g>
   <g id="line2d_9">
    <path d="M 507.649914 61.845408 
L 507.407246 167.713327 
" clip-path="url(#p45a669fafc)" style="fill: none; stroke: #000000; stroke-opacity: 0.2; stroke-width: 1.5; stroke-linecap: round"/>
   </g>
   <g id="line2d_10">
    <path d="M 479.98487 78.090039 
L 535.081114 177.058667 
" clip-path="url(#p45a669fafc)" style="fill: none; stroke: #000000; stroke-opacity: 0.2; stroke-width: 1.5; stroke-linecap: round"/>
   </g>
   <g id="line2d_11">
    <path d="M 619.154013 68.930919 
L 550.616285 191.65463 
" clip-path="url(#p45a669fafc)" style="fill: none; stroke: #000000; stroke-opacity: 0.2; stroke-width: 1.5; stroke-linecap: round"/>
   </g>
   <g id="line2d_12">
    <path d="M 320.931862 68.345936 
L 514.541376 200.682609 
" clip-path="url(#p45a669fafc)" style="fill: none; stroke: #000000; stroke-opacity: 0.2; stroke-width: 1.5; stroke-linecap: round"/>
   </g>
   <g id="line2d_13">
    <path d="M 626.636639 77.799854 
L 543.426516 173.605884 
" clip-path="url(#p45a669fafc)" style="fill: none; stroke: #000000; stroke-opacity: 0.2; stroke-width: 1.5; stroke-linecap: round"/>
   </g>
   <g id="line2d_14">
    <path d="M 265.002842 81.892173 
L 490.233187 176.199383 
" clip-path="url(#p45a669fafc)" style="fill: none; stroke: #000000; stroke-opacity: 0.2; stroke-width: 1.5; stroke-linecap: round"/>
   </g>
   <g id="line2d_15">
    <path d="M 309.859836 65.281586 
L 539.35553 183.504926 
" clip-path="url(#p45a669fafc)" style="fill: none; stroke: #000000; stroke-opacity: 0.2; stroke-width: 1.5; stroke-linecap: round"/>
   </g>
   <g id="line2d_16">
    <path d="M 403.966114 68.034104 
L 536.964465 191.562081 
" clip-path="url(#p45a669fafc)" style="fill: none; stroke: #000000; stroke-opacity: 0.2; stroke-width: 1.5; stroke-linecap: round"/>
   </g>
   <g id="line2d_17">
    <path d="M 385.723651 91.88486 
L 391.394079 185.070891 
" clip-path="url(#p45a669fafc)" style="fill: none; stroke: #000000; stroke-opacity: 0.2; stroke-width: 1.5; stroke-linecap: round"/>
   </g>
   <g id="line2d_18">
    <path d="M 522.041414 62.8182 
L 392.018282 181.757668 
" clip-path="url(#p45a669fafc)" style="fill: none; stroke: #000000; stroke-opacity: 0.2; stroke-width: 1.5; stroke-linecap: round"/>
   </g>
   <g id="line2d_19">
    <path d="M 429.425155 73.351187 
L 375.451451 185.424027 
" clip-path="url(#p45a669fafc)" style="fill: none; stroke: #000000; stroke-opacity: 0.2; stroke-width: 1.5; stroke-linecap: round"/>
   </g>
   <g id="line2d_20">
    <path d="M 467.358078 91.379614 
L 399.375611 189.973607 
" clip-path="url(#p45a669fafc)" style="fill: none; stroke: #000000; stroke-opacity: 0.2; stroke-width: 1.5; stroke-linecap: round"/>
   </g>
   <g id="line2d_21">
    <path d="M 291.593016 80.195465 
L 330.472423 187.134557 
" clip-path="url(#p45a669fafc)" style="fill: none; stroke: #000000; stroke-opacity: 0.2; stroke-width: 1.5; stroke-linecap: round"/>
   </g>
   <g id="line2d_22">
    <path d="M 563.969229 72.449984 
L 371.736311 182.13689 
" clip-path="url(#p45a669fafc)" style="fill: none; stroke: #000000; stroke-opacity: 0.2; stroke-width: 1.5; stroke-linecap: round"/>
   </g>
   <g id="line2d_23">
    <path d="M 409.807582 65.960728 
L 451.808302 176.48384 
" clip-path="url(#p45a669fafc)" style="fill: none; stroke: #000000; stroke-opacity: 0.2; stroke-width: 1.5; stroke-linecap: round"/>
   </g>
   <g id="line2d_24">
    <path d="M 340.949644 49.884834 
L 421.406924 178.14771 
" clip-path="url(#p45a669fafc)" style="fill: none; stroke: #000000; stroke-opacity: 0.2; stroke-width: 1.5; stroke-linecap: round"/>
   </g>
   <g id="line2d_25">
    <path d="M 474.806353 68.265935 
L 427.402584 188.993681 
" clip-path="url(#p45a669fafc)" style="fill: none; stroke: #000000; stroke-opacity: 0.2; stroke-width: 1.5; stroke-linecap: round"/>
   </g>
   <g id="line2d_26">
    <path d="M 644.276815 83.12387 
L 451.211975 206.175528 
" clip-path="url(#p45a669fafc)" style="fill: none; stroke: #000000; stroke-opacity: 0.2; stroke-width: 1.5; stroke-linecap: round"/>
   </g>
   <g id="line2d_27">
    <path d="M 491.016276 93.269211 
L 394.920811 190.304708 
" clip-path="url(#p45a669fafc)" style="fill: none; stroke: #000000; stroke-opacity: 0.2; stroke-width: 1.5; stroke-linecap: round"/>
   </g>
   <g id="line2d_28">
    <path d="M 578.86398 73.463252 
L 436.659773 184.424735 
" clip-path="url(#p45a669fafc)" style="fill: none; stroke: #000000; stroke-opacity: 0.2; stroke-width: 1.5; stroke-linecap: round"/>
   </g>
   <g id="line2d_29">
    <path d="M 401.45428 87.965214 
L 441.888366 190.267257 
" clip-path="url(#p45a669fafc)" style="fill: none; stroke: #000000; stroke-opacity: 0.2; stroke-width: 1.5; stroke-linecap: round"/>
   </g>
   <g id="line2d_30">
    <path d="M 602.544057 60.60389 
L 476.001641 181.149946 
" clip-path="url(#p45a669fafc)" style="fill: none; stroke: #000000; stroke-opacity: 0.2; stroke-width: 1.5; stroke-linecap: round"/>
   </g>
   <g id="line2d_31">
    <path d="M 294.959937 96.741706 
L 433.232642 177.400186 
" clip-path="url(#p45a669fafc)" style="fill: none; stroke: #000000; stroke-opacity: 0.2; stroke-width: 1.5; stroke-linecap: round"/>
   </g>
   <g id="line2d_32">
    <path d="M 278.511535 59.285337 
L 472.012018 200.114959 
" clip-path="url(#p45a669fafc)" style="fill: none; stroke: #000000; stroke-opacity: 0.2; stroke-width: 1.5; stroke-linecap: round"/>
   </g>
   <g id="line2d_33">
    <path d="M 502.369725 81.405833 
L 475.382072 210.523827 
" clip-path="url(#p45a669fafc)" style="fill: none; stroke: #000000; stroke-opacity: 0.2; stroke-width: 1.5; stroke-linecap: round"/>
   </g>
   <g id="line2d_34">
    <path d="M 589.319004 87.914109 
L 490.232444 172.292923 
" clip-path="url(#p45a669fafc)" style="fill: none; stroke: #000000; stroke-opacity: 0.2; stroke-width: 1.5; stroke-linecap: round"/>
   </g>
   <g id="line2d_35">
    <path d="M 644.236364 81.454534 
L 523.278329 199.350444 
" clip-path="url(#p45a669fafc)" style="fill: none; stroke: #000000; stroke-opacity: 0.2; stroke-width: 1.5; stroke-linecap: round"/>
   </g>
   <g id="line2d_36">
    <path d="M 341.681542 76.007264 
L 471.44634 179.274536 
" clip-path="url(#p45a669fafc)" style="fill: none; stroke: #000000; stroke-opacity: 0.2; stroke-width: 1.5; stroke-linecap: round"/>
   </g>
   <g id="line2d_37">
    <path d="M 675.386213 78.359245 
L 479.78155 196.26637 
" clip-path="url(#p45a669fafc)" style="fill: none; stroke: #000000; stroke-opacity: 0.2; stroke-width: 1.5; stroke-linecap: round"/>
   </g>
   <g id="line2d_38">
    <path d="M 406.699086 95.543567 
L 564.46647 189.690206 
" clip-path="url(#p45a669fafc)" style="fill: none; stroke: #000000; stroke-opacity: 0.2; stroke-width: 1.5; stroke-linecap: round"/>
   </g>
   <g id="line2d_39">
    <path d="M 331.394614 72.931317 
L 495.013112 183.114278 
" clip-path="url(#p45a669fafc)" style="fill: none; stroke: #000000; stroke-opacity: 0.2; stroke-width: 1.5; stroke-linecap: round"/>
   </g>
   <g id="line2d_40">
    <path d="M 482.692333 86.246974 
L 509.37183 165.09961 
" clip-path="url(#p45a669fafc)" style="fill: none; stroke: #000000; stroke-opacity: 0.2; stroke-width: 1.5; stroke-linecap: round"/>
   </g>
   <g id="line2d_41">
    <path d="M 511.726016 74.110785 
L 524.936067 197.317742 
" clip-path="url(#p45a669fafc)" style="fill: none; stroke: #000000; stroke-opacity: 0.2; stroke-width: 1.5; stroke-linecap: round"/>
   </g>
   <g id="line2d_42">
    <path d="M 264.629277 78.086751 
L 476.10275 175.074498 
" clip-path="url(#p45a669fafc)" style="fill: none; stroke: #000000; stroke-opacity: 0.2; stroke-width: 1.5; stroke-linecap: round"/>
   </g>
   <g id="line2d_43">
    <path d="M 561.985028 78.892982 
L 550.254709 175.948988 
" clip-path="url(#p45a669fafc)" style="fill: none; stroke: #000000; stroke-opacity: 0.2; stroke-width: 1.5; stroke-linecap: round"/>
   </g>
   <g id="line2d_44">
    <path d="M 261.609452 80.816698 
L 502.088719 185.011103 
" clip-path="url(#p45a669fafc)" style="fill: none; stroke: #000000; stroke-opacity: 0.2; stroke-width: 1.5; stroke-linecap: round"/>
   </g>
   <g id="line2d_45">
    <path d="M 324.925612 55.192244 
L 484.744802 207.594027 
" clip-path="url(#p45a669fafc)" style="fill: none; stroke: #000000; stroke-opacity: 0.2; stroke-width: 1.5; stroke-linecap: round"/>
   </g>
   <g id="line2d_46">
    <path d="M 367.743221 59.289509 
L 498.202024 192.210406 
" clip-path="url(#p45a669fafc)" style="fill: none; stroke: #000000; stroke-opacity: 0.2; stroke-width: 1.5; stroke-linecap: round"/>
   </g>
   <g id="line2d_47">
    <path d="M 280.590021 61.306899 
L 467.932102 211.524511 
" clip-path="url(#p45a669fafc)" style="fill: none; stroke: #000000; stroke-opacity: 0.2; stroke-width: 1.5; stroke-linecap: round"/>
   </g>
   <g id="line2d_48">
    <path d="M 588.455002 63.971767 
L 460.962738 180.34767 
" clip-path="url(#p45a669fafc)" style="fill: none; stroke: #000000; stroke-opacity: 0.2; stroke-width: 1.5; stroke-linecap: round"/>
   </g>
   <g id="line2d_49">
    <path d="M 361.011216 96.467505 
L 485.841684 202.779084 
" clip-path="url(#p45a669fafc)" style="fill: none; stroke: #000000; stroke-opacity: 0.2; stroke-width: 1.5; stroke-linecap: round"/>
   </g>
   <g id="line2d_50">
    <path d="M 357.545365 78.912757 
L 463.557184 191.489773 
" clip-path="url(#p45a669fafc)" style="fill: none; stroke: #000000; stroke-opacity: 0.2; stroke-width: 1.5; stroke-linecap: round"/>
   </g>
   <g id="line2d_51">
    <path d="M 517.387345 71.057629 
L 468.60396 212.800985 
" clip-path="url(#p45a669fafc)" style="fill: none; stroke: #000000; stroke-opacity: 0.2; stroke-width: 1.5; stroke-linecap: round"/>
   </g>
   <g id="line2d_52">
    <path d="M 324.245009 51.354958 
L 463.432383 174.805804 
" clip-path="url(#p45a669fafc)" style="fill: none; stroke: #000000; stroke-opacity: 0.2; stroke-width: 1.5; stroke-linecap: round"/>
   </g>
   <g id="line2d_53">
    <path d="M 256.585388 57.02499 
L 467.21234 178.960077 
" clip-path="url(#p45a669fafc)" style="fill: none; stroke: #000000; stroke-opacity: 0.2; stroke-width: 1.5; stroke-linecap: round"/>
   </g>
   <g id="line2d_54">
    <path d="M 270.68352 73.04813 
L 472.623086 199.621375 
" clip-path="url(#p45a669fafc)" style="fill: none; stroke: #000000; stroke-opacity: 0.2; stroke-width: 1.5; stroke-linecap: round"/>
   </g>
   <g id="line2d_55">
    <path d="M 366.301168 81.459913 
L 499.991033 205.104213 
" clip-path="url(#p45a669fafc)" style="fill: none; stroke: #000000; stroke-opacity: 0.2; stroke-width: 1.5; stroke-linecap: round"/>
   </g>
   <g id="line2d_56">
    <path d="M 367.48574 99.461079 
L 468.477706 194.281783 
" clip-path="url(#p45a669fafc)" style="fill: none; stroke: #000000; stroke-opacity: 0.2; stroke-width: 1.5; stroke-linecap: round"/>
   </g>
   <g id="line2d_57">
    <path d="M 341.33012 57.736081 
L 505.369132 183.42089 
" clip-path="url(#p45a669fafc)" style="fill: none; stroke: #000000; stroke-opacity: 0.2; stroke-width: 1.5; stroke-linecap: round"/>
   </g>
   <g id="line2d_58">
    <path d="M 484.050633 84.184879 
L 475.20057 191.110369 
" clip-path="url(#p45a669fafc)" style="fill: none; stroke: #000000; stroke-opacity: 0.2; stroke-width: 1.5; stroke-linecap: round"/>
   </g>
   <g id="line2d_59">
    <path d="M 310.001328 84.780695 
L 530.596022 176.890562 
" clip-path="url(#p45a669fafc)" style="fill: none; stroke: #000000; stroke-opacity: 0.2; stroke-width: 1.5; stroke-linecap: round"/>
   </g>
   <g id="line2d_60">
    <path d="M 395.508272 69.435938 
L 513.731773 187.202014 
" clip-path="url(#p45a669fafc)" style="fill: none; stroke: #000000; stroke-opacity: 0.2; stroke-width: 1.5; stroke-linecap: round"/>
   </g>
   <g id="line2d_61">
    <path d="M 342.767531 95.22725 
L 555.185769 193.139862 
" clip-path="url(#p45a669fafc)" style="fill: none; stroke: #000000; stroke-opacity: 0.2; stroke-width: 1.5; stroke-linecap: round"/>
   </g>
   <g id="LineCollection_1">
    <path d="M 429.293109 47.982727 
L 429.293109 98.411818 
" clip-path="url(#p45a669fafc)" style="fill: none; stroke: #1a1a1a; stroke-width: 3"/>
   </g>
   <g id="LineCollection_2">
    <path d="M 367.997255 73.197273 
L 490.588963 73.197273 
" clip-path="url(#p45a669fafc)" style="fill: none; stroke: #1a1a1a; stroke-width: 2"/>
   </g>
   <g id="line2d_62">
    <defs>
     <path id="m6251a58379" d="M 0 5 
L 0 -5 
" style="stroke: #1a1a1a"/>
    </defs>
    <g clip-path="url(#p45a669fafc)">
     <use xlink:href="#m6251a58379" x="367.997255" y="73.197273" style="fill: #1a1a1a; stroke: #1a1a1a"/>
    </g>
   </g>
   <g id="line2d_63">
    <g clip-path="url(#p45a669fafc)">
     <use xlink:href="#m6251a58379" x="490.588963" y="73.197273" style="fill: #1a1a1a; stroke: #1a1a1a"/>
    </g>
   </g>
   <g id="LineCollection_3">
    <path d="M 429.293109 161.448182 
L 429.293109 211.877273 
" clip-path="url(#p45a669fafc)" style="fill: none; stroke: #696969; stroke-width: 3"/>
   </g>
   <g id="LineCollection_4">
    <path d="M 476.377441 161.448182 
L 476.377441 211.877273 
" clip-path="url(#p45a669fafc)" style="fill: none; stroke: #1a1a1a; stroke-width: 3"/>
   </g>
   <g id="LineCollection_5">
    <path d="M 460.331346 186.662727 
L 492.423537 186.662727 
" clip-path="url(#p45a669fafc)" style="fill: none; stroke: #1a1a1a; stroke-width: 2"/>
   </g>
   <g id="line2d_64">
    <g clip-path="url(#p45a669fafc)">
     <use xlink:href="#m6251a58379" x="460.331346" y="186.662727" style="fill: #1a1a1a; stroke: #1a1a1a"/>
    </g>
   </g>
   <g id="line2d_65">
    <g clip-path="url(#p45a669fafc)">
     <use xlink:href="#m6251a58379" x="492.423537" y="186.662727" style="fill: #1a1a1a; stroke: #1a1a1a"/>
    </g>
   </g>
   <g id="line2d_66">
    <path d="M 429.293109 73.197273 
" clip-path="url(#p45a669fafc)" style="fill: none; stroke: #1a1a1a; stroke-width: 3; stroke-linecap: round"/>
   </g>
   <g id="line2d_67">
    <path d="M 429.293109 73.197273 
" clip-path="url(#p45a669fafc)" style="fill: none; stroke: #1a1a1a; stroke-width: 3; stroke-linecap: round"/>
   </g>
   <g id="line2d_68">
    <path d="M 429.293109 186.662727 
" clip-path="url(#p45a669fafc)" style="fill: none; stroke: #696969; stroke-width: 3; stroke-linecap: round"/>
   </g>
   <g id="line2d_69">
    <path d="M 476.377441 186.662727 
" clip-path="url(#p45a669fafc)" style="fill: none; stroke: #1a1a1a; stroke-width: 3; stroke-linecap: round"/>
   </g>
   <g id="line2d_70">
    <path d="M 476.377441 186.662727 
" clip-path="url(#p45a669fafc)" style="fill: none; stroke: #1a1a1a; stroke-width: 3; stroke-linecap: round"/>
   </g>
   <g id="patch_3">
    <path d="M 232.94 233.94 
L 232.94 25.92 
" style="fill: none; stroke: #cccccc; stroke-width: 2.5; stroke-linejoin: miter; stroke-linecap: square"/>
   </g>
   <g id="patch_4">
    <path d="M 694.08 233.94 
L 694.08 25.92 
" style="fill: none; stroke: #cccccc; stroke-width: 2.5; stroke-linejoin: miter; stroke-linecap: square"/>
   </g>
   <g id="patch_5">
    <path d="M 232.94 233.94 
L 694.08 233.94 
" style="fill: none; stroke: #cccccc; stroke-width: 2.5; stroke-linejoin: miter; stroke-linecap: square"/>
   </g>
   <g id="patch_6">
    <path d="M 232.94 25.92 
L 694.08 25.92 
" style="fill: none; stroke: #cccccc; stroke-width: 2.5; stroke-linejoin: miter; stroke-linecap: square"/>
   </g>
   <g id="text_8">
    <!-- 0.258 -->
    <g style="fill: #262626" transform="translate(394.939359 45.780136)scale(0.24 -0.24)">
     <defs>
      <path id="DejaVuSans-38" d="M 2034 2216 
Q 1584 2216 1326 1975 
Q 1069 1734 1069 1313 
Q 1069 891 1326 650 
Q 1584 409 2034 409 
Q 2484 409 2743 651 
Q 3003 894 3003 1313 
Q 3003 1734 2745 1975 
Q 2488 2216 2034 2216 
z
M 1403 2484 
Q 997 2584 770 2862 
Q 544 3141 544 3541 
Q 544 4100 942 4425 
Q 1341 4750 2034 4750 
Q 2731 4750 3128 4425 
Q 3525 4100 3525 3541 
Q 3525 3141 3298 2862 
Q 3072 2584 2669 2484 
Q 3125 2378 3379 2068 
Q 3634 1759 3634 1313 
Q 3634 634 3220 271 
Q 2806 -91 2034 -91 
Q 1263 -91 848 271 
Q 434 634 434 1313 
Q 434 1759 690 2068 
Q 947 2378 1403 2484 
z
M 1172 3481 
Q 1172 3119 1398 2916 
Q 1625 2713 2034 2713 
Q 2441 2713 2670 2916 
Q 2900 3119 2900 3481 
Q 2900 3844 2670 4047 
Q 2441 4250 2034 4250 
Q 1625 4250 1398 4047 
Q 1172 3844 1172 3481 
z
" transform="scale(0.015625)"/>
     </defs>
     <use xlink:href="#DejaVuSans-30"/>
     <use xlink:href="#DejaVuSans-2e" x="63.623047"/>
     <use xlink:href="#DejaVuSans-32" x="95.410156"/>
     <use xlink:href="#DejaVuSans-35" x="159.033203"/>
     <use xlink:href="#DejaVuSans-38" x="222.65625"/>
    </g>
   </g>
   <g id="text_9">
    <!-- +0.016  0.011 -->
    <g style="fill: #262626" transform="translate(379.931191 159.245591)scale(0.24 -0.24)">
     <defs>
      <path id="DejaVuSans-2b" d="M 2944 4013 
L 2944 2272 
L 4684 2272 
L 4684 1741 
L 2944 1741 
L 2944 0 
L 2419 0 
L 2419 1741 
L 678 1741 
L 678 2272 
L 2419 2272 
L 2419 4013 
L 2944 4013 
z
" transform="scale(0.015625)"/>
      <path id="DejaVuSans-31" d="M 794 531 
L 1825 531 
L 1825 4091 
L 703 3866 
L 703 4441 
L 1819 4666 
L 2450 4666 
L 2450 531 
L 3481 531 
L 3481 0 
L 794 0 
L 794 531 
z
" transform="scale(0.015625)"/>
      <path id="DejaVuSans-36" d="M 2113 2584 
Q 1688 2584 1439 2293 
Q 1191 2003 1191 1497 
Q 1191 994 1439 701 
Q 1688 409 2113 409 
Q 2538 409 2786 701 
Q 3034 994 3034 1497 
Q 3034 2003 2786 2293 
Q 2538 2584 2113 2584 
z
M 3366 4563 
L 3366 3988 
Q 3128 4100 2886 4159 
Q 2644 4219 2406 4219 
Q 1781 4219 1451 3797 
Q 1122 3375 1075 2522 
Q 1259 2794 1537 2939 
Q 1816 3084 2150 3084 
Q 2853 3084 3261 2657 
Q 3669 2231 3669 1497 
Q 3669 778 3244 343 
Q 2819 -91 2113 -91 
Q 1303 -91 875 529 
Q 447 1150 447 2328 
Q 447 3434 972 4092 
Q 1497 4750 2381 4750 
Q 2619 4750 2861 4703 
Q 3103 4656 3366 4563 
z
" transform="scale(0.015625)"/>
      <path id="DejaVuSans-b1" d="M 2944 4013 
L 2944 2803 
L 4684 2803 
L 4684 2272 
L 2944 2272 
L 2944 1063 
L 2419 1063 
L 2419 2272 
L 678 2272 
L 678 2803 
L 2419 2803 
L 2419 4013 
L 2944 4013 
z
M 678 531 
L 4684 531 
L 4684 0 
L 678 0 
L 678 531 
z
" transform="scale(0.015625)"/>
     </defs>
     <use xlink:href="#DejaVuSans-2b"/>
     <use xlink:href="#DejaVuSans-30" x="83.789062"/>
     <use xlink:href="#DejaVuSans-2e" x="147.412109"/>
     <use xlink:href="#DejaVuSans-30" x="179.199219"/>
     <use xlink:href="#DejaVuSans-31" x="242.822266"/>
     <use xlink:href="#DejaVuSans-36" x="306.445312"/>
     <use xlink:href="#DejaVuSans-20" x="370.068359"/>
     <use xlink:href="#DejaVuSans-b1" x="401.855469"/>
     <use xlink:href="#DejaVuSans-20" x="485.644531"/>
     <use xlink:href="#DejaVuSans-30" x="517.431641"/>
     <use xlink:href="#DejaVuSans-2e" x="581.054688"/>
     <use xlink:href="#DejaVuSans-30" x="612.841797"/>
     <use xlink:href="#DejaVuSans-31" x="676.464844"/>
     <use xlink:href="#DejaVuSans-31" x="740.087891"/>
    </g>
   </g>
  </g>
 </g>
 <defs>
  <clipPath id="p45a669fafc">
   <rect x="232.94" y="25.92" width="461.14" height="208.02"/>
  </clipPath>
 </defs>
</svg>
