<?xml version="1.0" encoding="utf-8" standalone="no"?>
<!DOCTYPE svg PUBLIC "-//W3C//DTD SVG 1.1//EN"
  "http://www.w3.org/Graphics/SVG/1.1/DTD/svg11.dtd">
<svg xmlns:xlink="http://www.w3.org/1999/xlink" width="720pt" height="324pt" viewBox="0 0 720 324" xmlns="http://www.w3.org/2000/svg" version="1.1">
 <metadata>
  <rdf:RDF xmlns:dc="http://purl.org/dc/elements/1.1/" xmlns:cc="http://creativecommons.org/ns#" xmlns:rdf="http://www.w3.org/1999/02/22-rdf-syntax-ns#">
   <cc:Work>
    <dc:type rdf:resource="http://purl.org/dc/dcmitype/StillImage"/>
    <dc:date>2022-05-25T17:01:53.316117</dc:date>
    <dc:format>image/svg+xml</dc:format>
    <dc:creator>
     <cc:Agent>
      <dc:title>Matplotlib v3.5.1, https://matplotlib.org/</dc:title>
     </cc:Agent>
    </dc:creator>
   </cc:Work>
  </rdf:RDF>
 </metadata>
 <defs>
  <style type="text/css">*{stroke-linejoin: round; stroke-linecap: butt}</style>
 </defs>
 <g id="figure_1">
  <g id="patch_1">
   <path d="M 0 324 
L 720 324 
L 720 0 
L 0 0 
L 0 324 
z
" style="fill: none"/>
  </g>
  <g id="axes_1">
   <g id="patch_2">
    <path d="M 246.98 233.94 
L 694.08 233.94 
L 694.08 25.92 
L 246.98 25.92 
L 246.98 233.94 
z
" style="fill: none"/>
   </g>
   <g id="matplotlib.axis_1">
    <g id="xtick_1">
     <g id="line2d_1">
      <path d="M 274.92375 233.94 
L 274.92375 25.92 
" clip-path="url(#p49680ff6a8)" style="fill: none; stroke: #cccccc; stroke-width: 2; stroke-linecap: round"/>
     </g>
     <g id="text_1">
      <!-- 0.20 -->
      <g style="fill: #262626" transform="translate(250.431563 266.156563)scale(0.22 -0.22)">
       <defs>
        <path id="DejaVuSans-30" d="M 2034 4250 
Q 1547 4250 1301 3770 
Q 1056 3291 1056 2328 
Q 1056 1369 1301 889 
Q 1547 409 2034 409 
Q 2525 409 2770 889 
Q 3016 1369 3016 2328 
Q 3016 3291 2770 3770 
Q 2525 4250 2034 4250 
z
M 2034 4750 
Q 2819 4750 3233 4129 
Q 3647 3509 3647 2328 
Q 3647 1150 3233 529 
Q 2819 -91 2034 -91 
Q 1250 -91 836 529 
Q 422 1150 422 2328 
Q 422 3509 836 4129 
Q 1250 4750 2034 4750 
z
" transform="scale(0.015625)"/>
        <path id="DejaVuSans-2e" d="M 684 794 
L 1344 794 
L 1344 0 
L 684 0 
L 684 794 
z
" transform="scale(0.015625)"/>
        <path id="DejaVuSans-32" d="M 1228 531 
L 3431 531 
L 3431 0 
L 469 0 
L 469 531 
Q 828 903 1448 1529 
Q 2069 2156 2228 2338 
Q 2531 2678 2651 2914 
Q 2772 3150 2772 3378 
Q 2772 3750 2511 3984 
Q 2250 4219 1831 4219 
Q 1534 4219 1204 4116 
Q 875 4013 500 3803 
L 500 4441 
Q 881 4594 1212 4672 
Q 1544 4750 1819 4750 
Q 2544 4750 2975 4387 
Q 3406 4025 3406 3419 
Q 3406 3131 3298 2873 
Q 3191 2616 2906 2266 
Q 2828 2175 2409 1742 
Q 1991 1309 1228 531 
z
" transform="scale(0.015625)"/>
       </defs>
       <use xlink:href="#DejaVuSans-30"/>
       <use xlink:href="#DejaVuSans-2e" x="63.623047"/>
       <use xlink:href="#DejaVuSans-32" x="95.410156"/>
       <use xlink:href="#DejaVuSans-30" x="159.033203"/>
      </g>
     </g>
    </g>
    <g id="xtick_2">
     <g id="line2d_2">
      <path d="M 414.6425 233.94 
L 414.6425 25.92 
" clip-path="url(#p49680ff6a8)" style="fill: none; stroke: #cccccc; stroke-width: 2; stroke-linecap: round"/>
     </g>
     <g id="text_2">
      <!-- 0.25 -->
      <g style="fill: #262626" transform="translate(390.150313 266.156563)scale(0.22 -0.22)">
       <defs>
        <path id="DejaVuSans-35" d="M 691 4666 
L 3169 4666 
L 3169 4134 
L 1269 4134 
L 1269 2991 
Q 1406 3038 1543 3061 
Q 1681 3084 1819 3084 
Q 2600 3084 3056 2656 
Q 3513 2228 3513 1497 
Q 3513 744 3044 326 
Q 2575 -91 1722 -91 
Q 1428 -91 1123 -41 
Q 819 9 494 109 
L 494 744 
Q 775 591 1075 516 
Q 1375 441 1709 441 
Q 2250 441 2565 725 
Q 2881 1009 2881 1497 
Q 2881 1984 2565 2268 
Q 2250 2553 1709 2553 
Q 1456 2553 1204 2497 
Q 953 2441 691 2322 
L 691 4666 
z
" transform="scale(0.015625)"/>
       </defs>
       <use xlink:href="#DejaVuSans-30"/>
       <use xlink:href="#DejaVuSans-2e" x="63.623047"/>
       <use xlink:href="#DejaVuSans-32" x="95.410156"/>
       <use xlink:href="#DejaVuSans-35" x="159.033203"/>
      </g>
     </g>
    </g>
    <g id="xtick_3">
     <g id="line2d_3">
      <path d="M 554.36125 233.94 
L 554.36125 25.92 
" clip-path="url(#p49680ff6a8)" style="fill: none; stroke: #cccccc; stroke-width: 2; stroke-linecap: round"/>
     </g>
     <g id="text_3">
      <!-- 0.30 -->
      <g style="fill: #262626" transform="translate(529.869063 266.156563)scale(0.22 -0.22)">
       <defs>
        <path id="DejaVuSans-33" d="M 2597 2516 
Q 3050 2419 3304 2112 
Q 3559 1806 3559 1356 
Q 3559 666 3084 287 
Q 2609 -91 1734 -91 
Q 1441 -91 1130 -33 
Q 819 25 488 141 
L 488 750 
Q 750 597 1062 519 
Q 1375 441 1716 441 
Q 2309 441 2620 675 
Q 2931 909 2931 1356 
Q 2931 1769 2642 2001 
Q 2353 2234 1838 2234 
L 1294 2234 
L 1294 2753 
L 1863 2753 
Q 2328 2753 2575 2939 
Q 2822 3125 2822 3475 
Q 2822 3834 2567 4026 
Q 2313 4219 1838 4219 
Q 1578 4219 1281 4162 
Q 984 4106 628 3988 
L 628 4550 
Q 988 4650 1302 4700 
Q 1616 4750 1894 4750 
Q 2613 4750 3031 4423 
Q 3450 4097 3450 3541 
Q 3450 3153 3228 2886 
Q 3006 2619 2597 2516 
z
" transform="scale(0.015625)"/>
       </defs>
       <use xlink:href="#DejaVuSans-30"/>
       <use xlink:href="#DejaVuSans-2e" x="63.623047"/>
       <use xlink:href="#DejaVuSans-33" x="95.410156"/>
       <use xlink:href="#DejaVuSans-30" x="159.033203"/>
      </g>
     </g>
    </g>
    <g id="xtick_4">
     <g id="line2d_4">
      <path d="M 694.08 233.94 
L 694.08 25.92 
" clip-path="url(#p49680ff6a8)" style="fill: none; stroke: #cccccc; stroke-width: 2; stroke-linecap: round"/>
     </g>
     <g id="text_4">
      <!-- 0.35 -->
      <g style="fill: #262626" transform="translate(669.587813 266.156563)scale(0.22 -0.22)">
       <use xlink:href="#DejaVuSans-30"/>
       <use xlink:href="#DejaVuSans-2e" x="63.623047"/>
       <use xlink:href="#DejaVuSans-33" x="95.410156"/>
       <use xlink:href="#DejaVuSans-35" x="159.033203"/>
      </g>
     </g>
    </g>
    <g id="text_5">
     <!-- Pearson correlation -->
     <g style="fill: #262626" transform="translate(354.6625 292.968125)scale(0.24 -0.24)">
      <defs>
       <path id="DejaVuSans-50" d="M 1259 4147 
L 1259 2394 
L 2053 2394 
Q 2494 2394 2734 2622 
Q 2975 2850 2975 3272 
Q 2975 3691 2734 3919 
Q 2494 4147 2053 4147 
L 1259 4147 
z
M 628 4666 
L 2053 4666 
Q 2838 4666 3239 4311 
Q 3641 3956 3641 3272 
Q 3641 2581 3239 2228 
Q 2838 1875 2053 1875 
L 1259 1875 
L 1259 0 
L 628 0 
L 628 4666 
z
" transform="scale(0.015625)"/>
       <path id="DejaVuSans-65" d="M 3597 1894 
L 3597 1613 
L 953 1613 
Q 991 1019 1311 708 
Q 1631 397 2203 397 
Q 2534 397 2845 478 
Q 3156 559 3463 722 
L 3463 178 
Q 3153 47 2828 -22 
Q 2503 -91 2169 -91 
Q 1331 -91 842 396 
Q 353 884 353 1716 
Q 353 2575 817 3079 
Q 1281 3584 2069 3584 
Q 2775 3584 3186 3129 
Q 3597 2675 3597 1894 
z
M 3022 2063 
Q 3016 2534 2758 2815 
Q 2500 3097 2075 3097 
Q 1594 3097 1305 2825 
Q 1016 2553 972 2059 
L 3022 2063 
z
" transform="scale(0.015625)"/>
       <path id="DejaVuSans-61" d="M 2194 1759 
Q 1497 1759 1228 1600 
Q 959 1441 959 1056 
Q 959 750 1161 570 
Q 1363 391 1709 391 
Q 2188 391 2477 730 
Q 2766 1069 2766 1631 
L 2766 1759 
L 2194 1759 
z
M 3341 1997 
L 3341 0 
L 2766 0 
L 2766 531 
Q 2569 213 2275 61 
Q 1981 -91 1556 -91 
Q 1019 -91 701 211 
Q 384 513 384 1019 
Q 384 1609 779 1909 
Q 1175 2209 1959 2209 
L 2766 2209 
L 2766 2266 
Q 2766 2663 2505 2880 
Q 2244 3097 1772 3097 
Q 1472 3097 1187 3025 
Q 903 2953 641 2809 
L 641 3341 
Q 956 3463 1253 3523 
Q 1550 3584 1831 3584 
Q 2591 3584 2966 3190 
Q 3341 2797 3341 1997 
z
" transform="scale(0.015625)"/>
       <path id="DejaVuSans-72" d="M 2631 2963 
Q 2534 3019 2420 3045 
Q 2306 3072 2169 3072 
Q 1681 3072 1420 2755 
Q 1159 2438 1159 1844 
L 1159 0 
L 581 0 
L 581 3500 
L 1159 3500 
L 1159 2956 
Q 1341 3275 1631 3429 
Q 1922 3584 2338 3584 
Q 2397 3584 2469 3576 
Q 2541 3569 2628 3553 
L 2631 2963 
z
" transform="scale(0.015625)"/>
       <path id="DejaVuSans-73" d="M 2834 3397 
L 2834 2853 
Q 2591 2978 2328 3040 
Q 2066 3103 1784 3103 
Q 1356 3103 1142 2972 
Q 928 2841 928 2578 
Q 928 2378 1081 2264 
Q 1234 2150 1697 2047 
L 1894 2003 
Q 2506 1872 2764 1633 
Q 3022 1394 3022 966 
Q 3022 478 2636 193 
Q 2250 -91 1575 -91 
Q 1294 -91 989 -36 
Q 684 19 347 128 
L 347 722 
Q 666 556 975 473 
Q 1284 391 1588 391 
Q 1994 391 2212 530 
Q 2431 669 2431 922 
Q 2431 1156 2273 1281 
Q 2116 1406 1581 1522 
L 1381 1569 
Q 847 1681 609 1914 
Q 372 2147 372 2553 
Q 372 3047 722 3315 
Q 1072 3584 1716 3584 
Q 2034 3584 2315 3537 
Q 2597 3491 2834 3397 
z
" transform="scale(0.015625)"/>
       <path id="DejaVuSans-6f" d="M 1959 3097 
Q 1497 3097 1228 2736 
Q 959 2375 959 1747 
Q 959 1119 1226 758 
Q 1494 397 1959 397 
Q 2419 397 2687 759 
Q 2956 1122 2956 1747 
Q 2956 2369 2687 2733 
Q 2419 3097 1959 3097 
z
M 1959 3584 
Q 2709 3584 3137 3096 
Q 3566 2609 3566 1747 
Q 3566 888 3137 398 
Q 2709 -91 1959 -91 
Q 1206 -91 779 398 
Q 353 888 353 1747 
Q 353 2609 779 3096 
Q 1206 3584 1959 3584 
z
" transform="scale(0.015625)"/>
       <path id="DejaVuSans-6e" d="M 3513 2113 
L 3513 0 
L 2938 0 
L 2938 2094 
Q 2938 2591 2744 2837 
Q 2550 3084 2163 3084 
Q 1697 3084 1428 2787 
Q 1159 2491 1159 1978 
L 1159 0 
L 581 0 
L 581 3500 
L 1159 3500 
L 1159 2956 
Q 1366 3272 1645 3428 
Q 1925 3584 2291 3584 
Q 2894 3584 3203 3211 
Q 3513 2838 3513 2113 
z
" transform="scale(0.015625)"/>
       <path id="DejaVuSans-20" transform="scale(0.015625)"/>
       <path id="DejaVuSans-63" d="M 3122 3366 
L 3122 2828 
Q 2878 2963 2633 3030 
Q 2388 3097 2138 3097 
Q 1578 3097 1268 2742 
Q 959 2388 959 1747 
Q 959 1106 1268 751 
Q 1578 397 2138 397 
Q 2388 397 2633 464 
Q 2878 531 3122 666 
L 3122 134 
Q 2881 22 2623 -34 
Q 2366 -91 2075 -91 
Q 1284 -91 818 406 
Q 353 903 353 1747 
Q 353 2603 823 3093 
Q 1294 3584 2113 3584 
Q 2378 3584 2631 3529 
Q 2884 3475 3122 3366 
z
" transform="scale(0.015625)"/>
       <path id="DejaVuSans-6c" d="M 603 4863 
L 1178 4863 
L 1178 0 
L 603 0 
L 603 4863 
z
" transform="scale(0.015625)"/>
       <path id="DejaVuSans-74" d="M 1172 4494 
L 1172 3500 
L 2356 3500 
L 2356 3053 
L 1172 3053 
L 1172 1153 
Q 1172 725 1289 603 
Q 1406 481 1766 481 
L 2356 481 
L 2356 0 
L 1766 0 
Q 1100 0 847 248 
Q 594 497 594 1153 
L 594 3053 
L 172 3053 
L 172 3500 
L 594 3500 
L 594 4494 
L 1172 4494 
z
" transform="scale(0.015625)"/>
       <path id="DejaVuSans-69" d="M 603 3500 
L 1178 3500 
L 1178 0 
L 603 0 
L 603 3500 
z
M 603 4863 
L 1178 4863 
L 1178 4134 
L 603 4134 
L 603 4863 
z
" transform="scale(0.015625)"/>
      </defs>
      <use xlink:href="#DejaVuSans-50"/>
      <use xlink:href="#DejaVuSans-65" x="56.677734"/>
      <use xlink:href="#DejaVuSans-61" x="118.201172"/>
      <use xlink:href="#DejaVuSans-72" x="179.480469"/>
      <use xlink:href="#DejaVuSans-73" x="220.59375"/>
      <use xlink:href="#DejaVuSans-6f" x="272.693359"/>
      <use xlink:href="#DejaVuSans-6e" x="333.875"/>
      <use xlink:href="#DejaVuSans-20" x="397.253906"/>
      <use xlink:href="#DejaVuSans-63" x="429.041016"/>
      <use xlink:href="#DejaVuSans-6f" x="484.021484"/>
      <use xlink:href="#DejaVuSans-72" x="545.203125"/>
      <use xlink:href="#DejaVuSans-72" x="584.566406"/>
      <use xlink:href="#DejaVuSans-65" x="623.429688"/>
      <use xlink:href="#DejaVuSans-6c" x="684.953125"/>
      <use xlink:href="#DejaVuSans-61" x="712.736328"/>
      <use xlink:href="#DejaVuSans-74" x="774.015625"/>
      <use xlink:href="#DejaVuSans-69" x="813.224609"/>
      <use xlink:href="#DejaVuSans-6f" x="841.007812"/>
      <use xlink:href="#DejaVuSans-6e" x="902.189453"/>
     </g>
    </g>
   </g>
   <g id="matplotlib.axis_2">
    <g id="ytick_1">
     <g id="line2d_5">
      <path d="M 246.98 73.197273 
L 694.08 73.197273 
" clip-path="url(#p49680ff6a8)" style="fill: none; stroke: #cccccc; stroke-width: 2; stroke-linecap: round"/>
     </g>
     <g id="text_6">
      <!-- baseline -->
      <g style="fill: #262626" transform="translate(139.330938 81.555554)scale(0.22 -0.22)">
       <defs>
        <path id="DejaVuSans-62" d="M 3116 1747 
Q 3116 2381 2855 2742 
Q 2594 3103 2138 3103 
Q 1681 3103 1420 2742 
Q 1159 2381 1159 1747 
Q 1159 1113 1420 752 
Q 1681 391 2138 391 
Q 2594 391 2855 752 
Q 3116 1113 3116 1747 
z
M 1159 2969 
Q 1341 3281 1617 3432 
Q 1894 3584 2278 3584 
Q 2916 3584 3314 3078 
Q 3713 2572 3713 1747 
Q 3713 922 3314 415 
Q 2916 -91 2278 -91 
Q 1894 -91 1617 61 
Q 1341 213 1159 525 
L 1159 0 
L 581 0 
L 581 4863 
L 1159 4863 
L 1159 2969 
z
" transform="scale(0.015625)"/>
       </defs>
       <use xlink:href="#DejaVuSans-62"/>
       <use xlink:href="#DejaVuSans-61" x="63.476562"/>
       <use xlink:href="#DejaVuSans-73" x="124.755859"/>
       <use xlink:href="#DejaVuSans-65" x="176.855469"/>
       <use xlink:href="#DejaVuSans-6c" x="238.378906"/>
       <use xlink:href="#DejaVuSans-69" x="266.162109"/>
       <use xlink:href="#DejaVuSans-6e" x="293.945312"/>
       <use xlink:href="#DejaVuSans-65" x="357.324219"/>
      </g>
     </g>
    </g>
    <g id="ytick_2">
     <g id="line2d_6">
      <path d="M 246.98 186.662727 
L 694.08 186.662727 
" clip-path="url(#p49680ff6a8)" style="fill: none; stroke: #cccccc; stroke-width: 2; stroke-linecap: round"/>
     </g>
     <g id="text_7">
      <!-- baseline_sigma-20 -->
      <g style="fill: #262626" transform="translate(25.948437 195.021009)scale(0.22 -0.22)">
       <defs>
        <path id="DejaVuSans-5f" d="M 3263 -1063 
L 3263 -1509 
L -63 -1509 
L -63 -1063 
L 3263 -1063 
z
" transform="scale(0.015625)"/>
        <path id="DejaVuSans-67" d="M 2906 1791 
Q 2906 2416 2648 2759 
Q 2391 3103 1925 3103 
Q 1463 3103 1205 2759 
Q 947 2416 947 1791 
Q 947 1169 1205 825 
Q 1463 481 1925 481 
Q 2391 481 2648 825 
Q 2906 1169 2906 1791 
z
M 3481 434 
Q 3481 -459 3084 -895 
Q 2688 -1331 1869 -1331 
Q 1566 -1331 1297 -1286 
Q 1028 -1241 775 -1147 
L 775 -588 
Q 1028 -725 1275 -790 
Q 1522 -856 1778 -856 
Q 2344 -856 2625 -561 
Q 2906 -266 2906 331 
L 2906 616 
Q 2728 306 2450 153 
Q 2172 0 1784 0 
Q 1141 0 747 490 
Q 353 981 353 1791 
Q 353 2603 747 3093 
Q 1141 3584 1784 3584 
Q 2172 3584 2450 3431 
Q 2728 3278 2906 2969 
L 2906 3500 
L 3481 3500 
L 3481 434 
z
" transform="scale(0.015625)"/>
        <path id="DejaVuSans-6d" d="M 3328 2828 
Q 3544 3216 3844 3400 
Q 4144 3584 4550 3584 
Q 5097 3584 5394 3201 
Q 5691 2819 5691 2113 
L 5691 0 
L 5113 0 
L 5113 2094 
Q 5113 2597 4934 2840 
Q 4756 3084 4391 3084 
Q 3944 3084 3684 2787 
Q 3425 2491 3425 1978 
L 3425 0 
L 2847 0 
L 2847 2094 
Q 2847 2600 2669 2842 
Q 2491 3084 2119 3084 
Q 1678 3084 1418 2786 
Q 1159 2488 1159 1978 
L 1159 0 
L 581 0 
L 581 3500 
L 1159 3500 
L 1159 2956 
Q 1356 3278 1631 3431 
Q 1906 3584 2284 3584 
Q 2666 3584 2933 3390 
Q 3200 3197 3328 2828 
z
" transform="scale(0.015625)"/>
        <path id="DejaVuSans-2d" d="M 313 2009 
L 1997 2009 
L 1997 1497 
L 313 1497 
L 313 2009 
z
" transform="scale(0.015625)"/>
       </defs>
       <use xlink:href="#DejaVuSans-62"/>
       <use xlink:href="#DejaVuSans-61" x="63.476562"/>
       <use xlink:href="#DejaVuSans-73" x="124.755859"/>
       <use xlink:href="#DejaVuSans-65" x="176.855469"/>
       <use xlink:href="#DejaVuSans-6c" x="238.378906"/>
       <use xlink:href="#DejaVuSans-69" x="266.162109"/>
       <use xlink:href="#DejaVuSans-6e" x="293.945312"/>
       <use xlink:href="#DejaVuSans-65" x="357.324219"/>
       <use xlink:href="#DejaVuSans-5f" x="418.847656"/>
       <use xlink:href="#DejaVuSans-73" x="468.847656"/>
       <use xlink:href="#DejaVuSans-69" x="520.947266"/>
       <use xlink:href="#DejaVuSans-67" x="548.730469"/>
       <use xlink:href="#DejaVuSans-6d" x="612.207031"/>
       <use xlink:href="#DejaVuSans-61" x="709.619141"/>
       <use xlink:href="#DejaVuSans-2d" x="770.898438"/>
       <use xlink:href="#DejaVuSans-32" x="806.982422"/>
       <use xlink:href="#DejaVuSans-30" x="870.605469"/>
      </g>
     </g>
    </g>
   </g>
   <g id="PathCollection_1">
    <defs>
     <path id="C0_0_6c839dabc4" d="M 0 5 
C 1.326016 5 2.597899 4.473168 3.535534 3.535534 
C 4.473168 2.597899 5 1.326016 5 -0 
C 5 -1.326016 4.473168 -2.597899 3.535534 -3.535534 
C 2.597899 -4.473168 1.326016 -5 0 -5 
C -1.326016 -5 -2.597899 -4.473168 -3.535534 -3.535534 
C -4.473168 -2.597899 -5 -1.326016 -5 0 
C -5 1.326016 -4.473168 2.597899 -3.535534 3.535534 
C -2.597899 4.473168 -1.326016 5 0 5 
z
"/>
    </defs>
    <g clip-path="url(#p49680ff6a8)">
     <use xlink:href="#C0_0_6c839dabc4" x="513.435319" y="69.261094" style="fill: #4c72b0; fill-opacity: 0.7"/>
    </g>
    <g clip-path="url(#p49680ff6a8)">
     <use xlink:href="#C0_0_6c839dabc4" x="566.531439" y="56.730923" style="fill: #4c72b0; fill-opacity: 0.7"/>
    </g>
    <g clip-path="url(#p49680ff6a8)">
     <use xlink:href="#C0_0_6c839dabc4" x="513.326017" y="61.845408" style="fill: #4c72b0; fill-opacity: 0.7"/>
    </g>
    <g clip-path="url(#p49680ff6a8)">
     <use xlink:href="#C0_0_6c839dabc4" x="486.503272" y="78.090039" style="fill: #4c72b0; fill-opacity: 0.7"/>
    </g>
    <g clip-path="url(#p49680ff6a8)">
     <use xlink:href="#C0_0_6c839dabc4" x="621.435231" y="68.930919" style="fill: #4c72b0; fill-opacity: 0.7"/>
    </g>
    <g clip-path="url(#p49680ff6a8)">
     <use xlink:href="#C0_0_6c839dabc4" x="332.292837" y="68.345936" style="fill: #4c72b0; fill-opacity: 0.7"/>
    </g>
    <g clip-path="url(#p49680ff6a8)">
     <use xlink:href="#C0_0_6c839dabc4" x="628.690039" y="77.799854" style="fill: #4c72b0; fill-opacity: 0.7"/>
    </g>
    <g clip-path="url(#p49680ff6a8)">
     <use xlink:href="#C0_0_6c839dabc4" x="278.066647" y="81.892173" style="fill: #4c72b0; fill-opacity: 0.7"/>
    </g>
    <g clip-path="url(#p49680ff6a8)">
     <use xlink:href="#C0_0_6c839dabc4" x="321.557913" y="65.281586" style="fill: #4c72b0; fill-opacity: 0.7"/>
    </g>
    <g clip-path="url(#p49680ff6a8)">
     <use xlink:href="#C0_0_6c839dabc4" x="412.799004" y="68.034104" style="fill: #4c72b0; fill-opacity: 0.7"/>
    </g>
    <g clip-path="url(#p49680ff6a8)">
     <use xlink:href="#C0_0_6c839dabc4" x="395.111957" y="91.88486" style="fill: #4c72b0; fill-opacity: 0.7"/>
    </g>
    <g clip-path="url(#p49680ff6a8)">
     <use xlink:href="#C0_0_6c839dabc4" x="527.27935" y="62.8182" style="fill: #4c72b0; fill-opacity: 0.7"/>
    </g>
    <g clip-path="url(#p49680ff6a8)">
     <use xlink:href="#C0_0_6c839dabc4" x="437.482912" y="73.351187" style="fill: #4c72b0; fill-opacity: 0.7"/>
    </g>
    <g clip-path="url(#p49680ff6a8)">
     <use xlink:href="#C0_0_6c839dabc4" x="474.260919" y="91.379614" style="fill: #4c72b0; fill-opacity: 0.7"/>
    </g>
    <g clip-path="url(#p49680ff6a8)">
     <use xlink:href="#C0_0_6c839dabc4" x="303.847249" y="80.195465" style="fill: #4c72b0; fill-opacity: 0.7"/>
    </g>
    <g clip-path="url(#p49680ff6a8)">
     <use xlink:href="#C0_0_6c839dabc4" x="567.930619" y="72.449984" style="fill: #4c72b0; fill-opacity: 0.7"/>
    </g>
    <g clip-path="url(#p49680ff6a8)">
     <use xlink:href="#C0_0_6c839dabc4" x="418.462621" y="65.960728" style="fill: #4c72b0; fill-opacity: 0.7"/>
    </g>
    <g clip-path="url(#p49680ff6a8)">
     <use xlink:href="#C0_0_6c839dabc4" x="351.701152" y="49.884834" style="fill: #4c72b0; fill-opacity: 0.7"/>
    </g>
    <g clip-path="url(#p49680ff6a8)">
     <use xlink:href="#C0_0_6c839dabc4" x="481.482421" y="68.265935" style="fill: #4c72b0; fill-opacity: 0.7"/>
    </g>
    <g clip-path="url(#p49680ff6a8)">
     <use xlink:href="#C0_0_6c839dabc4" x="645.793137" y="83.12387" style="fill: #4c72b0; fill-opacity: 0.7"/>
    </g>
    <g clip-path="url(#p49680ff6a8)">
     <use xlink:href="#C0_0_6c839dabc4" x="497.198812" y="93.269211" style="fill: #4c72b0; fill-opacity: 0.7"/>
    </g>
    <g clip-path="url(#p49680ff6a8)">
     <use xlink:href="#C0_0_6c839dabc4" x="582.37188" y="73.463252" style="fill: #4c72b0; fill-opacity: 0.7"/>
    </g>
    <g clip-path="url(#p49680ff6a8)">
     <use xlink:href="#C0_0_6c839dabc4" x="410.363646" y="87.965214" style="fill: #4c72b0; fill-opacity: 0.7"/>
    </g>
    <g clip-path="url(#p49680ff6a8)">
     <use xlink:href="#C0_0_6c839dabc4" x="605.330987" y="60.60389" style="fill: #4c72b0; fill-opacity: 0.7"/>
    </g>
    <g clip-path="url(#p49680ff6a8)">
     <use xlink:href="#C0_0_6c839dabc4" x="307.11166" y="96.741706" style="fill: #4c72b0; fill-opacity: 0.7"/>
    </g>
    <g clip-path="url(#p49680ff6a8)">
     <use xlink:href="#C0_0_6c839dabc4" x="291.164051" y="59.285337" style="fill: #4c72b0; fill-opacity: 0.7"/>
    </g>
    <g clip-path="url(#p49680ff6a8)">
     <use xlink:href="#C0_0_6c839dabc4" x="508.206591" y="81.405833" style="fill: #4c72b0; fill-opacity: 0.7"/>
    </g>
    <g clip-path="url(#p49680ff6a8)">
     <use xlink:href="#C0_0_6c839dabc4" x="592.508587" y="87.914109" style="fill: #4c72b0; fill-opacity: 0.7"/>
    </g>
    <g clip-path="url(#p49680ff6a8)">
     <use xlink:href="#C0_0_6c839dabc4" x="645.753917" y="81.454534" style="fill: #4c72b0; fill-opacity: 0.7"/>
    </g>
    <g clip-path="url(#p49680ff6a8)">
     <use xlink:href="#C0_0_6c839dabc4" x="352.410766" y="76.007264" style="fill: #4c72b0; fill-opacity: 0.7"/>
    </g>
    <g clip-path="url(#p49680ff6a8)">
     <use xlink:href="#C0_0_6c839dabc4" x="675.955369" y="78.359245" style="fill: #4c72b0; fill-opacity: 0.7"/>
    </g>
    <g clip-path="url(#p49680ff6a8)">
     <use xlink:href="#C0_0_6c839dabc4" x="415.448768" y="95.543567" style="fill: #4c72b0; fill-opacity: 0.7"/>
    </g>
    <g clip-path="url(#p49680ff6a8)">
     <use xlink:href="#C0_0_6c839dabc4" x="342.437036" y="72.931317" style="fill: #4c72b0; fill-opacity: 0.7"/>
    </g>
    <g clip-path="url(#p49680ff6a8)">
     <use xlink:href="#C0_0_6c839dabc4" x="489.128302" y="86.246974" style="fill: #4c72b0; fill-opacity: 0.7"/>
    </g>
    <g clip-path="url(#p49680ff6a8)">
     <use xlink:href="#C0_0_6c839dabc4" x="517.278018" y="74.110785" style="fill: #4c72b0; fill-opacity: 0.7"/>
    </g>
    <g clip-path="url(#p49680ff6a8)">
     <use xlink:href="#C0_0_6c839dabc4" x="277.704456" y="78.086751" style="fill: #4c72b0; fill-opacity: 0.7"/>
    </g>
    <g clip-path="url(#p49680ff6a8)">
     <use xlink:href="#C0_0_6c839dabc4" x="566.006829" y="78.892982" style="fill: #4c72b0; fill-opacity: 0.7"/>
    </g>
    <g clip-path="url(#p49680ff6a8)">
     <use xlink:href="#C0_0_6c839dabc4" x="274.776574" y="80.816698" style="fill: #4c72b0; fill-opacity: 0.7"/>
    </g>
    <g clip-path="url(#p49680ff6a8)">
     <use xlink:href="#C0_0_6c839dabc4" x="336.164992" y="55.192244" style="fill: #4c72b0; fill-opacity: 0.7"/>
    </g>
    <g clip-path="url(#p49680ff6a8)">
     <use xlink:href="#C0_0_6c839dabc4" x="377.678964" y="59.289509" style="fill: #4c72b0; fill-opacity: 0.7"/>
    </g>
    <g clip-path="url(#p49680ff6a8)">
     <use xlink:href="#C0_0_6c839dabc4" x="293.179255" y="61.306899" style="fill: #4c72b0; fill-opacity: 0.7"/>
    </g>
    <g clip-path="url(#p49680ff6a8)">
     <use xlink:href="#C0_0_6c839dabc4" x="591.670891" y="63.971767" style="fill: #4c72b0; fill-opacity: 0.7"/>
    </g>
    <g clip-path="url(#p49680ff6a8)">
     <use xlink:href="#C0_0_6c839dabc4" x="371.151923" y="96.467505" style="fill: #4c72b0; fill-opacity: 0.7"/>
    </g>
    <g clip-path="url(#p49680ff6a8)">
     <use xlink:href="#C0_0_6c839dabc4" x="367.791595" y="78.912757" style="fill: #4c72b0; fill-opacity: 0.7"/>
    </g>
    <g clip-path="url(#p49680ff6a8)">
     <use xlink:href="#C0_0_6c839dabc4" x="522.76698" y="71.057629" style="fill: #4c72b0; fill-opacity: 0.7"/>
    </g>
    <g clip-path="url(#p49680ff6a8)">
     <use xlink:href="#C0_0_6c839dabc4" x="335.505111" y="51.354958" style="fill: #4c72b0; fill-opacity: 0.7"/>
    </g>
    <g clip-path="url(#p49680ff6a8)">
     <use xlink:href="#C0_0_6c839dabc4" x="269.905474" y="57.02499" style="fill: #4c72b0; fill-opacity: 0.7"/>
    </g>
    <g clip-path="url(#p49680ff6a8)">
     <use xlink:href="#C0_0_6c839dabc4" x="283.57437" y="73.04813" style="fill: #4c72b0; fill-opacity: 0.7"/>
    </g>
    <g clip-path="url(#p49680ff6a8)">
     <use xlink:href="#C0_0_6c839dabc4" x="376.280816" y="81.459913" style="fill: #4c72b0; fill-opacity: 0.7"/>
    </g>
    <g clip-path="url(#p49680ff6a8)">
     <use xlink:href="#C0_0_6c839dabc4" x="377.429322" y="99.461079" style="fill: #4c72b0; fill-opacity: 0.7"/>
    </g>
    <g clip-path="url(#p49680ff6a8)">
     <use xlink:href="#C0_0_6c839dabc4" x="352.070043" y="57.736081" style="fill: #4c72b0; fill-opacity: 0.7"/>
    </g>
    <g clip-path="url(#p49680ff6a8)">
     <use xlink:href="#C0_0_6c839dabc4" x="490.445247" y="84.184879" style="fill: #4c72b0; fill-opacity: 0.7"/>
    </g>
    <g clip-path="url(#p49680ff6a8)">
     <use xlink:href="#C0_0_6c839dabc4" x="321.695096" y="84.780695" style="fill: #4c72b0; fill-opacity: 0.7"/>
    </g>
    <g clip-path="url(#p49680ff6a8)">
     <use xlink:href="#C0_0_6c839dabc4" x="404.598672" y="69.435938" style="fill: #4c72b0; fill-opacity: 0.7"/>
    </g>
    <g clip-path="url(#p49680ff6a8)">
     <use xlink:href="#C0_0_6c839dabc4" x="353.463691" y="95.22725" style="fill: #4c72b0; fill-opacity: 0.7"/>
    </g>
   </g>
   <g id="PolyCollection_1">
    <defs>
     <path id="mf1e4558911" d="M 269.905474 -227.824728 
L 269.905474 -273.780727 
L 274.006988 -275.0662 
L 278.108502 -276.330813 
L 282.210016 -277.566617 
L 286.31153 -278.765916 
L 290.413044 -279.921347 
L 294.514558 -281.025957 
L 298.616072 -282.073268 
L 302.717586 -283.057324 
L 306.8191 -283.972742 
L 310.920615 -284.814736 
L 315.022129 -285.579152 
L 319.123643 -286.262486 
L 323.225157 -286.8619 
L 327.326671 -287.375238 
L 331.428185 -287.801037 
L 335.529699 -288.138541 
L 339.631213 -288.387711 
L 343.732727 -288.549236 
L 347.834241 -288.624545 
L 351.935756 -288.61581 
L 356.03727 -288.525953 
L 360.138784 -288.358641 
L 364.240298 -288.118281 
L 368.341812 -287.809995 
L 372.443326 -287.439595 
L 376.54484 -287.013536 
L 380.646354 -286.538861 
L 384.747868 -286.023121 
L 388.849382 -285.474292 
L 392.950897 -284.900665 
L 397.052411 -284.310727 
L 401.153925 -283.713024 
L 405.255439 -283.116021 
L 409.356953 -282.527944 
L 413.458467 -281.956625 
L 417.559981 -281.409347 
L 421.661495 -280.892693 
L 425.763009 -280.412403 
L 429.864523 -279.973255 
L 433.966038 -279.578955 
L 438.067552 -279.232063 
L 442.169066 -278.933942 
L 446.27058 -278.684743 
L 450.372094 -278.483416 
L 454.473608 -278.327769 
L 458.575122 -278.214548 
L 462.676636 -278.139554 
L 466.77815 -278.097788 
L 470.879664 -278.08362 
L 474.981178 -278.090966 
L 479.082693 -278.113488 
L 483.184207 -278.144786 
L 487.285721 -278.178587 
L 491.387235 -278.208929 
L 495.488749 -278.230311 
L 499.590263 -278.237833 
L 503.691777 -278.227297 
L 507.793291 -278.195279 
L 511.894805 -278.139162 
L 515.996319 -278.05714 
L 520.097834 -277.948189 
L 524.199348 -277.812002 
L 528.300862 -277.648908 
L 532.402376 -277.459763 
L 536.50389 -277.245833 
L 540.605404 -277.008668 
L 544.706918 -276.749978 
L 548.808432 -276.47151 
L 552.909946 -276.174936 
L 557.01146 -275.861767 
L 561.112975 -275.533268 
L 565.214489 -275.190412 
L 569.316003 -274.833844 
L 573.417517 -274.463875 
L 577.519031 -274.08049 
L 581.620545 -273.68338 
L 585.722059 -273.27199 
L 589.823573 -272.845575 
L 593.925087 -272.40327 
L 598.026601 -271.944162 
L 602.128116 -271.467364 
L 606.22963 -270.972087 
L 610.331144 -270.457709 
L 614.432658 -269.923832 
L 618.534172 -269.370334 
L 622.635686 -268.797407 
L 626.7372 -268.205584 
L 630.838714 -267.595756 
L 634.940228 -266.969174 
L 639.041742 -266.32744 
L 643.143256 -265.67249 
L 647.244771 -265.006563 
L 651.346285 -264.332169 
L 655.447799 -263.652039 
L 659.549313 -262.969084 
L 663.650827 -262.286337 
L 667.752341 -261.606904 
L 671.853855 -260.933904 
L 675.955369 -260.270418 
L 675.955369 -241.335036 
L 675.955369 -241.335036 
L 671.853855 -240.671551 
L 667.752341 -239.998551 
L 663.650827 -239.319117 
L 659.549313 -238.636371 
L 655.447799 -237.953416 
L 651.346285 -237.273286 
L 647.244771 -236.598891 
L 643.143256 -235.932965 
L 639.041742 -235.278015 
L 634.940228 -234.636281 
L 630.838714 -234.009699 
L 626.7372 -233.399871 
L 622.635686 -232.808048 
L 618.534172 -232.23512 
L 614.432658 -231.681622 
L 610.331144 -231.147745 
L 606.22963 -230.633367 
L 602.128116 -230.138091 
L 598.026601 -229.661293 
L 593.925087 -229.202185 
L 589.823573 -228.75988 
L 585.722059 -228.333465 
L 581.620545 -227.922074 
L 577.519031 -227.524965 
L 573.417517 -227.141579 
L 569.316003 -226.77161 
L 565.214489 -226.415043 
L 561.112975 -226.072187 
L 557.01146 -225.743688 
L 552.909946 -225.430518 
L 548.808432 -225.133945 
L 544.706918 -224.855476 
L 540.605404 -224.596786 
L 536.50389 -224.359622 
L 532.402376 -224.145692 
L 528.300862 -223.956546 
L 524.199348 -223.793452 
L 520.097834 -223.657266 
L 515.996319 -223.548315 
L 511.894805 -223.466293 
L 507.793291 -223.410176 
L 503.691777 -223.378157 
L 499.590263 -223.367622 
L 495.488749 -223.375144 
L 491.387235 -223.396526 
L 487.285721 -223.426867 
L 483.184207 -223.460669 
L 479.082693 -223.491966 
L 474.981178 -223.514488 
L 470.879664 -223.521835 
L 466.77815 -223.507666 
L 462.676636 -223.465901 
L 458.575122 -223.390907 
L 454.473608 -223.277686 
L 450.372094 -223.122039 
L 446.27058 -222.920712 
L 442.169066 -222.671512 
L 438.067552 -222.373392 
L 433.966038 -222.0265 
L 429.864523 -221.6322 
L 425.763009 -221.193051 
L 421.661495 -220.712762 
L 417.559981 -220.196107 
L 413.458467 -219.648829 
L 409.356953 -219.07751 
L 405.255439 -218.489433 
L 401.153925 -217.89243 
L 397.052411 -217.294728 
L 392.950897 -216.70479 
L 388.849382 -216.131163 
L 384.747868 -215.582334 
L 380.646354 -215.066594 
L 376.54484 -214.591918 
L 372.443326 -214.16586 
L 368.341812 -213.79546 
L 364.240298 -213.487174 
L 360.138784 -213.246813 
L 356.03727 -213.079502 
L 351.935756 -212.989644 
L 347.834241 -212.980909 
L 343.732727 -213.056218 
L 339.631213 -213.217744 
L 335.529699 -213.466914 
L 331.428185 -213.804418 
L 327.326671 -214.230217 
L 323.225157 -214.743554 
L 319.123643 -215.342969 
L 315.022129 -216.026303 
L 310.920615 -216.790719 
L 306.8191 -217.632713 
L 302.717586 -218.54813 
L 298.616072 -219.532187 
L 294.514558 -220.579497 
L 290.413044 -221.684108 
L 286.31153 -222.839539 
L 282.210016 -224.038837 
L 278.108502 -225.274642 
L 274.006988 -226.539255 
L 269.905474 -227.824728 
z
" style="stroke: #ffffff; stroke-opacity: 0.3; stroke-width: 2"/>
    </defs>
    <g clip-path="url(#p49680ff6a8)">
     <use xlink:href="#mf1e4558911" x="0" y="324" style="fill: #4c72b0; fill-opacity: 0.3; stroke: #ffffff; stroke-opacity: 0.3; stroke-width: 2"/>
    </g>
   </g>
   <g id="PathCollection_2">
    <defs>
     <path id="C1_0_61e25ac3fd" d="M 0 5 
C 1.326016 5 2.597899 4.473168 3.535534 3.535534 
C 4.473168 2.597899 5 1.326016 5 -0 
C 5 -1.326016 4.473168 -2.597899 3.535534 -3.535534 
C 2.597899 -4.473168 1.326016 -5 0 -5 
C -1.326016 -5 -2.597899 -4.473168 -3.535534 -3.535534 
C -4.473168 -2.597899 -5 -1.326016 -5 0 
C -5 1.326016 -4.473168 2.597899 -3.535534 3.535534 
C -2.597899 4.473168 -1.326016 5 0 5 
z
"/>
    </defs>
    <g clip-path="url(#p49680ff6a8)">
     <use xlink:href="#C1_0_61e25ac3fd" x="482.714462" y="185.994677" style="fill: #dd8452; fill-opacity: 0.7"/>
    </g>
    <g clip-path="url(#p49680ff6a8)">
     <use xlink:href="#C1_0_61e25ac3fd" x="502.074016" y="197.545531" style="fill: #dd8452; fill-opacity: 0.7"/>
    </g>
    <g clip-path="url(#p49680ff6a8)">
     <use xlink:href="#C1_0_61e25ac3fd" x="513.090738" y="167.713327" style="fill: #dd8452; fill-opacity: 0.7"/>
    </g>
    <g clip-path="url(#p49680ff6a8)">
     <use xlink:href="#C1_0_61e25ac3fd" x="539.922039" y="177.058667" style="fill: #dd8452; fill-opacity: 0.7"/>
    </g>
    <g clip-path="url(#p49680ff6a8)">
     <use xlink:href="#C1_0_61e25ac3fd" x="554.984222" y="191.65463" style="fill: #dd8452; fill-opacity: 0.7"/>
    </g>
    <g clip-path="url(#p49680ff6a8)">
     <use xlink:href="#C1_0_61e25ac3fd" x="520.007661" y="200.682609" style="fill: #dd8452; fill-opacity: 0.7"/>
    </g>
    <g clip-path="url(#p49680ff6a8)">
     <use xlink:href="#C1_0_61e25ac3fd" x="548.013355" y="173.605884" style="fill: #dd8452; fill-opacity: 0.7"/>
    </g>
    <g clip-path="url(#p49680ff6a8)">
     <use xlink:href="#C1_0_61e25ac3fd" x="496.439565" y="176.199383" style="fill: #dd8452; fill-opacity: 0.7"/>
    </g>
    <g clip-path="url(#p49680ff6a8)">
     <use xlink:href="#C1_0_61e25ac3fd" x="544.066316" y="183.504926" style="fill: #dd8452; fill-opacity: 0.7"/>
    </g>
    <g clip-path="url(#p49680ff6a8)">
     <use xlink:href="#C1_0_61e25ac3fd" x="541.748049" y="191.562081" style="fill: #dd8452; fill-opacity: 0.7"/>
    </g>
    <g clip-path="url(#p49680ff6a8)">
     <use xlink:href="#C1_0_61e25ac3fd" x="400.609741" y="185.070891" style="fill: #dd8452; fill-opacity: 0.7"/>
    </g>
    <g clip-path="url(#p49680ff6a8)">
     <use xlink:href="#C1_0_61e25ac3fd" x="401.214939" y="181.757668" style="fill: #dd8452; fill-opacity: 0.7"/>
    </g>
    <g clip-path="url(#p49680ff6a8)">
     <use xlink:href="#C1_0_61e25ac3fd" x="385.152507" y="185.424027" style="fill: #dd8452; fill-opacity: 0.7"/>
    </g>
    <g clip-path="url(#p49680ff6a8)">
     <use xlink:href="#C1_0_61e25ac3fd" x="408.348265" y="189.973607" style="fill: #dd8452; fill-opacity: 0.7"/>
    </g>
    <g clip-path="url(#p49680ff6a8)">
     <use xlink:href="#C1_0_61e25ac3fd" x="341.542923" y="187.134557" style="fill: #dd8452; fill-opacity: 0.7"/>
    </g>
    <g clip-path="url(#p49680ff6a8)">
     <use xlink:href="#C1_0_61e25ac3fd" x="381.550479" y="182.13689" style="fill: #dd8452; fill-opacity: 0.7"/>
    </g>
    <g clip-path="url(#p49680ff6a8)">
     <use xlink:href="#C1_0_61e25ac3fd" x="459.184575" y="176.48384" style="fill: #dd8452; fill-opacity: 0.7"/>
    </g>
    <g clip-path="url(#p49680ff6a8)">
     <use xlink:href="#C1_0_61e25ac3fd" x="429.708806" y="178.14771" style="fill: #dd8452; fill-opacity: 0.7"/>
    </g>
    <g clip-path="url(#p49680ff6a8)">
     <use xlink:href="#C1_0_61e25ac3fd" x="435.521921" y="188.993681" style="fill: #dd8452; fill-opacity: 0.7"/>
    </g>
    <g clip-path="url(#p49680ff6a8)">
     <use xlink:href="#C1_0_61e25ac3fd" x="458.606404" y="206.175528" style="fill: #dd8452; fill-opacity: 0.7"/>
    </g>
    <g clip-path="url(#p49680ff6a8)">
     <use xlink:href="#C1_0_61e25ac3fd" x="404.029097" y="190.304708" style="fill: #dd8452; fill-opacity: 0.7"/>
    </g>
    <g clip-path="url(#p49680ff6a8)">
     <use xlink:href="#C1_0_61e25ac3fd" x="444.497263" y="184.424735" style="fill: #dd8452; fill-opacity: 0.7"/>
    </g>
    <g clip-path="url(#p49680ff6a8)">
     <use xlink:href="#C1_0_61e25ac3fd" x="449.566664" y="190.267257" style="fill: #dd8452; fill-opacity: 0.7"/>
    </g>
    <g clip-path="url(#p49680ff6a8)">
     <use xlink:href="#C1_0_61e25ac3fd" x="482.641317" y="181.149946" style="fill: #dd8452; fill-opacity: 0.7"/>
    </g>
    <g clip-path="url(#p49680ff6a8)">
     <use xlink:href="#C1_0_61e25ac3fd" x="441.174475" y="177.400186" style="fill: #dd8452; fill-opacity: 0.7"/>
    </g>
    <g clip-path="url(#p49680ff6a8)">
     <use xlink:href="#C1_0_61e25ac3fd" x="478.773163" y="200.114959" style="fill: #dd8452; fill-opacity: 0.7"/>
    </g>
    <g clip-path="url(#p49680ff6a8)">
     <use xlink:href="#C1_0_61e25ac3fd" x="482.040612" y="210.523827" style="fill: #dd8452; fill-opacity: 0.7"/>
    </g>
    <g clip-path="url(#p49680ff6a8)">
     <use xlink:href="#C1_0_61e25ac3fd" x="496.438844" y="172.292923" style="fill: #dd8452; fill-opacity: 0.7"/>
    </g>
    <g clip-path="url(#p49680ff6a8)">
     <use xlink:href="#C1_0_61e25ac3fd" x="528.478606" y="199.350444" style="fill: #dd8452; fill-opacity: 0.7"/>
    </g>
    <g clip-path="url(#p49680ff6a8)">
     <use xlink:href="#C1_0_61e25ac3fd" x="478.224708" y="179.274536" style="fill: #dd8452; fill-opacity: 0.7"/>
    </g>
    <g clip-path="url(#p49680ff6a8)">
     <use xlink:href="#C1_0_61e25ac3fd" x="486.306142" y="196.26637" style="fill: #dd8452; fill-opacity: 0.7"/>
    </g>
    <g clip-path="url(#p49680ff6a8)">
     <use xlink:href="#C1_0_61e25ac3fd" x="568.41272" y="189.690206" style="fill: #dd8452; fill-opacity: 0.7"/>
    </g>
    <g clip-path="url(#p49680ff6a8)">
     <use xlink:href="#C1_0_61e25ac3fd" x="501.07396" y="183.114278" style="fill: #dd8452; fill-opacity: 0.7"/>
    </g>
    <g clip-path="url(#p49680ff6a8)">
     <use xlink:href="#C1_0_61e25ac3fd" x="514.995508" y="165.09961" style="fill: #dd8452; fill-opacity: 0.7"/>
    </g>
    <g clip-path="url(#p49680ff6a8)">
     <use xlink:href="#C1_0_61e25ac3fd" x="530.085872" y="197.317742" style="fill: #dd8452; fill-opacity: 0.7"/>
    </g>
    <g clip-path="url(#p49680ff6a8)">
     <use xlink:href="#C1_0_61e25ac3fd" x="482.739348" y="175.074498" style="fill: #dd8452; fill-opacity: 0.7"/>
    </g>
    <g clip-path="url(#p49680ff6a8)">
     <use xlink:href="#C1_0_61e25ac3fd" x="554.633655" y="175.948988" style="fill: #dd8452; fill-opacity: 0.7"/>
    </g>
    <g clip-path="url(#p49680ff6a8)">
     <use xlink:href="#C1_0_61e25ac3fd" x="507.934141" y="185.011103" style="fill: #dd8452; fill-opacity: 0.7"/>
    </g>
    <g clip-path="url(#p49680ff6a8)">
     <use xlink:href="#C1_0_61e25ac3fd" x="491.118281" y="207.594027" style="fill: #dd8452; fill-opacity: 0.7"/>
    </g>
    <g clip-path="url(#p49680ff6a8)">
     <use xlink:href="#C1_0_61e25ac3fd" x="504.16578" y="192.210406" style="fill: #dd8452; fill-opacity: 0.7"/>
    </g>
    <g clip-path="url(#p49680ff6a8)">
     <use xlink:href="#C1_0_61e25ac3fd" x="474.817466" y="211.524511" style="fill: #dd8452; fill-opacity: 0.7"/>
    </g>
    <g clip-path="url(#p49680ff6a8)">
     <use xlink:href="#C1_0_61e25ac3fd" x="468.060293" y="180.34767" style="fill: #dd8452; fill-opacity: 0.7"/>
    </g>
    <g clip-path="url(#p49680ff6a8)">
     <use xlink:href="#C1_0_61e25ac3fd" x="492.181767" y="202.779084" style="fill: #dd8452; fill-opacity: 0.7"/>
    </g>
    <g clip-path="url(#p49680ff6a8)">
     <use xlink:href="#C1_0_61e25ac3fd" x="470.575748" y="191.489773" style="fill: #dd8452; fill-opacity: 0.7"/>
    </g>
    <g clip-path="url(#p49680ff6a8)">
     <use xlink:href="#C1_0_61e25ac3fd" x="475.468868" y="212.800985" style="fill: #dd8452; fill-opacity: 0.7"/>
    </g>
    <g clip-path="url(#p49680ff6a8)">
     <use xlink:href="#C1_0_61e25ac3fd" x="470.454746" y="174.805804" style="fill: #dd8452; fill-opacity: 0.7"/>
    </g>
    <g clip-path="url(#p49680ff6a8)">
     <use xlink:href="#C1_0_61e25ac3fd" x="474.119618" y="178.960077" style="fill: #dd8452; fill-opacity: 0.7"/>
    </g>
    <g clip-path="url(#p49680ff6a8)">
     <use xlink:href="#C1_0_61e25ac3fd" x="479.365627" y="199.621375" style="fill: #dd8452; fill-opacity: 0.7"/>
    </g>
    <g clip-path="url(#p49680ff6a8)">
     <use xlink:href="#C1_0_61e25ac3fd" x="505.900321" y="205.104213" style="fill: #dd8452; fill-opacity: 0.7"/>
    </g>
    <g clip-path="url(#p49680ff6a8)">
     <use xlink:href="#C1_0_61e25ac3fd" x="475.346458" y="194.281783" style="fill: #dd8452; fill-opacity: 0.7"/>
    </g>
    <g clip-path="url(#p49680ff6a8)">
     <use xlink:href="#C1_0_61e25ac3fd" x="511.114677" y="183.42089" style="fill: #dd8452; fill-opacity: 0.7"/>
    </g>
    <g clip-path="url(#p49680ff6a8)">
     <use xlink:href="#C1_0_61e25ac3fd" x="481.864635" y="191.110369" style="fill: #dd8452; fill-opacity: 0.7"/>
    </g>
    <g clip-path="url(#p49680ff6a8)">
     <use xlink:href="#C1_0_61e25ac3fd" x="535.573502" y="176.890562" style="fill: #dd8452; fill-opacity: 0.7"/>
    </g>
    <g clip-path="url(#p49680ff6a8)">
     <use xlink:href="#C1_0_61e25ac3fd" x="519.222707" y="187.202014" style="fill: #dd8452; fill-opacity: 0.7"/>
    </g>
    <g clip-path="url(#p49680ff6a8)">
     <use xlink:href="#C1_0_61e25ac3fd" x="559.414582" y="193.139862" style="fill: #dd8452; fill-opacity: 0.7"/>
    </g>
   </g>
   <g id="PolyCollection_2">
    <defs>
     <path id="mfea0f79707" d="M 341.542923 -135.281836 
L 341.542923 -139.392709 
L 343.834537 -139.525241 
L 346.126151 -139.666656 
L 348.417765 -139.819838 
L 350.709379 -139.987843 
L 353.000993 -140.173724 
L 355.292608 -140.380339 
L 357.584222 -140.610142 
L 359.875836 -140.864991 
L 362.16745 -141.145966 
L 364.459064 -141.453224 
L 366.750678 -141.7859 
L 369.042292 -142.142055 
L 371.333906 -142.518687 
L 373.62552 -142.911809 
L 375.917135 -143.316578 
L 378.208749 -143.727492 
L 380.500363 -144.138632 
L 382.791977 -144.543939 
L 385.083591 -144.937516 
L 387.375205 -145.313946 
L 389.666819 -145.668589 
L 391.958433 -145.997864 
L 394.250047 -146.299482 
L 396.541662 -146.572628 
L 398.833276 -146.818079 
L 401.12489 -147.038246 
L 403.416504 -147.237143 
L 405.708118 -147.420285 
L 407.999732 -147.594523 
L 410.291346 -147.767826 
L 412.58296 -147.949025 
L 414.874575 -148.147533 
L 417.166189 -148.373064 
L 419.457803 -148.635355 
L 421.749417 -148.943913 
L 424.041031 -149.307778 
L 426.332645 -149.735322 
L 428.624259 -150.23407 
L 430.915873 -150.810533 
L 433.207487 -151.470052 
L 435.499102 -152.216641 
L 437.790716 -153.052815 
L 440.08233 -153.979408 
L 442.373944 -154.995373 
L 444.665558 -156.097585 
L 446.957172 -157.280648 
L 449.248786 -158.536732 
L 451.5404 -159.855477 
L 453.832014 -161.223965 
L 456.123629 -162.626808 
L 458.415243 -164.046352 
L 460.706857 -165.463026 
L 462.998471 -166.855813 
L 465.290085 -168.202847 
L 467.581699 -169.482105 
L 469.873313 -170.672162 
L 472.164927 -171.752959 
L 474.456542 -172.706549 
L 476.748156 -173.517761 
L 479.03977 -174.174755 
L 481.331384 -174.669417 
L 483.622998 -174.997584 
L 485.914612 -175.159091 
L 488.206226 -175.157623 
L 490.49784 -175.000417 
L 492.789454 -174.697817 
L 495.081069 -174.262724 
L 497.372683 -173.709981 
L 499.664297 -173.055724 
L 501.955911 -172.316738 
L 504.247525 -171.509845 
L 506.539139 -170.651352 
L 508.830753 -169.756572 
L 511.122367 -168.839423 
L 513.413981 -167.912124 
L 515.705596 -166.984969 
L 517.99721 -166.066194 
L 520.288824 -165.161914 
L 522.580438 -164.27614 
L 524.872052 -163.41087 
L 527.163666 -162.566227 
L 529.45528 -161.740674 
L 531.746894 -160.931269 
L 534.038509 -160.133966 
L 536.330123 -159.343949 
L 538.621737 -158.55599 
L 540.913351 -157.764817 
L 543.204965 -156.965463 
L 545.496579 -156.153606 
L 547.788193 -155.32586 
L 550.079807 -154.480009 
L 552.371421 -153.615182 
L 554.663036 -152.731948 
L 556.95465 -151.832325 
L 559.246264 -150.919728 
L 561.537878 -149.998822 
L 563.829492 -149.075328 
L 566.121106 -148.15577 
L 568.41272 -147.247189 
L 568.41272 -127.427356 
L 568.41272 -127.427356 
L 566.121106 -126.518776 
L 563.829492 -125.599217 
L 561.537878 -124.675723 
L 559.246264 -123.754817 
L 556.95465 -122.84222 
L 554.663036 -121.942598 
L 552.371421 -121.059363 
L 550.079807 -120.194537 
L 547.788193 -119.348686 
L 545.496579 -118.520939 
L 543.204965 -117.709083 
L 540.913351 -116.909729 
L 538.621737 -116.118555 
L 536.330123 -115.330597 
L 534.038509 -114.54058 
L 531.746894 -113.743276 
L 529.45528 -112.933872 
L 527.163666 -112.108319 
L 524.872052 -111.263676 
L 522.580438 -110.398405 
L 520.288824 -109.512632 
L 517.99721 -108.608351 
L 515.705596 -107.689576 
L 513.413981 -106.762422 
L 511.122367 -105.835123 
L 508.830753 -104.917974 
L 506.539139 -104.023193 
L 504.247525 -103.1647 
L 501.955911 -102.357808 
L 499.664297 -101.618821 
L 497.372683 -100.964564 
L 495.081069 -100.411822 
L 492.789454 -99.976729 
L 490.49784 -99.674128 
L 488.206226 -99.516922 
L 485.914612 -99.515455 
L 483.622998 -99.676961 
L 481.331384 -100.005129 
L 479.03977 -100.49979 
L 476.748156 -101.156784 
L 474.456542 -101.967996 
L 472.164927 -102.921586 
L 469.873313 -104.002383 
L 467.581699 -105.19244 
L 465.290085 -106.471698 
L 462.998471 -107.818732 
L 460.706857 -109.211519 
L 458.415243 -110.628193 
L 456.123629 -112.047738 
L 453.832014 -113.45058 
L 451.5404 -114.819068 
L 449.248786 -116.137813 
L 446.957172 -117.393898 
L 444.665558 -118.57696 
L 442.373944 -119.679172 
L 440.08233 -120.695138 
L 437.790716 -121.62173 
L 435.499102 -122.457904 
L 433.207487 -123.204493 
L 430.915873 -123.864012 
L 428.624259 -124.440475 
L 426.332645 -124.939223 
L 424.041031 -125.366768 
L 421.749417 -125.730633 
L 419.457803 -126.03919 
L 417.166189 -126.301482 
L 414.874575 -126.527013 
L 412.58296 -126.725521 
L 410.291346 -126.906719 
L 407.999732 -127.080023 
L 405.708118 -127.254261 
L 403.416504 -127.437403 
L 401.12489 -127.636299 
L 398.833276 -127.856466 
L 396.541662 -128.101918 
L 394.250047 -128.375064 
L 391.958433 -128.676681 
L 389.666819 -129.005956 
L 387.375205 -129.3606 
L 385.083591 -129.73703 
L 382.791977 -130.130607 
L 380.500363 -130.535913 
L 378.208749 -130.947053 
L 375.917135 -131.357968 
L 373.62552 -131.762737 
L 371.333906 -132.155858 
L 369.042292 -132.53249 
L 366.750678 -132.888645 
L 364.459064 -133.221321 
L 362.16745 -133.52858 
L 359.875836 -133.809554 
L 357.584222 -134.064403 
L 355.292608 -134.294207 
L 353.000993 -134.500821 
L 350.709379 -134.686703 
L 348.417765 -134.854707 
L 346.126151 -135.007889 
L 343.834537 -135.149304 
L 341.542923 -135.281836 
z
" style="stroke: #ffffff; stroke-opacity: 0.3; stroke-width: 2"/>
    </defs>
    <g clip-path="url(#p49680ff6a8)">
     <use xlink:href="#mfea0f79707" x="0" y="324" style="fill: #dd8452; fill-opacity: 0.3; stroke: #ffffff; stroke-opacity: 0.3; stroke-width: 2"/>
    </g>
   </g>
   <g id="line2d_7">
    <path d="M 513.435319 69.261094 
L 482.714462 185.994677 
" clip-path="url(#p49680ff6a8)" style="fill: none; stroke: #000000; stroke-opacity: 0.2; stroke-width: 1.5; stroke-linecap: round"/>
   </g>
   <g id="line2d_8">
    <path d="M 566.531439 56.730923 
L 502.074016 197.545531 
" clip-path="url(#p49680ff6a8)" style="fill: none; stroke: #000000; stroke-opacity: 0.2; stroke-width: 1.5; stroke-linecap: round"/>
   </g>
   <g id="line2d_9">
    <path d="M 513.326017 61.845408 
L 513.090738 167.713327 
" clip-path="url(#p49680ff6a8)" style="fill: none; stroke: #000000; stroke-opacity: 0.2; stroke-width: 1.5; stroke-linecap: round"/>
   </g>
   <g id="line2d_10">
    <path d="M 486.503272 78.090039 
L 539.922039 177.058667 
" clip-path="url(#p49680ff6a8)" style="fill: none; stroke: #000000; stroke-opacity: 0.2; stroke-width: 1.5; stroke-linecap: round"/>
   </g>
   <g id="line2d_11">
    <path d="M 621.435231 68.930919 
L 554.984222 191.65463 
" clip-path="url(#p49680ff6a8)" style="fill: none; stroke: #000000; stroke-opacity: 0.2; stroke-width: 1.5; stroke-linecap: round"/>
   </g>
   <g id="line2d_12">
    <path d="M 332.292837 68.345936 
L 520.007661 200.682609 
" clip-path="url(#p49680ff6a8)" style="fill: none; stroke: #000000; stroke-opacity: 0.2; stroke-width: 1.5; stroke-linecap: round"/>
   </g>
   <g id="line2d_13">
    <path d="M 628.690039 77.799854 
L 548.013355 173.605884 
" clip-path="url(#p49680ff6a8)" style="fill: none; stroke: #000000; stroke-opacity: 0.2; stroke-width: 1.5; stroke-linecap: round"/>
   </g>
   <g id="line2d_14">
    <path d="M 278.066647 81.892173 
L 496.439565 176.199383 
" clip-path="url(#p49680ff6a8)" style="fill: none; stroke: #000000; stroke-opacity: 0.2; stroke-width: 1.5; stroke-linecap: round"/>
   </g>
   <g id="line2d_15">
    <path d="M 321.557913 65.281586 
L 544.066316 183.504926 
" clip-path="url(#p49680ff6a8)" style="fill: none; stroke: #000000; stroke-opacity: 0.2; stroke-width: 1.5; stroke-linecap: round"/>
   </g>
   <g id="line2d_16">
    <path d="M 412.799004 68.034104 
L 541.748049 191.562081 
" clip-path="url(#p49680ff6a8)" style="fill: none; stroke: #000000; stroke-opacity: 0.2; stroke-width: 1.5; stroke-linecap: round"/>
   </g>
   <g id="line2d_17">
    <path d="M 395.111957 91.88486 
L 400.609741 185.070891 
" clip-path="url(#p49680ff6a8)" style="fill: none; stroke: #000000; stroke-opacity: 0.2; stroke-width: 1.5; stroke-linecap: round"/>
   </g>
   <g id="line2d_18">
    <path d="M 527.27935 62.8182 
L 401.214939 181.757668 
" clip-path="url(#p49680ff6a8)" style="fill: none; stroke: #000000; stroke-opacity: 0.2; stroke-width: 1.5; stroke-linecap: round"/>
   </g>
   <g id="line2d_19">
    <path d="M 437.482912 73.351187 
L 385.152507 185.424027 
" clip-path="url(#p49680ff6a8)" style="fill: none; stroke: #000000; stroke-opacity: 0.2; stroke-width: 1.5; stroke-linecap: round"/>
   </g>
   <g id="line2d_20">
    <path d="M 474.260919 91.379614 
L 408.348265 189.973607 
" clip-path="url(#p49680ff6a8)" style="fill: none; stroke: #000000; stroke-opacity: 0.2; stroke-width: 1.5; stroke-linecap: round"/>
   </g>
   <g id="line2d_21">
    <path d="M 303.847249 80.195465 
L 341.542923 187.134557 
" clip-path="url(#p49680ff6a8)" style="fill: none; stroke: #000000; stroke-opacity: 0.2; stroke-width: 1.5; stroke-linecap: round"/>
   </g>
   <g id="line2d_22">
    <path d="M 567.930619 72.449984 
L 381.550479 182.13689 
" clip-path="url(#p49680ff6a8)" style="fill: none; stroke: #000000; stroke-opacity: 0.2; stroke-width: 1.5; stroke-linecap: round"/>
   </g>
   <g id="line2d_23">
    <path d="M 418.462621 65.960728 
L 459.184575 176.48384 
" clip-path="url(#p49680ff6a8)" style="fill: none; stroke: #000000; stroke-opacity: 0.2; stroke-width: 1.5; stroke-linecap: round"/>
   </g>
   <g id="line2d_24">
    <path d="M 351.701152 49.884834 
L 429.708806 178.14771 
" clip-path="url(#p49680ff6a8)" style="fill: none; stroke: #000000; stroke-opacity: 0.2; stroke-width: 1.5; stroke-linecap: round"/>
   </g>
   <g id="line2d_25">
    <path d="M 481.482421 68.265935 
L 435.521921 188.993681 
" clip-path="url(#p49680ff6a8)" style="fill: none; stroke: #000000; stroke-opacity: 0.2; stroke-width: 1.5; stroke-linecap: round"/>
   </g>
   <g id="line2d_26">
    <path d="M 645.793137 83.12387 
L 458.606404 206.175528 
" clip-path="url(#p49680ff6a8)" style="fill: none; stroke: #000000; stroke-opacity: 0.2; stroke-width: 1.5; stroke-linecap: round"/>
   </g>
   <g id="line2d_27">
    <path d="M 497.198812 93.269211 
L 404.029097 190.304708 
" clip-path="url(#p49680ff6a8)" style="fill: none; stroke: #000000; stroke-opacity: 0.2; stroke-width: 1.5; stroke-linecap: round"/>
   </g>
   <g id="line2d_28">
    <path d="M 582.37188 73.463252 
L 444.497263 184.424735 
" clip-path="url(#p49680ff6a8)" style="fill: none; stroke: #000000; stroke-opacity: 0.2; stroke-width: 1.5; stroke-linecap: round"/>
   </g>
   <g id="line2d_29">
    <path d="M 410.363646 87.965214 
L 449.566664 190.267257 
" clip-path="url(#p49680ff6a8)" style="fill: none; stroke: #000000; stroke-opacity: 0.2; stroke-width: 1.5; stroke-linecap: round"/>
   </g>
   <g id="line2d_30">
    <path d="M 605.330987 60.60389 
L 482.641317 181.149946 
" clip-path="url(#p49680ff6a8)" style="fill: none; stroke: #000000; stroke-opacity: 0.2; stroke-width: 1.5; stroke-linecap: round"/>
   </g>
   <g id="line2d_31">
    <path d="M 307.11166 96.741706 
L 441.174475 177.400186 
" clip-path="url(#p49680ff6a8)" style="fill: none; stroke: #000000; stroke-opacity: 0.2; stroke-width: 1.5; stroke-linecap: round"/>
   </g>
   <g id="line2d_32">
    <path d="M 291.164051 59.285337 
L 478.773163 200.114959 
" clip-path="url(#p49680ff6a8)" style="fill: none; stroke: #000000; stroke-opacity: 0.2; stroke-width: 1.5; stroke-linecap: round"/>
   </g>
   <g id="line2d_33">
    <path d="M 508.206591 81.405833 
L 482.040612 210.523827 
" clip-path="url(#p49680ff6a8)" style="fill: none; stroke: #000000; stroke-opacity: 0.2; stroke-width: 1.5; stroke-linecap: round"/>
   </g>
   <g id="line2d_34">
    <path d="M 592.508587 87.914109 
L 496.438844 172.292923 
" clip-path="url(#p49680ff6a8)" style="fill: none; stroke: #000000; stroke-opacity: 0.2; stroke-width: 1.5; stroke-linecap: round"/>
   </g>
   <g id="line2d_35">
    <path d="M 645.753917 81.454534 
L 528.478606 199.350444 
" clip-path="url(#p49680ff6a8)" style="fill: none; stroke: #000000; stroke-opacity: 0.2; stroke-width: 1.5; stroke-linecap: round"/>
   </g>
   <g id="line2d_36">
    <path d="M 352.410766 76.007264 
L 478.224708 179.274536 
" clip-path="url(#p49680ff6a8)" style="fill: none; stroke: #000000; stroke-opacity: 0.2; stroke-width: 1.5; stroke-linecap: round"/>
   </g>
   <g id="line2d_37">
    <path d="M 675.955369 78.359245 
L 486.306142 196.26637 
" clip-path="url(#p49680ff6a8)" style="fill: none; stroke: #000000; stroke-opacity: 0.2; stroke-width: 1.5; stroke-linecap: round"/>
   </g>
   <g id="line2d_38">
    <path d="M 415.448768 95.543567 
L 568.41272 189.690206 
" clip-path="url(#p49680ff6a8)" style="fill: none; stroke: #000000; stroke-opacity: 0.2; stroke-width: 1.5; stroke-linecap: round"/>
   </g>
   <g id="line2d_39">
    <path d="M 342.437036 72.931317 
L 501.07396 183.114278 
" clip-path="url(#p49680ff6a8)" style="fill: none; stroke: #000000; stroke-opacity: 0.2; stroke-width: 1.5; stroke-linecap: round"/>
   </g>
   <g id="line2d_40">
    <path d="M 489.128302 86.246974 
L 514.995508 165.09961 
" clip-path="url(#p49680ff6a8)" style="fill: none; stroke: #000000; stroke-opacity: 0.2; stroke-width: 1.5; stroke-linecap: round"/>
   </g>
   <g id="line2d_41">
    <path d="M 517.278018 74.110785 
L 530.085872 197.317742 
" clip-path="url(#p49680ff6a8)" style="fill: none; stroke: #000000; stroke-opacity: 0.2; stroke-width: 1.5; stroke-linecap: round"/>
   </g>
   <g id="line2d_42">
    <path d="M 277.704456 78.086751 
L 482.739348 175.074498 
" clip-path="url(#p49680ff6a8)" style="fill: none; stroke: #000000; stroke-opacity: 0.2; stroke-width: 1.5; stroke-linecap: round"/>
   </g>
   <g id="line2d_43">
    <path d="M 566.006829 78.892982 
L 554.633655 175.948988 
" clip-path="url(#p49680ff6a8)" style="fill: none; stroke: #000000; stroke-opacity: 0.2; stroke-width: 1.5; stroke-linecap: round"/>
   </g>
   <g id="line2d_44">
    <path d="M 274.776574 80.816698 
L 507.934141 185.011103 
" clip-path="url(#p49680ff6a8)" style="fill: none; stroke: #000000; stroke-opacity: 0.2; stroke-width: 1.5; stroke-linecap: round"/>
   </g>
   <g id="line2d_45">
    <path d="M 336.164992 55.192244 
L 491.118281 207.594027 
" clip-path="url(#p49680ff6a8)" style="fill: none; stroke: #000000; stroke-opacity: 0.2; stroke-width: 1.5; stroke-linecap: round"/>
   </g>
   <g id="line2d_46">
    <path d="M 377.678964 59.289509 
L 504.16578 192.210406 
" clip-path="url(#p49680ff6a8)" style="fill: none; stroke: #000000; stroke-opacity: 0.2; stroke-width: 1.5; stroke-linecap: round"/>
   </g>
   <g id="line2d_47">
    <path d="M 293.179255 61.306899 
L 474.817466 211.524511 
" clip-path="url(#p49680ff6a8)" style="fill: none; stroke: #000000; stroke-opacity: 0.2; stroke-width: 1.5; stroke-linecap: round"/>
   </g>
   <g id="line2d_48">
    <path d="M 591.670891 63.971767 
L 468.060293 180.34767 
" clip-path="url(#p49680ff6a8)" style="fill: none; stroke: #000000; stroke-opacity: 0.2; stroke-width: 1.5; stroke-linecap: round"/>
   </g>
   <g id="line2d_49">
    <path d="M 371.151923 96.467505 
L 492.181767 202.779084 
" clip-path="url(#p49680ff6a8)" style="fill: none; stroke: #000000; stroke-opacity: 0.2; stroke-width: 1.5; stroke-linecap: round"/>
   </g>
   <g id="line2d_50">
    <path d="M 367.791595 78.912757 
L 470.575748 191.489773 
" clip-path="url(#p49680ff6a8)" style="fill: none; stroke: #000000; stroke-opacity: 0.2; stroke-width: 1.5; stroke-linecap: round"/>
   </g>
   <g id="line2d_51">
    <path d="M 522.76698 71.057629 
L 475.468868 212.800985 
" clip-path="url(#p49680ff6a8)" style="fill: none; stroke: #000000; stroke-opacity: 0.2; stroke-width: 1.5; stroke-linecap: round"/>
   </g>
   <g id="line2d_52">
    <path d="M 335.505111 51.354958 
L 470.454746 174.805804 
" clip-path="url(#p49680ff6a8)" style="fill: none; stroke: #000000; stroke-opacity: 0.2; stroke-width: 1.5; stroke-linecap: round"/>
   </g>
   <g id="line2d_53">
    <path d="M 269.905474 57.02499 
L 474.119618 178.960077 
" clip-path="url(#p49680ff6a8)" style="fill: none; stroke: #000000; stroke-opacity: 0.2; stroke-width: 1.5; stroke-linecap: round"/>
   </g>
   <g id="line2d_54">
    <path d="M 283.57437 73.04813 
L 479.365627 199.621375 
" clip-path="url(#p49680ff6a8)" style="fill: none; stroke: #000000; stroke-opacity: 0.2; stroke-width: 1.5; stroke-linecap: round"/>
   </g>
   <g id="line2d_55">
    <path d="M 376.280816 81.459913 
L 505.900321 205.104213 
" clip-path="url(#p49680ff6a8)" style="fill: none; stroke: #000000; stroke-opacity: 0.2; stroke-width: 1.5; stroke-linecap: round"/>
   </g>
   <g id="line2d_56">
    <path d="M 377.429322 99.461079 
L 475.346458 194.281783 
" clip-path="url(#p49680ff6a8)" style="fill: none; stroke: #000000; stroke-opacity: 0.2; stroke-width: 1.5; stroke-linecap: round"/>
   </g>
   <g id="line2d_57">
    <path d="M 352.070043 57.736081 
L 511.114677 183.42089 
" clip-path="url(#p49680ff6a8)" style="fill: none; stroke: #000000; stroke-opacity: 0.2; stroke-width: 1.5; stroke-linecap: round"/>
   </g>
   <g id="line2d_58">
    <path d="M 490.445247 84.184879 
L 481.864635 191.110369 
" clip-path="url(#p49680ff6a8)" style="fill: none; stroke: #000000; stroke-opacity: 0.2; stroke-width: 1.5; stroke-linecap: round"/>
   </g>
   <g id="line2d_59">
    <path d="M 321.695096 84.780695 
L 535.573502 176.890562 
" clip-path="url(#p49680ff6a8)" style="fill: none; stroke: #000000; stroke-opacity: 0.2; stroke-width: 1.5; stroke-linecap: round"/>
   </g>
   <g id="line2d_60">
    <path d="M 404.598672 69.435938 
L 519.222707 187.202014 
" clip-path="url(#p49680ff6a8)" style="fill: none; stroke: #000000; stroke-opacity: 0.2; stroke-width: 1.5; stroke-linecap: round"/>
   </g>
   <g id="line2d_61">
    <path d="M 353.463691 95.22725 
L 559.414582 193.139862 
" clip-path="url(#p49680ff6a8)" style="fill: none; stroke: #000000; stroke-opacity: 0.2; stroke-width: 1.5; stroke-linecap: round"/>
   </g>
   <g id="LineCollection_1">
    <path d="M 437.354886 47.982727 
L 437.354886 98.411818 
" clip-path="url(#p49680ff6a8)" style="fill: none; stroke: #1a1a1a; stroke-width: 3"/>
   </g>
   <g id="LineCollection_2">
    <path d="M 377.925264 73.197273 
L 496.784509 73.197273 
" clip-path="url(#p49680ff6a8)" style="fill: none; stroke: #1a1a1a; stroke-width: 2"/>
   </g>
   <g id="line2d_62">
    <defs>
     <path id="m136ba4d921" d="M 0 5 
L 0 -5 
" style="stroke: #1a1a1a"/>
    </defs>
    <g clip-path="url(#p49680ff6a8)">
     <use xlink:href="#m136ba4d921" x="377.925264" y="73.197273" style="fill: #1a1a1a; stroke: #1a1a1a"/>
    </g>
   </g>
   <g id="line2d_63">
    <g clip-path="url(#p49680ff6a8)">
     <use xlink:href="#m136ba4d921" x="496.784509" y="73.197273" style="fill: #1a1a1a; stroke: #1a1a1a"/>
    </g>
   </g>
   <g id="LineCollection_3">
    <path d="M 437.354886 161.448182 
L 437.354886 211.877273 
" clip-path="url(#p49680ff6a8)" style="fill: none; stroke: #696969; stroke-width: 3"/>
   </g>
   <g id="LineCollection_4">
    <path d="M 483.005675 161.448182 
L 483.005675 211.877273 
" clip-path="url(#p49680ff6a8)" style="fill: none; stroke: #1a1a1a; stroke-width: 3"/>
   </g>
   <g id="LineCollection_5">
    <path d="M 467.448124 186.662727 
L 498.563227 186.662727 
" clip-path="url(#p49680ff6a8)" style="fill: none; stroke: #1a1a1a; stroke-width: 2"/>
   </g>
   <g id="line2d_64">
    <g clip-path="url(#p49680ff6a8)">
     <use xlink:href="#m136ba4d921" x="467.448124" y="186.662727" style="fill: #1a1a1a; stroke: #1a1a1a"/>
    </g>
   </g>
   <g id="line2d_65">
    <g clip-path="url(#p49680ff6a8)">
     <use xlink:href="#m136ba4d921" x="498.563227" y="186.662727" style="fill: #1a1a1a; stroke: #1a1a1a"/>
    </g>
   </g>
   <g id="line2d_66">
    <path d="M 437.354886 73.197273 
" clip-path="url(#p49680ff6a8)" style="fill: none; stroke: #1a1a1a; stroke-width: 3; stroke-linecap: round"/>
   </g>
   <g id="line2d_67">
    <path d="M 437.354886 73.197273 
" clip-path="url(#p49680ff6a8)" style="fill: none; stroke: #1a1a1a; stroke-width: 3; stroke-linecap: round"/>
   </g>
   <g id="line2d_68">
    <path d="M 437.354886 186.662727 
" clip-path="url(#p49680ff6a8)" style="fill: none; stroke: #696969; stroke-width: 3; stroke-linecap: round"/>
   </g>
   <g id="line2d_69">
    <path d="M 483.005675 186.662727 
" clip-path="url(#p49680ff6a8)" style="fill: none; stroke: #1a1a1a; stroke-width: 3; stroke-linecap: round"/>
   </g>
   <g id="line2d_70">
    <path d="M 483.005675 186.662727 
" clip-path="url(#p49680ff6a8)" style="fill: none; stroke: #1a1a1a; stroke-width: 3; stroke-linecap: round"/>
   </g>
   <g id="patch_3">
    <path d="M 246.98 233.94 
L 246.98 25.92 
" style="fill: none; stroke: #cccccc; stroke-width: 2.5; stroke-linejoin: miter; stroke-linecap: square"/>
   </g>
   <g id="patch_4">
    <path d="M 694.08 233.94 
L 694.08 25.92 
" style="fill: none; stroke: #cccccc; stroke-width: 2.5; stroke-linejoin: miter; stroke-linecap: square"/>
   </g>
   <g id="patch_5">
    <path d="M 246.98 233.94 
L 694.08 233.94 
" style="fill: none; stroke: #cccccc; stroke-width: 2.5; stroke-linejoin: miter; stroke-linecap: square"/>
   </g>
   <g id="patch_6">
    <path d="M 246.98 25.92 
L 694.08 25.92 
" style="fill: none; stroke: #cccccc; stroke-width: 2.5; stroke-linejoin: miter; stroke-linecap: square"/>
   </g>
   <g id="text_8">
    <!-- 0.258 -->
    <g style="fill: #262626" transform="translate(403.001136 45.780136)scale(0.24 -0.24)">
     <defs>
      <path id="DejaVuSans-38" d="M 2034 2216 
Q 1584 2216 1326 1975 
Q 1069 1734 1069 1313 
Q 1069 891 1326 650 
Q 1584 409 2034 409 
Q 2484 409 2743 651 
Q 3003 894 3003 1313 
Q 3003 1734 2745 1975 
Q 2488 2216 2034 2216 
z
M 1403 2484 
Q 997 2584 770 2862 
Q 544 3141 544 3541 
Q 544 4100 942 4425 
Q 1341 4750 2034 4750 
Q 2731 4750 3128 4425 
Q 3525 4100 3525 3541 
Q 3525 3141 3298 2862 
Q 3072 2584 2669 2484 
Q 3125 2378 3379 2068 
Q 3634 1759 3634 1313 
Q 3634 634 3220 271 
Q 2806 -91 2034 -91 
Q 1263 -91 848 271 
Q 434 634 434 1313 
Q 434 1759 690 2068 
Q 947 2378 1403 2484 
z
M 1172 3481 
Q 1172 3119 1398 2916 
Q 1625 2713 2034 2713 
Q 2441 2713 2670 2916 
Q 2900 3119 2900 3481 
Q 2900 3844 2670 4047 
Q 2441 4250 2034 4250 
Q 1625 4250 1398 4047 
Q 1172 3844 1172 3481 
z
" transform="scale(0.015625)"/>
     </defs>
     <use xlink:href="#DejaVuSans-30"/>
     <use xlink:href="#DejaVuSans-2e" x="63.623047"/>
     <use xlink:href="#DejaVuSans-32" x="95.410156"/>
     <use xlink:href="#DejaVuSans-35" x="159.033203"/>
     <use xlink:href="#DejaVuSans-38" x="222.65625"/>
    </g>
   </g>
   <g id="text_9">
    <!-- +0.016  0.011 -->
    <g style="fill: #262626" transform="translate(386.559425 159.245591)scale(0.24 -0.24)">
     <defs>
      <path id="DejaVuSans-2b" d="M 2944 4013 
L 2944 2272 
L 4684 2272 
L 4684 1741 
L 2944 1741 
L 2944 0 
L 2419 0 
L 2419 1741 
L 678 1741 
L 678 2272 
L 2419 2272 
L 2419 4013 
L 2944 4013 
z
" transform="scale(0.015625)"/>
      <path id="DejaVuSans-31" d="M 794 531 
L 1825 531 
L 1825 4091 
L 703 3866 
L 703 4441 
L 1819 4666 
L 2450 4666 
L 2450 531 
L 3481 531 
L 3481 0 
L 794 0 
L 794 531 
z
" transform="scale(0.015625)"/>
      <path id="DejaVuSans-36" d="M 2113 2584 
Q 1688 2584 1439 2293 
Q 1191 2003 1191 1497 
Q 1191 994 1439 701 
Q 1688 409 2113 409 
Q 2538 409 2786 701 
Q 3034 994 3034 1497 
Q 3034 2003 2786 2293 
Q 2538 2584 2113 2584 
z
M 3366 4563 
L 3366 3988 
Q 3128 4100 2886 4159 
Q 2644 4219 2406 4219 
Q 1781 4219 1451 3797 
Q 1122 3375 1075 2522 
Q 1259 2794 1537 2939 
Q 1816 3084 2150 3084 
Q 2853 3084 3261 2657 
Q 3669 2231 3669 1497 
Q 3669 778 3244 343 
Q 2819 -91 2113 -91 
Q 1303 -91 875 529 
Q 447 1150 447 2328 
Q 447 3434 972 4092 
Q 1497 4750 2381 4750 
Q 2619 4750 2861 4703 
Q 3103 4656 3366 4563 
z
" transform="scale(0.015625)"/>
      <path id="DejaVuSans-b1" d="M 2944 4013 
L 2944 2803 
L 4684 2803 
L 4684 2272 
L 2944 2272 
L 2944 1063 
L 2419 1063 
L 2419 2272 
L 678 2272 
L 678 2803 
L 2419 2803 
L 2419 4013 
L 2944 4013 
z
M 678 531 
L 4684 531 
L 4684 0 
L 678 0 
L 678 531 
z
" transform="scale(0.015625)"/>
     </defs>
     <use xlink:href="#DejaVuSans-2b"/>
     <use xlink:href="#DejaVuSans-30" x="83.789062"/>
     <use xlink:href="#DejaVuSans-2e" x="147.412109"/>
     <use xlink:href="#DejaVuSans-30" x="179.199219"/>
     <use xlink:href="#DejaVuSans-31" x="242.822266"/>
     <use xlink:href="#DejaVuSans-36" x="306.445312"/>
     <use xlink:href="#DejaVuSans-20" x="370.068359"/>
     <use xlink:href="#DejaVuSans-b1" x="401.855469"/>
     <use xlink:href="#DejaVuSans-20" x="485.644531"/>
     <use xlink:href="#DejaVuSans-30" x="517.431641"/>
     <use xlink:href="#DejaVuSans-2e" x="581.054688"/>
     <use xlink:href="#DejaVuSans-30" x="612.841797"/>
     <use xlink:href="#DejaVuSans-31" x="676.464844"/>
     <use xlink:href="#DejaVuSans-31" x="740.087891"/>
    </g>
   </g>
  </g>
 </g>
 <defs>
  <clipPath id="p49680ff6a8">
   <rect x="246.98" y="25.92" width="447.1" height="208.02"/>
  </clipPath>
 </defs>
</svg>
