<?xml version="1.0" encoding="utf-8" standalone="no"?>
<!DOCTYPE svg PUBLIC "-//W3C//DTD SVG 1.1//EN"
  "http://www.w3.org/Graphics/SVG/1.1/DTD/svg11.dtd">
<svg xmlns:xlink="http://www.w3.org/1999/xlink" width="720pt" height="324pt" viewBox="0 0 720 324" xmlns="http://www.w3.org/2000/svg" version="1.1">
 <metadata>
  <rdf:RDF xmlns:dc="http://purl.org/dc/elements/1.1/" xmlns:cc="http://creativecommons.org/ns#" xmlns:rdf="http://www.w3.org/1999/02/22-rdf-syntax-ns#">
   <cc:Work>
    <dc:type rdf:resource="http://purl.org/dc/dcmitype/StillImage"/>
    <dc:date>2022-05-25T17:01:46.303542</dc:date>
    <dc:format>image/svg+xml</dc:format>
    <dc:creator>
     <cc:Agent>
      <dc:title>Matplotlib v3.5.1, https://matplotlib.org/</dc:title>
     </cc:Agent>
    </dc:creator>
   </cc:Work>
  </rdf:RDF>
 </metadata>
 <defs>
  <style type="text/css">*{stroke-linejoin: round; stroke-linecap: butt}</style>
 </defs>
 <g id="figure_1">
  <g id="patch_1">
   <path d="M 0 324 
L 720 324 
L 720 0 
L 0 0 
L 0 324 
z
" style="fill: none"/>
  </g>
  <g id="axes_1">
   <g id="patch_2">
    <path d="M 246.98 233.94 
L 694.08 233.94 
L 694.08 25.92 
L 246.98 25.92 
L 246.98 233.94 
z
" style="fill: none"/>
   </g>
   <g id="matplotlib.axis_1">
    <g id="xtick_1">
     <g id="line2d_1">
      <path d="M 274.92375 233.94 
L 274.92375 25.92 
" clip-path="url(#pd2f41eeaca)" style="fill: none; stroke: #cccccc; stroke-width: 2; stroke-linecap: round"/>
     </g>
     <g id="text_1">
      <!-- 0.20 -->
      <g style="fill: #262626" transform="translate(250.431563 266.156563)scale(0.22 -0.22)">
       <defs>
        <path id="DejaVuSans-30" d="M 2034 4250 
Q 1547 4250 1301 3770 
Q 1056 3291 1056 2328 
Q 1056 1369 1301 889 
Q 1547 409 2034 409 
Q 2525 409 2770 889 
Q 3016 1369 3016 2328 
Q 3016 3291 2770 3770 
Q 2525 4250 2034 4250 
z
M 2034 4750 
Q 2819 4750 3233 4129 
Q 3647 3509 3647 2328 
Q 3647 1150 3233 529 
Q 2819 -91 2034 -91 
Q 1250 -91 836 529 
Q 422 1150 422 2328 
Q 422 3509 836 4129 
Q 1250 4750 2034 4750 
z
" transform="scale(0.015625)"/>
        <path id="DejaVuSans-2e" d="M 684 794 
L 1344 794 
L 1344 0 
L 684 0 
L 684 794 
z
" transform="scale(0.015625)"/>
        <path id="DejaVuSans-32" d="M 1228 531 
L 3431 531 
L 3431 0 
L 469 0 
L 469 531 
Q 828 903 1448 1529 
Q 2069 2156 2228 2338 
Q 2531 2678 2651 2914 
Q 2772 3150 2772 3378 
Q 2772 3750 2511 3984 
Q 2250 4219 1831 4219 
Q 1534 4219 1204 4116 
Q 875 4013 500 3803 
L 500 4441 
Q 881 4594 1212 4672 
Q 1544 4750 1819 4750 
Q 2544 4750 2975 4387 
Q 3406 4025 3406 3419 
Q 3406 3131 3298 2873 
Q 3191 2616 2906 2266 
Q 2828 2175 2409 1742 
Q 1991 1309 1228 531 
z
" transform="scale(0.015625)"/>
       </defs>
       <use xlink:href="#DejaVuSans-30"/>
       <use xlink:href="#DejaVuSans-2e" x="63.623047"/>
       <use xlink:href="#DejaVuSans-32" x="95.410156"/>
       <use xlink:href="#DejaVuSans-30" x="159.033203"/>
      </g>
     </g>
    </g>
    <g id="xtick_2">
     <g id="line2d_2">
      <path d="M 414.6425 233.94 
L 414.6425 25.92 
" clip-path="url(#pd2f41eeaca)" style="fill: none; stroke: #cccccc; stroke-width: 2; stroke-linecap: round"/>
     </g>
     <g id="text_2">
      <!-- 0.25 -->
      <g style="fill: #262626" transform="translate(390.150313 266.156563)scale(0.22 -0.22)">
       <defs>
        <path id="DejaVuSans-35" d="M 691 4666 
L 3169 4666 
L 3169 4134 
L 1269 4134 
L 1269 2991 
Q 1406 3038 1543 3061 
Q 1681 3084 1819 3084 
Q 2600 3084 3056 2656 
Q 3513 2228 3513 1497 
Q 3513 744 3044 326 
Q 2575 -91 1722 -91 
Q 1428 -91 1123 -41 
Q 819 9 494 109 
L 494 744 
Q 775 591 1075 516 
Q 1375 441 1709 441 
Q 2250 441 2565 725 
Q 2881 1009 2881 1497 
Q 2881 1984 2565 2268 
Q 2250 2553 1709 2553 
Q 1456 2553 1204 2497 
Q 953 2441 691 2322 
L 691 4666 
z
" transform="scale(0.015625)"/>
       </defs>
       <use xlink:href="#DejaVuSans-30"/>
       <use xlink:href="#DejaVuSans-2e" x="63.623047"/>
       <use xlink:href="#DejaVuSans-32" x="95.410156"/>
       <use xlink:href="#DejaVuSans-35" x="159.033203"/>
      </g>
     </g>
    </g>
    <g id="xtick_3">
     <g id="line2d_3">
      <path d="M 554.36125 233.94 
L 554.36125 25.92 
" clip-path="url(#pd2f41eeaca)" style="fill: none; stroke: #cccccc; stroke-width: 2; stroke-linecap: round"/>
     </g>
     <g id="text_3">
      <!-- 0.30 -->
      <g style="fill: #262626" transform="translate(529.869063 266.156563)scale(0.22 -0.22)">
       <defs>
        <path id="DejaVuSans-33" d="M 2597 2516 
Q 3050 2419 3304 2112 
Q 3559 1806 3559 1356 
Q 3559 666 3084 287 
Q 2609 -91 1734 -91 
Q 1441 -91 1130 -33 
Q 819 25 488 141 
L 488 750 
Q 750 597 1062 519 
Q 1375 441 1716 441 
Q 2309 441 2620 675 
Q 2931 909 2931 1356 
Q 2931 1769 2642 2001 
Q 2353 2234 1838 2234 
L 1294 2234 
L 1294 2753 
L 1863 2753 
Q 2328 2753 2575 2939 
Q 2822 3125 2822 3475 
Q 2822 3834 2567 4026 
Q 2313 4219 1838 4219 
Q 1578 4219 1281 4162 
Q 984 4106 628 3988 
L 628 4550 
Q 988 4650 1302 4700 
Q 1616 4750 1894 4750 
Q 2613 4750 3031 4423 
Q 3450 4097 3450 3541 
Q 3450 3153 3228 2886 
Q 3006 2619 2597 2516 
z
" transform="scale(0.015625)"/>
       </defs>
       <use xlink:href="#DejaVuSans-30"/>
       <use xlink:href="#DejaVuSans-2e" x="63.623047"/>
       <use xlink:href="#DejaVuSans-33" x="95.410156"/>
       <use xlink:href="#DejaVuSans-30" x="159.033203"/>
      </g>
     </g>
    </g>
    <g id="xtick_4">
     <g id="line2d_4">
      <path d="M 694.08 233.94 
L 694.08 25.92 
" clip-path="url(#pd2f41eeaca)" style="fill: none; stroke: #cccccc; stroke-width: 2; stroke-linecap: round"/>
     </g>
     <g id="text_4">
      <!-- 0.35 -->
      <g style="fill: #262626" transform="translate(669.587813 266.156563)scale(0.22 -0.22)">
       <use xlink:href="#DejaVuSans-30"/>
       <use xlink:href="#DejaVuSans-2e" x="63.623047"/>
       <use xlink:href="#DejaVuSans-33" x="95.410156"/>
       <use xlink:href="#DejaVuSans-35" x="159.033203"/>
      </g>
     </g>
    </g>
    <g id="text_5">
     <!-- Pearson correlation -->
     <g style="fill: #262626" transform="translate(354.6625 292.968125)scale(0.24 -0.24)">
      <defs>
       <path id="DejaVuSans-50" d="M 1259 4147 
L 1259 2394 
L 2053 2394 
Q 2494 2394 2734 2622 
Q 2975 2850 2975 3272 
Q 2975 3691 2734 3919 
Q 2494 4147 2053 4147 
L 1259 4147 
z
M 628 4666 
L 2053 4666 
Q 2838 4666 3239 4311 
Q 3641 3956 3641 3272 
Q 3641 2581 3239 2228 
Q 2838 1875 2053 1875 
L 1259 1875 
L 1259 0 
L 628 0 
L 628 4666 
z
" transform="scale(0.015625)"/>
       <path id="DejaVuSans-65" d="M 3597 1894 
L 3597 1613 
L 953 1613 
Q 991 1019 1311 708 
Q 1631 397 2203 397 
Q 2534 397 2845 478 
Q 3156 559 3463 722 
L 3463 178 
Q 3153 47 2828 -22 
Q 2503 -91 2169 -91 
Q 1331 -91 842 396 
Q 353 884 353 1716 
Q 353 2575 817 3079 
Q 1281 3584 2069 3584 
Q 2775 3584 3186 3129 
Q 3597 2675 3597 1894 
z
M 3022 2063 
Q 3016 2534 2758 2815 
Q 2500 3097 2075 3097 
Q 1594 3097 1305 2825 
Q 1016 2553 972 2059 
L 3022 2063 
z
" transform="scale(0.015625)"/>
       <path id="DejaVuSans-61" d="M 2194 1759 
Q 1497 1759 1228 1600 
Q 959 1441 959 1056 
Q 959 750 1161 570 
Q 1363 391 1709 391 
Q 2188 391 2477 730 
Q 2766 1069 2766 1631 
L 2766 1759 
L 2194 1759 
z
M 3341 1997 
L 3341 0 
L 2766 0 
L 2766 531 
Q 2569 213 2275 61 
Q 1981 -91 1556 -91 
Q 1019 -91 701 211 
Q 384 513 384 1019 
Q 384 1609 779 1909 
Q 1175 2209 1959 2209 
L 2766 2209 
L 2766 2266 
Q 2766 2663 2505 2880 
Q 2244 3097 1772 3097 
Q 1472 3097 1187 3025 
Q 903 2953 641 2809 
L 641 3341 
Q 956 3463 1253 3523 
Q 1550 3584 1831 3584 
Q 2591 3584 2966 3190 
Q 3341 2797 3341 1997 
z
" transform="scale(0.015625)"/>
       <path id="DejaVuSans-72" d="M 2631 2963 
Q 2534 3019 2420 3045 
Q 2306 3072 2169 3072 
Q 1681 3072 1420 2755 
Q 1159 2438 1159 1844 
L 1159 0 
L 581 0 
L 581 3500 
L 1159 3500 
L 1159 2956 
Q 1341 3275 1631 3429 
Q 1922 3584 2338 3584 
Q 2397 3584 2469 3576 
Q 2541 3569 2628 3553 
L 2631 2963 
z
" transform="scale(0.015625)"/>
       <path id="DejaVuSans-73" d="M 2834 3397 
L 2834 2853 
Q 2591 2978 2328 3040 
Q 2066 3103 1784 3103 
Q 1356 3103 1142 2972 
Q 928 2841 928 2578 
Q 928 2378 1081 2264 
Q 1234 2150 1697 2047 
L 1894 2003 
Q 2506 1872 2764 1633 
Q 3022 1394 3022 966 
Q 3022 478 2636 193 
Q 2250 -91 1575 -91 
Q 1294 -91 989 -36 
Q 684 19 347 128 
L 347 722 
Q 666 556 975 473 
Q 1284 391 1588 391 
Q 1994 391 2212 530 
Q 2431 669 2431 922 
Q 2431 1156 2273 1281 
Q 2116 1406 1581 1522 
L 1381 1569 
Q 847 1681 609 1914 
Q 372 2147 372 2553 
Q 372 3047 722 3315 
Q 1072 3584 1716 3584 
Q 2034 3584 2315 3537 
Q 2597 3491 2834 3397 
z
" transform="scale(0.015625)"/>
       <path id="DejaVuSans-6f" d="M 1959 3097 
Q 1497 3097 1228 2736 
Q 959 2375 959 1747 
Q 959 1119 1226 758 
Q 1494 397 1959 397 
Q 2419 397 2687 759 
Q 2956 1122 2956 1747 
Q 2956 2369 2687 2733 
Q 2419 3097 1959 3097 
z
M 1959 3584 
Q 2709 3584 3137 3096 
Q 3566 2609 3566 1747 
Q 3566 888 3137 398 
Q 2709 -91 1959 -91 
Q 1206 -91 779 398 
Q 353 888 353 1747 
Q 353 2609 779 3096 
Q 1206 3584 1959 3584 
z
" transform="scale(0.015625)"/>
       <path id="DejaVuSans-6e" d="M 3513 2113 
L 3513 0 
L 2938 0 
L 2938 2094 
Q 2938 2591 2744 2837 
Q 2550 3084 2163 3084 
Q 1697 3084 1428 2787 
Q 1159 2491 1159 1978 
L 1159 0 
L 581 0 
L 581 3500 
L 1159 3500 
L 1159 2956 
Q 1366 3272 1645 3428 
Q 1925 3584 2291 3584 
Q 2894 3584 3203 3211 
Q 3513 2838 3513 2113 
z
" transform="scale(0.015625)"/>
       <path id="DejaVuSans-20" transform="scale(0.015625)"/>
       <path id="DejaVuSans-63" d="M 3122 3366 
L 3122 2828 
Q 2878 2963 2633 3030 
Q 2388 3097 2138 3097 
Q 1578 3097 1268 2742 
Q 959 2388 959 1747 
Q 959 1106 1268 751 
Q 1578 397 2138 397 
Q 2388 397 2633 464 
Q 2878 531 3122 666 
L 3122 134 
Q 2881 22 2623 -34 
Q 2366 -91 2075 -91 
Q 1284 -91 818 406 
Q 353 903 353 1747 
Q 353 2603 823 3093 
Q 1294 3584 2113 3584 
Q 2378 3584 2631 3529 
Q 2884 3475 3122 3366 
z
" transform="scale(0.015625)"/>
       <path id="DejaVuSans-6c" d="M 603 4863 
L 1178 4863 
L 1178 0 
L 603 0 
L 603 4863 
z
" transform="scale(0.015625)"/>
       <path id="DejaVuSans-74" d="M 1172 4494 
L 1172 3500 
L 2356 3500 
L 2356 3053 
L 1172 3053 
L 1172 1153 
Q 1172 725 1289 603 
Q 1406 481 1766 481 
L 2356 481 
L 2356 0 
L 1766 0 
Q 1100 0 847 248 
Q 594 497 594 1153 
L 594 3053 
L 172 3053 
L 172 3500 
L 594 3500 
L 594 4494 
L 1172 4494 
z
" transform="scale(0.015625)"/>
       <path id="DejaVuSans-69" d="M 603 3500 
L 1178 3500 
L 1178 0 
L 603 0 
L 603 3500 
z
M 603 4863 
L 1178 4863 
L 1178 4134 
L 603 4134 
L 603 4863 
z
" transform="scale(0.015625)"/>
      </defs>
      <use xlink:href="#DejaVuSans-50"/>
      <use xlink:href="#DejaVuSans-65" x="56.677734"/>
      <use xlink:href="#DejaVuSans-61" x="118.201172"/>
      <use xlink:href="#DejaVuSans-72" x="179.480469"/>
      <use xlink:href="#DejaVuSans-73" x="220.59375"/>
      <use xlink:href="#DejaVuSans-6f" x="272.693359"/>
      <use xlink:href="#DejaVuSans-6e" x="333.875"/>
      <use xlink:href="#DejaVuSans-20" x="397.253906"/>
      <use xlink:href="#DejaVuSans-63" x="429.041016"/>
      <use xlink:href="#DejaVuSans-6f" x="484.021484"/>
      <use xlink:href="#DejaVuSans-72" x="545.203125"/>
      <use xlink:href="#DejaVuSans-72" x="584.566406"/>
      <use xlink:href="#DejaVuSans-65" x="623.429688"/>
      <use xlink:href="#DejaVuSans-6c" x="684.953125"/>
      <use xlink:href="#DejaVuSans-61" x="712.736328"/>
      <use xlink:href="#DejaVuSans-74" x="774.015625"/>
      <use xlink:href="#DejaVuSans-69" x="813.224609"/>
      <use xlink:href="#DejaVuSans-6f" x="841.007812"/>
      <use xlink:href="#DejaVuSans-6e" x="902.189453"/>
     </g>
    </g>
   </g>
   <g id="matplotlib.axis_2">
    <g id="ytick_1">
     <g id="line2d_5">
      <path d="M 246.98 73.197273 
L 694.08 73.197273 
" clip-path="url(#pd2f41eeaca)" style="fill: none; stroke: #cccccc; stroke-width: 2; stroke-linecap: round"/>
     </g>
     <g id="text_6">
      <!-- baseline -->
      <g style="fill: #262626" transform="translate(139.330938 81.555554)scale(0.22 -0.22)">
       <defs>
        <path id="DejaVuSans-62" d="M 3116 1747 
Q 3116 2381 2855 2742 
Q 2594 3103 2138 3103 
Q 1681 3103 1420 2742 
Q 1159 2381 1159 1747 
Q 1159 1113 1420 752 
Q 1681 391 2138 391 
Q 2594 391 2855 752 
Q 3116 1113 3116 1747 
z
M 1159 2969 
Q 1341 3281 1617 3432 
Q 1894 3584 2278 3584 
Q 2916 3584 3314 3078 
Q 3713 2572 3713 1747 
Q 3713 922 3314 415 
Q 2916 -91 2278 -91 
Q 1894 -91 1617 61 
Q 1341 213 1159 525 
L 1159 0 
L 581 0 
L 581 4863 
L 1159 4863 
L 1159 2969 
z
" transform="scale(0.015625)"/>
       </defs>
       <use xlink:href="#DejaVuSans-62"/>
       <use xlink:href="#DejaVuSans-61" x="63.476562"/>
       <use xlink:href="#DejaVuSans-73" x="124.755859"/>
       <use xlink:href="#DejaVuSans-65" x="176.855469"/>
       <use xlink:href="#DejaVuSans-6c" x="238.378906"/>
       <use xlink:href="#DejaVuSans-69" x="266.162109"/>
       <use xlink:href="#DejaVuSans-6e" x="293.945312"/>
       <use xlink:href="#DejaVuSans-65" x="357.324219"/>
      </g>
     </g>
    </g>
    <g id="ytick_2">
     <g id="line2d_6">
      <path d="M 246.98 186.662727 
L 694.08 186.662727 
" clip-path="url(#pd2f41eeaca)" style="fill: none; stroke: #cccccc; stroke-width: 2; stroke-linecap: round"/>
     </g>
     <g id="text_7">
      <!-- baseline_sigma-15 -->
      <g style="fill: #262626" transform="translate(25.948437 195.021009)scale(0.22 -0.22)">
       <defs>
        <path id="DejaVuSans-5f" d="M 3263 -1063 
L 3263 -1509 
L -63 -1509 
L -63 -1063 
L 3263 -1063 
z
" transform="scale(0.015625)"/>
        <path id="DejaVuSans-67" d="M 2906 1791 
Q 2906 2416 2648 2759 
Q 2391 3103 1925 3103 
Q 1463 3103 1205 2759 
Q 947 2416 947 1791 
Q 947 1169 1205 825 
Q 1463 481 1925 481 
Q 2391 481 2648 825 
Q 2906 1169 2906 1791 
z
M 3481 434 
Q 3481 -459 3084 -895 
Q 2688 -1331 1869 -1331 
Q 1566 -1331 1297 -1286 
Q 1028 -1241 775 -1147 
L 775 -588 
Q 1028 -725 1275 -790 
Q 1522 -856 1778 -856 
Q 2344 -856 2625 -561 
Q 2906 -266 2906 331 
L 2906 616 
Q 2728 306 2450 153 
Q 2172 0 1784 0 
Q 1141 0 747 490 
Q 353 981 353 1791 
Q 353 2603 747 3093 
Q 1141 3584 1784 3584 
Q 2172 3584 2450 3431 
Q 2728 3278 2906 2969 
L 2906 3500 
L 3481 3500 
L 3481 434 
z
" transform="scale(0.015625)"/>
        <path id="DejaVuSans-6d" d="M 3328 2828 
Q 3544 3216 3844 3400 
Q 4144 3584 4550 3584 
Q 5097 3584 5394 3201 
Q 5691 2819 5691 2113 
L 5691 0 
L 5113 0 
L 5113 2094 
Q 5113 2597 4934 2840 
Q 4756 3084 4391 3084 
Q 3944 3084 3684 2787 
Q 3425 2491 3425 1978 
L 3425 0 
L 2847 0 
L 2847 2094 
Q 2847 2600 2669 2842 
Q 2491 3084 2119 3084 
Q 1678 3084 1418 2786 
Q 1159 2488 1159 1978 
L 1159 0 
L 581 0 
L 581 3500 
L 1159 3500 
L 1159 2956 
Q 1356 3278 1631 3431 
Q 1906 3584 2284 3584 
Q 2666 3584 2933 3390 
Q 3200 3197 3328 2828 
z
" transform="scale(0.015625)"/>
        <path id="DejaVuSans-2d" d="M 313 2009 
L 1997 2009 
L 1997 1497 
L 313 1497 
L 313 2009 
z
" transform="scale(0.015625)"/>
        <path id="DejaVuSans-31" d="M 794 531 
L 1825 531 
L 1825 4091 
L 703 3866 
L 703 4441 
L 1819 4666 
L 2450 4666 
L 2450 531 
L 3481 531 
L 3481 0 
L 794 0 
L 794 531 
z
" transform="scale(0.015625)"/>
       </defs>
       <use xlink:href="#DejaVuSans-62"/>
       <use xlink:href="#DejaVuSans-61" x="63.476562"/>
       <use xlink:href="#DejaVuSans-73" x="124.755859"/>
       <use xlink:href="#DejaVuSans-65" x="176.855469"/>
       <use xlink:href="#DejaVuSans-6c" x="238.378906"/>
       <use xlink:href="#DejaVuSans-69" x="266.162109"/>
       <use xlink:href="#DejaVuSans-6e" x="293.945312"/>
       <use xlink:href="#DejaVuSans-65" x="357.324219"/>
       <use xlink:href="#DejaVuSans-5f" x="418.847656"/>
       <use xlink:href="#DejaVuSans-73" x="468.847656"/>
       <use xlink:href="#DejaVuSans-69" x="520.947266"/>
       <use xlink:href="#DejaVuSans-67" x="548.730469"/>
       <use xlink:href="#DejaVuSans-6d" x="612.207031"/>
       <use xlink:href="#DejaVuSans-61" x="709.619141"/>
       <use xlink:href="#DejaVuSans-2d" x="770.898438"/>
       <use xlink:href="#DejaVuSans-31" x="806.982422"/>
       <use xlink:href="#DejaVuSans-35" x="870.605469"/>
      </g>
     </g>
    </g>
   </g>
   <g id="PathCollection_1">
    <defs>
     <path id="C0_0_a907b8d710" d="M 0 5 
C 1.326016 5 2.597899 4.473168 3.535534 3.535534 
C 4.473168 2.597899 5 1.326016 5 -0 
C 5 -1.326016 4.473168 -2.597899 3.535534 -3.535534 
C 2.597899 -4.473168 1.326016 -5 0 -5 
C -1.326016 -5 -2.597899 -4.473168 -3.535534 -3.535534 
C -4.473168 -2.597899 -5 -1.326016 -5 0 
C -5 1.326016 -4.473168 2.597899 -3.535534 3.535534 
C -2.597899 4.473168 -1.326016 5 0 5 
z
"/>
    </defs>
    <g clip-path="url(#pd2f41eeaca)">
     <use xlink:href="#C0_0_a907b8d710" x="513.435319" y="69.261094" style="fill: #4c72b0; fill-opacity: 0.7"/>
    </g>
    <g clip-path="url(#pd2f41eeaca)">
     <use xlink:href="#C0_0_a907b8d710" x="566.531439" y="56.730923" style="fill: #4c72b0; fill-opacity: 0.7"/>
    </g>
    <g clip-path="url(#pd2f41eeaca)">
     <use xlink:href="#C0_0_a907b8d710" x="513.326017" y="61.845408" style="fill: #4c72b0; fill-opacity: 0.7"/>
    </g>
    <g clip-path="url(#pd2f41eeaca)">
     <use xlink:href="#C0_0_a907b8d710" x="486.503272" y="78.090039" style="fill: #4c72b0; fill-opacity: 0.7"/>
    </g>
    <g clip-path="url(#pd2f41eeaca)">
     <use xlink:href="#C0_0_a907b8d710" x="621.435231" y="68.930919" style="fill: #4c72b0; fill-opacity: 0.7"/>
    </g>
    <g clip-path="url(#pd2f41eeaca)">
     <use xlink:href="#C0_0_a907b8d710" x="332.292837" y="68.345936" style="fill: #4c72b0; fill-opacity: 0.7"/>
    </g>
    <g clip-path="url(#pd2f41eeaca)">
     <use xlink:href="#C0_0_a907b8d710" x="628.690039" y="77.799854" style="fill: #4c72b0; fill-opacity: 0.7"/>
    </g>
    <g clip-path="url(#pd2f41eeaca)">
     <use xlink:href="#C0_0_a907b8d710" x="278.066647" y="81.892173" style="fill: #4c72b0; fill-opacity: 0.7"/>
    </g>
    <g clip-path="url(#pd2f41eeaca)">
     <use xlink:href="#C0_0_a907b8d710" x="321.557913" y="65.281586" style="fill: #4c72b0; fill-opacity: 0.7"/>
    </g>
    <g clip-path="url(#pd2f41eeaca)">
     <use xlink:href="#C0_0_a907b8d710" x="412.799004" y="68.034104" style="fill: #4c72b0; fill-opacity: 0.7"/>
    </g>
    <g clip-path="url(#pd2f41eeaca)">
     <use xlink:href="#C0_0_a907b8d710" x="395.111957" y="91.88486" style="fill: #4c72b0; fill-opacity: 0.7"/>
    </g>
    <g clip-path="url(#pd2f41eeaca)">
     <use xlink:href="#C0_0_a907b8d710" x="527.27935" y="62.8182" style="fill: #4c72b0; fill-opacity: 0.7"/>
    </g>
    <g clip-path="url(#pd2f41eeaca)">
     <use xlink:href="#C0_0_a907b8d710" x="437.482912" y="73.351187" style="fill: #4c72b0; fill-opacity: 0.7"/>
    </g>
    <g clip-path="url(#pd2f41eeaca)">
     <use xlink:href="#C0_0_a907b8d710" x="474.260919" y="91.379614" style="fill: #4c72b0; fill-opacity: 0.7"/>
    </g>
    <g clip-path="url(#pd2f41eeaca)">
     <use xlink:href="#C0_0_a907b8d710" x="303.847249" y="80.195465" style="fill: #4c72b0; fill-opacity: 0.7"/>
    </g>
    <g clip-path="url(#pd2f41eeaca)">
     <use xlink:href="#C0_0_a907b8d710" x="567.930619" y="72.449984" style="fill: #4c72b0; fill-opacity: 0.7"/>
    </g>
    <g clip-path="url(#pd2f41eeaca)">
     <use xlink:href="#C0_0_a907b8d710" x="418.462621" y="65.960728" style="fill: #4c72b0; fill-opacity: 0.7"/>
    </g>
    <g clip-path="url(#pd2f41eeaca)">
     <use xlink:href="#C0_0_a907b8d710" x="351.701152" y="49.884834" style="fill: #4c72b0; fill-opacity: 0.7"/>
    </g>
    <g clip-path="url(#pd2f41eeaca)">
     <use xlink:href="#C0_0_a907b8d710" x="481.482421" y="68.265935" style="fill: #4c72b0; fill-opacity: 0.7"/>
    </g>
    <g clip-path="url(#pd2f41eeaca)">
     <use xlink:href="#C0_0_a907b8d710" x="645.793137" y="83.12387" style="fill: #4c72b0; fill-opacity: 0.7"/>
    </g>
    <g clip-path="url(#pd2f41eeaca)">
     <use xlink:href="#C0_0_a907b8d710" x="497.198812" y="93.269211" style="fill: #4c72b0; fill-opacity: 0.7"/>
    </g>
    <g clip-path="url(#pd2f41eeaca)">
     <use xlink:href="#C0_0_a907b8d710" x="582.37188" y="73.463252" style="fill: #4c72b0; fill-opacity: 0.7"/>
    </g>
    <g clip-path="url(#pd2f41eeaca)">
     <use xlink:href="#C0_0_a907b8d710" x="410.363646" y="87.965214" style="fill: #4c72b0; fill-opacity: 0.7"/>
    </g>
    <g clip-path="url(#pd2f41eeaca)">
     <use xlink:href="#C0_0_a907b8d710" x="605.330987" y="60.60389" style="fill: #4c72b0; fill-opacity: 0.7"/>
    </g>
    <g clip-path="url(#pd2f41eeaca)">
     <use xlink:href="#C0_0_a907b8d710" x="307.11166" y="96.741706" style="fill: #4c72b0; fill-opacity: 0.7"/>
    </g>
    <g clip-path="url(#pd2f41eeaca)">
     <use xlink:href="#C0_0_a907b8d710" x="291.164051" y="59.285337" style="fill: #4c72b0; fill-opacity: 0.7"/>
    </g>
    <g clip-path="url(#pd2f41eeaca)">
     <use xlink:href="#C0_0_a907b8d710" x="508.206591" y="81.405833" style="fill: #4c72b0; fill-opacity: 0.7"/>
    </g>
    <g clip-path="url(#pd2f41eeaca)">
     <use xlink:href="#C0_0_a907b8d710" x="592.508587" y="87.914109" style="fill: #4c72b0; fill-opacity: 0.7"/>
    </g>
    <g clip-path="url(#pd2f41eeaca)">
     <use xlink:href="#C0_0_a907b8d710" x="645.753917" y="81.454534" style="fill: #4c72b0; fill-opacity: 0.7"/>
    </g>
    <g clip-path="url(#pd2f41eeaca)">
     <use xlink:href="#C0_0_a907b8d710" x="352.410766" y="76.007264" style="fill: #4c72b0; fill-opacity: 0.7"/>
    </g>
    <g clip-path="url(#pd2f41eeaca)">
     <use xlink:href="#C0_0_a907b8d710" x="675.955369" y="78.359245" style="fill: #4c72b0; fill-opacity: 0.7"/>
    </g>
    <g clip-path="url(#pd2f41eeaca)">
     <use xlink:href="#C0_0_a907b8d710" x="415.448768" y="95.543567" style="fill: #4c72b0; fill-opacity: 0.7"/>
    </g>
    <g clip-path="url(#pd2f41eeaca)">
     <use xlink:href="#C0_0_a907b8d710" x="342.437036" y="72.931317" style="fill: #4c72b0; fill-opacity: 0.7"/>
    </g>
    <g clip-path="url(#pd2f41eeaca)">
     <use xlink:href="#C0_0_a907b8d710" x="489.128302" y="86.246974" style="fill: #4c72b0; fill-opacity: 0.7"/>
    </g>
    <g clip-path="url(#pd2f41eeaca)">
     <use xlink:href="#C0_0_a907b8d710" x="517.278018" y="74.110785" style="fill: #4c72b0; fill-opacity: 0.7"/>
    </g>
    <g clip-path="url(#pd2f41eeaca)">
     <use xlink:href="#C0_0_a907b8d710" x="277.704456" y="78.086751" style="fill: #4c72b0; fill-opacity: 0.7"/>
    </g>
    <g clip-path="url(#pd2f41eeaca)">
     <use xlink:href="#C0_0_a907b8d710" x="566.006829" y="78.892982" style="fill: #4c72b0; fill-opacity: 0.7"/>
    </g>
    <g clip-path="url(#pd2f41eeaca)">
     <use xlink:href="#C0_0_a907b8d710" x="274.776574" y="80.816698" style="fill: #4c72b0; fill-opacity: 0.7"/>
    </g>
    <g clip-path="url(#pd2f41eeaca)">
     <use xlink:href="#C0_0_a907b8d710" x="336.164992" y="55.192244" style="fill: #4c72b0; fill-opacity: 0.7"/>
    </g>
    <g clip-path="url(#pd2f41eeaca)">
     <use xlink:href="#C0_0_a907b8d710" x="377.678964" y="59.289509" style="fill: #4c72b0; fill-opacity: 0.7"/>
    </g>
    <g clip-path="url(#pd2f41eeaca)">
     <use xlink:href="#C0_0_a907b8d710" x="293.179255" y="61.306899" style="fill: #4c72b0; fill-opacity: 0.7"/>
    </g>
    <g clip-path="url(#pd2f41eeaca)">
     <use xlink:href="#C0_0_a907b8d710" x="591.670891" y="63.971767" style="fill: #4c72b0; fill-opacity: 0.7"/>
    </g>
    <g clip-path="url(#pd2f41eeaca)">
     <use xlink:href="#C0_0_a907b8d710" x="371.151923" y="96.467505" style="fill: #4c72b0; fill-opacity: 0.7"/>
    </g>
    <g clip-path="url(#pd2f41eeaca)">
     <use xlink:href="#C0_0_a907b8d710" x="367.791595" y="78.912757" style="fill: #4c72b0; fill-opacity: 0.7"/>
    </g>
    <g clip-path="url(#pd2f41eeaca)">
     <use xlink:href="#C0_0_a907b8d710" x="522.76698" y="71.057629" style="fill: #4c72b0; fill-opacity: 0.7"/>
    </g>
    <g clip-path="url(#pd2f41eeaca)">
     <use xlink:href="#C0_0_a907b8d710" x="335.505111" y="51.354958" style="fill: #4c72b0; fill-opacity: 0.7"/>
    </g>
    <g clip-path="url(#pd2f41eeaca)">
     <use xlink:href="#C0_0_a907b8d710" x="269.905474" y="57.02499" style="fill: #4c72b0; fill-opacity: 0.7"/>
    </g>
    <g clip-path="url(#pd2f41eeaca)">
     <use xlink:href="#C0_0_a907b8d710" x="283.57437" y="73.04813" style="fill: #4c72b0; fill-opacity: 0.7"/>
    </g>
    <g clip-path="url(#pd2f41eeaca)">
     <use xlink:href="#C0_0_a907b8d710" x="376.280816" y="81.459913" style="fill: #4c72b0; fill-opacity: 0.7"/>
    </g>
    <g clip-path="url(#pd2f41eeaca)">
     <use xlink:href="#C0_0_a907b8d710" x="377.429322" y="99.461079" style="fill: #4c72b0; fill-opacity: 0.7"/>
    </g>
    <g clip-path="url(#pd2f41eeaca)">
     <use xlink:href="#C0_0_a907b8d710" x="352.070043" y="57.736081" style="fill: #4c72b0; fill-opacity: 0.7"/>
    </g>
    <g clip-path="url(#pd2f41eeaca)">
     <use xlink:href="#C0_0_a907b8d710" x="490.445247" y="84.184879" style="fill: #4c72b0; fill-opacity: 0.7"/>
    </g>
    <g clip-path="url(#pd2f41eeaca)">
     <use xlink:href="#C0_0_a907b8d710" x="321.695096" y="84.780695" style="fill: #4c72b0; fill-opacity: 0.7"/>
    </g>
    <g clip-path="url(#pd2f41eeaca)">
     <use xlink:href="#C0_0_a907b8d710" x="404.598672" y="69.435938" style="fill: #4c72b0; fill-opacity: 0.7"/>
    </g>
    <g clip-path="url(#pd2f41eeaca)">
     <use xlink:href="#C0_0_a907b8d710" x="353.463691" y="95.22725" style="fill: #4c72b0; fill-opacity: 0.7"/>
    </g>
   </g>
   <g id="PolyCollection_1">
    <defs>
     <path id="mb4b4156804" d="M 269.905474 -227.824728 
L 269.905474 -273.780727 
L 274.006988 -275.0662 
L 278.108502 -276.330813 
L 282.210016 -277.566617 
L 286.31153 -278.765916 
L 290.413044 -279.921347 
L 294.514558 -281.025957 
L 298.616072 -282.073268 
L 302.717586 -283.057324 
L 306.8191 -283.972742 
L 310.920615 -284.814736 
L 315.022129 -285.579152 
L 319.123643 -286.262486 
L 323.225157 -286.8619 
L 327.326671 -287.375238 
L 331.428185 -287.801037 
L 335.529699 -288.138541 
L 339.631213 -288.387711 
L 343.732727 -288.549236 
L 347.834241 -288.624545 
L 351.935756 -288.61581 
L 356.03727 -288.525953 
L 360.138784 -288.358641 
L 364.240298 -288.118281 
L 368.341812 -287.809995 
L 372.443326 -287.439595 
L 376.54484 -287.013536 
L 380.646354 -286.538861 
L 384.747868 -286.023121 
L 388.849382 -285.474292 
L 392.950897 -284.900665 
L 397.052411 -284.310727 
L 401.153925 -283.713024 
L 405.255439 -283.116021 
L 409.356953 -282.527944 
L 413.458467 -281.956625 
L 417.559981 -281.409347 
L 421.661495 -280.892693 
L 425.763009 -280.412403 
L 429.864523 -279.973255 
L 433.966038 -279.578955 
L 438.067552 -279.232063 
L 442.169066 -278.933942 
L 446.27058 -278.684743 
L 450.372094 -278.483416 
L 454.473608 -278.327769 
L 458.575122 -278.214548 
L 462.676636 -278.139554 
L 466.77815 -278.097788 
L 470.879664 -278.08362 
L 474.981178 -278.090966 
L 479.082693 -278.113488 
L 483.184207 -278.144786 
L 487.285721 -278.178587 
L 491.387235 -278.208929 
L 495.488749 -278.230311 
L 499.590263 -278.237833 
L 503.691777 -278.227297 
L 507.793291 -278.195279 
L 511.894805 -278.139162 
L 515.996319 -278.05714 
L 520.097834 -277.948189 
L 524.199348 -277.812002 
L 528.300862 -277.648908 
L 532.402376 -277.459763 
L 536.50389 -277.245833 
L 540.605404 -277.008668 
L 544.706918 -276.749978 
L 548.808432 -276.47151 
L 552.909946 -276.174936 
L 557.01146 -275.861767 
L 561.112975 -275.533268 
L 565.214489 -275.190412 
L 569.316003 -274.833844 
L 573.417517 -274.463875 
L 577.519031 -274.08049 
L 581.620545 -273.68338 
L 585.722059 -273.27199 
L 589.823573 -272.845575 
L 593.925087 -272.40327 
L 598.026601 -271.944162 
L 602.128116 -271.467364 
L 606.22963 -270.972087 
L 610.331144 -270.457709 
L 614.432658 -269.923832 
L 618.534172 -269.370334 
L 622.635686 -268.797407 
L 626.7372 -268.205584 
L 630.838714 -267.595756 
L 634.940228 -266.969174 
L 639.041742 -266.32744 
L 643.143256 -265.67249 
L 647.244771 -265.006563 
L 651.346285 -264.332169 
L 655.447799 -263.652039 
L 659.549313 -262.969084 
L 663.650827 -262.286337 
L 667.752341 -261.606904 
L 671.853855 -260.933904 
L 675.955369 -260.270418 
L 675.955369 -241.335036 
L 675.955369 -241.335036 
L 671.853855 -240.671551 
L 667.752341 -239.998551 
L 663.650827 -239.319117 
L 659.549313 -238.636371 
L 655.447799 -237.953416 
L 651.346285 -237.273286 
L 647.244771 -236.598891 
L 643.143256 -235.932965 
L 639.041742 -235.278015 
L 634.940228 -234.636281 
L 630.838714 -234.009699 
L 626.7372 -233.399871 
L 622.635686 -232.808048 
L 618.534172 -232.23512 
L 614.432658 -231.681622 
L 610.331144 -231.147745 
L 606.22963 -230.633367 
L 602.128116 -230.138091 
L 598.026601 -229.661293 
L 593.925087 -229.202185 
L 589.823573 -228.75988 
L 585.722059 -228.333465 
L 581.620545 -227.922074 
L 577.519031 -227.524965 
L 573.417517 -227.141579 
L 569.316003 -226.77161 
L 565.214489 -226.415043 
L 561.112975 -226.072187 
L 557.01146 -225.743688 
L 552.909946 -225.430518 
L 548.808432 -225.133945 
L 544.706918 -224.855476 
L 540.605404 -224.596786 
L 536.50389 -224.359622 
L 532.402376 -224.145692 
L 528.300862 -223.956546 
L 524.199348 -223.793452 
L 520.097834 -223.657266 
L 515.996319 -223.548315 
L 511.894805 -223.466293 
L 507.793291 -223.410176 
L 503.691777 -223.378157 
L 499.590263 -223.367622 
L 495.488749 -223.375144 
L 491.387235 -223.396526 
L 487.285721 -223.426867 
L 483.184207 -223.460669 
L 479.082693 -223.491966 
L 474.981178 -223.514488 
L 470.879664 -223.521835 
L 466.77815 -223.507666 
L 462.676636 -223.465901 
L 458.575122 -223.390907 
L 454.473608 -223.277686 
L 450.372094 -223.122039 
L 446.27058 -222.920712 
L 442.169066 -222.671512 
L 438.067552 -222.373392 
L 433.966038 -222.0265 
L 429.864523 -221.6322 
L 425.763009 -221.193051 
L 421.661495 -220.712762 
L 417.559981 -220.196107 
L 413.458467 -219.648829 
L 409.356953 -219.07751 
L 405.255439 -218.489433 
L 401.153925 -217.89243 
L 397.052411 -217.294728 
L 392.950897 -216.70479 
L 388.849382 -216.131163 
L 384.747868 -215.582334 
L 380.646354 -215.066594 
L 376.54484 -214.591918 
L 372.443326 -214.16586 
L 368.341812 -213.79546 
L 364.240298 -213.487174 
L 360.138784 -213.246813 
L 356.03727 -213.079502 
L 351.935756 -212.989644 
L 347.834241 -212.980909 
L 343.732727 -213.056218 
L 339.631213 -213.217744 
L 335.529699 -213.466914 
L 331.428185 -213.804418 
L 327.326671 -214.230217 
L 323.225157 -214.743554 
L 319.123643 -215.342969 
L 315.022129 -216.026303 
L 310.920615 -216.790719 
L 306.8191 -217.632713 
L 302.717586 -218.54813 
L 298.616072 -219.532187 
L 294.514558 -220.579497 
L 290.413044 -221.684108 
L 286.31153 -222.839539 
L 282.210016 -224.038837 
L 278.108502 -225.274642 
L 274.006988 -226.539255 
L 269.905474 -227.824728 
z
" style="stroke: #ffffff; stroke-opacity: 0.3; stroke-width: 2"/>
    </defs>
    <g clip-path="url(#pd2f41eeaca)">
     <use xlink:href="#mb4b4156804" x="0" y="324" style="fill: #4c72b0; fill-opacity: 0.3; stroke: #ffffff; stroke-opacity: 0.3; stroke-width: 2"/>
    </g>
   </g>
   <g id="PathCollection_2">
    <defs>
     <path id="C1_0_26557e8ae0" d="M 0 5 
C 1.326016 5 2.597899 4.473168 3.535534 3.535534 
C 4.473168 2.597899 5 1.326016 5 -0 
C 5 -1.326016 4.473168 -2.597899 3.535534 -3.535534 
C 2.597899 -4.473168 1.326016 -5 0 -5 
C -1.326016 -5 -2.597899 -4.473168 -3.535534 -3.535534 
C -4.473168 -2.597899 -5 -1.326016 -5 0 
C -5 1.326016 -4.473168 2.597899 -3.535534 3.535534 
C -2.597899 4.473168 -1.326016 5 0 5 
z
"/>
    </defs>
    <g clip-path="url(#pd2f41eeaca)">
     <use xlink:href="#C1_0_26557e8ae0" x="520.324637" y="185.993419" style="fill: #dd8452; fill-opacity: 0.7"/>
    </g>
    <g clip-path="url(#pd2f41eeaca)">
     <use xlink:href="#C1_0_26557e8ae0" x="547.370176" y="196.515346" style="fill: #dd8452; fill-opacity: 0.7"/>
    </g>
    <g clip-path="url(#pd2f41eeaca)">
     <use xlink:href="#C1_0_26557e8ae0" x="549.100485" y="167.580465" style="fill: #dd8452; fill-opacity: 0.7"/>
    </g>
    <g clip-path="url(#pd2f41eeaca)">
     <use xlink:href="#C1_0_26557e8ae0" x="578.000336" y="176.9899" style="fill: #dd8452; fill-opacity: 0.7"/>
    </g>
    <g clip-path="url(#pd2f41eeaca)">
     <use xlink:href="#C1_0_26557e8ae0" x="595.029745" y="191.64147" style="fill: #dd8452; fill-opacity: 0.7"/>
    </g>
    <g clip-path="url(#pd2f41eeaca)">
     <use xlink:href="#C1_0_26557e8ae0" x="561.860193" y="199.70927" style="fill: #dd8452; fill-opacity: 0.7"/>
    </g>
    <g clip-path="url(#pd2f41eeaca)">
     <use xlink:href="#C1_0_26557e8ae0" x="591.352567" y="174.579325" style="fill: #dd8452; fill-opacity: 0.7"/>
    </g>
    <g clip-path="url(#pd2f41eeaca)">
     <use xlink:href="#C1_0_26557e8ae0" x="533.865192" y="176.237568" style="fill: #dd8452; fill-opacity: 0.7"/>
    </g>
    <g clip-path="url(#pd2f41eeaca)">
     <use xlink:href="#C1_0_26557e8ae0" x="586.503341" y="183.682135" style="fill: #dd8452; fill-opacity: 0.7"/>
    </g>
    <g clip-path="url(#pd2f41eeaca)">
     <use xlink:href="#C1_0_26557e8ae0" x="574.676502" y="191.99555" style="fill: #dd8452; fill-opacity: 0.7"/>
    </g>
    <g clip-path="url(#pd2f41eeaca)">
     <use xlink:href="#C1_0_26557e8ae0" x="441.83095" y="184.956419" style="fill: #dd8452; fill-opacity: 0.7"/>
    </g>
    <g clip-path="url(#pd2f41eeaca)">
     <use xlink:href="#C1_0_26557e8ae0" x="435.843186" y="181.748202" style="fill: #dd8452; fill-opacity: 0.7"/>
    </g>
    <g clip-path="url(#pd2f41eeaca)">
     <use xlink:href="#C1_0_26557e8ae0" x="409.174094" y="185.643856" style="fill: #dd8452; fill-opacity: 0.7"/>
    </g>
    <g clip-path="url(#pd2f41eeaca)">
     <use xlink:href="#C1_0_26557e8ae0" x="446.191367" y="190.144528" style="fill: #dd8452; fill-opacity: 0.7"/>
    </g>
    <g clip-path="url(#pd2f41eeaca)">
     <use xlink:href="#C1_0_26557e8ae0" x="382.04824" y="187.326966" style="fill: #dd8452; fill-opacity: 0.7"/>
    </g>
    <g clip-path="url(#pd2f41eeaca)">
     <use xlink:href="#C1_0_26557e8ae0" x="418.394981" y="181.747933" style="fill: #dd8452; fill-opacity: 0.7"/>
    </g>
    <g clip-path="url(#pd2f41eeaca)">
     <use xlink:href="#C1_0_26557e8ae0" x="488.329276" y="177.892647" style="fill: #dd8452; fill-opacity: 0.7"/>
    </g>
    <g clip-path="url(#pd2f41eeaca)">
     <use xlink:href="#C1_0_26557e8ae0" x="463.783166" y="177.806755" style="fill: #dd8452; fill-opacity: 0.7"/>
    </g>
    <g clip-path="url(#pd2f41eeaca)">
     <use xlink:href="#C1_0_26557e8ae0" x="468.691592" y="189.013009" style="fill: #dd8452; fill-opacity: 0.7"/>
    </g>
    <g clip-path="url(#pd2f41eeaca)">
     <use xlink:href="#C1_0_26557e8ae0" x="490.93739" y="204.742671" style="fill: #dd8452; fill-opacity: 0.7"/>
    </g>
    <g clip-path="url(#pd2f41eeaca)">
     <use xlink:href="#C1_0_26557e8ae0" x="431.347549" y="190.044264" style="fill: #dd8452; fill-opacity: 0.7"/>
    </g>
    <g clip-path="url(#pd2f41eeaca)">
     <use xlink:href="#C1_0_26557e8ae0" x="481.1397" y="184.291902" style="fill: #dd8452; fill-opacity: 0.7"/>
    </g>
    <g clip-path="url(#pd2f41eeaca)">
     <use xlink:href="#C1_0_26557e8ae0" x="488.502296" y="190.627748" style="fill: #dd8452; fill-opacity: 0.7"/>
    </g>
    <g clip-path="url(#pd2f41eeaca)">
     <use xlink:href="#C1_0_26557e8ae0" x="527.810949" y="181.137405" style="fill: #dd8452; fill-opacity: 0.7"/>
    </g>
    <g clip-path="url(#pd2f41eeaca)">
     <use xlink:href="#C1_0_26557e8ae0" x="472.562489" y="177.856552" style="fill: #dd8452; fill-opacity: 0.7"/>
    </g>
    <g clip-path="url(#pd2f41eeaca)">
     <use xlink:href="#C1_0_26557e8ae0" x="517.474307" y="200.260819" style="fill: #dd8452; fill-opacity: 0.7"/>
    </g>
    <g clip-path="url(#pd2f41eeaca)">
     <use xlink:href="#C1_0_26557e8ae0" x="524.521932" y="210.766478" style="fill: #dd8452; fill-opacity: 0.7"/>
    </g>
    <g clip-path="url(#pd2f41eeaca)">
     <use xlink:href="#C1_0_26557e8ae0" x="524.4838" y="171.813364" style="fill: #dd8452; fill-opacity: 0.7"/>
    </g>
    <g clip-path="url(#pd2f41eeaca)">
     <use xlink:href="#C1_0_26557e8ae0" x="572.240158" y="198.274098" style="fill: #dd8452; fill-opacity: 0.7"/>
    </g>
    <g clip-path="url(#pd2f41eeaca)">
     <use xlink:href="#C1_0_26557e8ae0" x="519.190035" y="179.103409" style="fill: #dd8452; fill-opacity: 0.7"/>
    </g>
    <g clip-path="url(#pd2f41eeaca)">
     <use xlink:href="#C1_0_26557e8ae0" x="532.633107" y="195.999904" style="fill: #dd8452; fill-opacity: 0.7"/>
    </g>
    <g clip-path="url(#pd2f41eeaca)">
     <use xlink:href="#C1_0_26557e8ae0" x="606.958089" y="189.901859" style="fill: #dd8452; fill-opacity: 0.7"/>
    </g>
    <g clip-path="url(#pd2f41eeaca)">
     <use xlink:href="#C1_0_26557e8ae0" x="537.765331" y="183.110504" style="fill: #dd8452; fill-opacity: 0.7"/>
    </g>
    <g clip-path="url(#pd2f41eeaca)">
     <use xlink:href="#C1_0_26557e8ae0" x="555.261527" y="166.177185" style="fill: #dd8452; fill-opacity: 0.7"/>
    </g>
    <g clip-path="url(#pd2f41eeaca)">
     <use xlink:href="#C1_0_26557e8ae0" x="566.106411" y="197.48849" style="fill: #dd8452; fill-opacity: 0.7"/>
    </g>
    <g clip-path="url(#pd2f41eeaca)">
     <use xlink:href="#C1_0_26557e8ae0" x="516.551743" y="175.254935" style="fill: #dd8452; fill-opacity: 0.7"/>
    </g>
    <g clip-path="url(#pd2f41eeaca)">
     <use xlink:href="#C1_0_26557e8ae0" x="592.339514" y="175.38486" style="fill: #dd8452; fill-opacity: 0.7"/>
    </g>
    <g clip-path="url(#pd2f41eeaca)">
     <use xlink:href="#C1_0_26557e8ae0" x="536.919016" y="184.869302" style="fill: #dd8452; fill-opacity: 0.7"/>
    </g>
    <g clip-path="url(#pd2f41eeaca)">
     <use xlink:href="#C1_0_26557e8ae0" x="521.829154" y="207.685444" style="fill: #dd8452; fill-opacity: 0.7"/>
    </g>
    <g clip-path="url(#pd2f41eeaca)">
     <use xlink:href="#C1_0_26557e8ae0" x="530.616074" y="192.697932" style="fill: #dd8452; fill-opacity: 0.7"/>
    </g>
    <g clip-path="url(#pd2f41eeaca)">
     <use xlink:href="#C1_0_26557e8ae0" x="514.398633" y="212.155584" style="fill: #dd8452; fill-opacity: 0.7"/>
    </g>
    <g clip-path="url(#pd2f41eeaca)">
     <use xlink:href="#C1_0_26557e8ae0" x="504.502216" y="180.354678" style="fill: #dd8452; fill-opacity: 0.7"/>
    </g>
    <g clip-path="url(#pd2f41eeaca)">
     <use xlink:href="#C1_0_26557e8ae0" x="527.203826" y="202.879451" style="fill: #dd8452; fill-opacity: 0.7"/>
    </g>
    <g clip-path="url(#pd2f41eeaca)">
     <use xlink:href="#C1_0_26557e8ae0" x="498.549825" y="190.843108" style="fill: #dd8452; fill-opacity: 0.7"/>
    </g>
    <g clip-path="url(#pd2f41eeaca)">
     <use xlink:href="#C1_0_26557e8ae0" x="506.023883" y="210.877101" style="fill: #dd8452; fill-opacity: 0.7"/>
    </g>
    <g clip-path="url(#pd2f41eeaca)">
     <use xlink:href="#C1_0_26557e8ae0" x="508.398007" y="174.599672" style="fill: #dd8452; fill-opacity: 0.7"/>
    </g>
    <g clip-path="url(#pd2f41eeaca)">
     <use xlink:href="#C1_0_26557e8ae0" x="512.445344" y="178.839652" style="fill: #dd8452; fill-opacity: 0.7"/>
    </g>
    <g clip-path="url(#pd2f41eeaca)">
     <use xlink:href="#C1_0_26557e8ae0" x="522.509132" y="199.9306" style="fill: #dd8452; fill-opacity: 0.7"/>
    </g>
    <g clip-path="url(#pd2f41eeaca)">
     <use xlink:href="#C1_0_26557e8ae0" x="542.095714" y="205.207505" style="fill: #dd8452; fill-opacity: 0.7"/>
    </g>
    <g clip-path="url(#pd2f41eeaca)">
     <use xlink:href="#C1_0_26557e8ae0" x="506.466012" y="193.774663" style="fill: #dd8452; fill-opacity: 0.7"/>
    </g>
    <g clip-path="url(#pd2f41eeaca)">
     <use xlink:href="#C1_0_26557e8ae0" x="541.598464" y="183.170783" style="fill: #dd8452; fill-opacity: 0.7"/>
    </g>
    <g clip-path="url(#pd2f41eeaca)">
     <use xlink:href="#C1_0_26557e8ae0" x="516.10311" y="191.043761" style="fill: #dd8452; fill-opacity: 0.7"/>
    </g>
    <g clip-path="url(#pd2f41eeaca)">
     <use xlink:href="#C1_0_26557e8ae0" x="573.239206" y="176.853518" style="fill: #dd8452; fill-opacity: 0.7"/>
    </g>
    <g clip-path="url(#pd2f41eeaca)">
     <use xlink:href="#C1_0_26557e8ae0" x="563.313811" y="187.149523" style="fill: #dd8452; fill-opacity: 0.7"/>
    </g>
    <g clip-path="url(#pd2f41eeaca)">
     <use xlink:href="#C1_0_26557e8ae0" x="598.396275" y="193.349061" style="fill: #dd8452; fill-opacity: 0.7"/>
    </g>
   </g>
   <g id="PolyCollection_2">
    <defs>
     <path id="mef3fde0ce6" d="M 382.04824 -134.443265 
L 382.04824 -140.23128 
L 384.320056 -140.459191 
L 386.591873 -140.696713 
L 388.86369 -140.944306 
L 391.135506 -141.202362 
L 393.407323 -141.471141 
L 395.67914 -141.750696 
L 397.950956 -142.040814 
L 400.222773 -142.340966 
L 402.49459 -142.650267 
L 404.766406 -142.967463 
L 407.038223 -143.290942 
L 409.31004 -143.618766 
L 411.581856 -143.948731 
L 413.853673 -144.278451 
L 416.12549 -144.605459 
L 418.397306 -144.927333 
L 420.669123 -145.241823 
L 422.94094 -145.546989 
L 425.212756 -145.841331 
L 427.484573 -146.123913 
L 429.75639 -146.39447 
L 432.028206 -146.653487 
L 434.300023 -146.902253 
L 436.57184 -147.142886 
L 438.843656 -147.37832 
L 441.115473 -147.612263 
L 443.38729 -147.849126 
L 445.659106 -148.09392 
L 447.930923 -148.352147 
L 450.20274 -148.629659 
L 452.474556 -148.932527 
L 454.746373 -149.266898 
L 457.01819 -149.638861 
L 459.290006 -150.054322 
L 461.561823 -150.518877 
L 463.83364 -151.037704 
L 466.105456 -151.615451 
L 468.377273 -152.256125 
L 470.649089 -152.962979 
L 472.920906 -153.738386 
L 475.192723 -154.583699 
L 477.464539 -155.499108 
L 479.736356 -156.483469 
L 482.008173 -157.534145 
L 484.279989 -158.646838 
L 486.551806 -159.815451 
L 488.823623 -161.03197 
L 491.095439 -162.286404 
L 493.367256 -163.566791 
L 495.639073 -164.859274 
L 497.910889 -166.148288 
L 500.182706 -167.416825 
L 502.454523 -168.64681 
L 504.726339 -169.819566 
L 506.998156 -170.916354 
L 509.269973 -171.918966 
L 511.541789 -172.810354 
L 513.813606 -173.575248 
L 516.085423 -174.200741 
L 518.357239 -174.676805 
L 520.629056 -174.996705 
L 522.900873 -175.157281 
L 525.172689 -175.159091 
L 527.444506 -175.006388 
L 529.716323 -174.706946 
L 531.988139 -174.271729 
L 534.259956 -173.714426 
L 536.531773 -173.050876 
L 538.803589 -172.298417 
L 541.075406 -171.475184 
L 543.347223 -170.599405 
L 545.619039 -169.688719 
L 547.890856 -168.759557 
L 550.162673 -167.82661 
L 552.434489 -166.902402 
L 554.706306 -165.996995 
L 556.978123 -165.117811 
L 559.249939 -164.269596 
L 561.521756 -163.454498 
L 563.793573 -162.672253 
L 566.065389 -161.920468 
L 568.337206 -161.194971 
L 570.609023 -160.490212 
L 572.880839 -159.79969 
L 575.152656 -159.116389 
L 577.424472 -158.433202 
L 579.696289 -157.743325 
L 581.968106 -157.04061 
L 584.239922 -156.319864 
L 586.511739 -155.577091 
L 588.783556 -154.809661 
L 591.055372 -154.016416 
L 593.327189 -153.197708 
L 595.599006 -152.355371 
L 597.870822 -151.492627 
L 600.142639 -150.613946 
L 602.414456 -149.724848 
L 604.686272 -148.831684 
L 606.958089 -147.941372 
L 606.958089 -126.733174 
L 606.958089 -126.733174 
L 604.686272 -125.842862 
L 602.414456 -124.949697 
L 600.142639 -124.0606 
L 597.870822 -123.181918 
L 595.599006 -122.319174 
L 593.327189 -121.476837 
L 591.055372 -120.65813 
L 588.783556 -119.864884 
L 586.511739 -119.097454 
L 584.239922 -118.354681 
L 581.968106 -117.633936 
L 579.696289 -116.931221 
L 577.424472 -116.241343 
L 575.152656 -115.558156 
L 572.880839 -114.874855 
L 570.609023 -114.184333 
L 568.337206 -113.479574 
L 566.065389 -112.754078 
L 563.793573 -112.002293 
L 561.521756 -111.220048 
L 559.249939 -110.404949 
L 556.978123 -109.556735 
L 554.706306 -108.677551 
L 552.434489 -107.772143 
L 550.162673 -106.847936 
L 547.890856 -105.914988 
L 545.619039 -104.985827 
L 543.347223 -104.075141 
L 541.075406 -103.199362 
L 538.803589 -102.376129 
L 536.531773 -101.62367 
L 534.259956 -100.96012 
L 531.988139 -100.402816 
L 529.716323 -99.967599 
L 527.444506 -99.668158 
L 525.172689 -99.515455 
L 522.900873 -99.517264 
L 520.629056 -99.67784 
L 518.357239 -99.99774 
L 516.085423 -100.473805 
L 513.813606 -101.099298 
L 511.541789 -101.864191 
L 509.269973 -102.755579 
L 506.998156 -103.758191 
L 504.726339 -104.854979 
L 502.454523 -106.027736 
L 500.182706 -107.257721 
L 497.910889 -108.526257 
L 495.639073 -109.815271 
L 493.367256 -111.107755 
L 491.095439 -112.388141 
L 488.823623 -113.642576 
L 486.551806 -114.859095 
L 484.279989 -116.027707 
L 482.008173 -117.140401 
L 479.736356 -118.191076 
L 477.464539 -119.175437 
L 475.192723 -120.090846 
L 472.920906 -120.93616 
L 470.649089 -121.711566 
L 468.377273 -122.41842 
L 466.105456 -123.059094 
L 463.83364 -123.636841 
L 461.561823 -124.155668 
L 459.290006 -124.620223 
L 457.01819 -125.035684 
L 454.746373 -125.407648 
L 452.474556 -125.742019 
L 450.20274 -126.044886 
L 447.930923 -126.322398 
L 445.659106 -126.580625 
L 443.38729 -126.82542 
L 441.115473 -127.062282 
L 438.843656 -127.296226 
L 436.57184 -127.53166 
L 434.300023 -127.772293 
L 432.028206 -128.021059 
L 429.75639 -128.280075 
L 427.484573 -128.550632 
L 425.212756 -128.833215 
L 422.94094 -129.127557 
L 420.669123 -129.432722 
L 418.397306 -129.747212 
L 416.12549 -130.069086 
L 413.853673 -130.396095 
L 411.581856 -130.725814 
L 409.31004 -131.055779 
L 407.038223 -131.383604 
L 404.766406 -131.707083 
L 402.49459 -132.024279 
L 400.222773 -132.333579 
L 397.950956 -132.633731 
L 395.67914 -132.92385 
L 393.407323 -133.203405 
L 391.135506 -133.472183 
L 388.86369 -133.73024 
L 386.591873 -133.977832 
L 384.320056 -134.215355 
L 382.04824 -134.443265 
z
" style="stroke: #ffffff; stroke-opacity: 0.3; stroke-width: 2"/>
    </defs>
    <g clip-path="url(#pd2f41eeaca)">
     <use xlink:href="#mef3fde0ce6" x="0" y="324" style="fill: #dd8452; fill-opacity: 0.3; stroke: #ffffff; stroke-opacity: 0.3; stroke-width: 2"/>
    </g>
   </g>
   <g id="line2d_7">
    <path d="M 513.435319 69.261094 
L 520.324637 185.993419 
" clip-path="url(#pd2f41eeaca)" style="fill: none; stroke: #000000; stroke-opacity: 0.2; stroke-width: 1.5; stroke-linecap: round"/>
   </g>
   <g id="line2d_8">
    <path d="M 566.531439 56.730923 
L 547.370176 196.515346 
" clip-path="url(#pd2f41eeaca)" style="fill: none; stroke: #000000; stroke-opacity: 0.2; stroke-width: 1.5; stroke-linecap: round"/>
   </g>
   <g id="line2d_9">
    <path d="M 513.326017 61.845408 
L 549.100485 167.580465 
" clip-path="url(#pd2f41eeaca)" style="fill: none; stroke: #000000; stroke-opacity: 0.2; stroke-width: 1.5; stroke-linecap: round"/>
   </g>
   <g id="line2d_10">
    <path d="M 486.503272 78.090039 
L 578.000336 176.9899 
" clip-path="url(#pd2f41eeaca)" style="fill: none; stroke: #000000; stroke-opacity: 0.2; stroke-width: 1.5; stroke-linecap: round"/>
   </g>
   <g id="line2d_11">
    <path d="M 621.435231 68.930919 
L 595.029745 191.64147 
" clip-path="url(#pd2f41eeaca)" style="fill: none; stroke: #000000; stroke-opacity: 0.2; stroke-width: 1.5; stroke-linecap: round"/>
   </g>
   <g id="line2d_12">
    <path d="M 332.292837 68.345936 
L 561.860193 199.70927 
" clip-path="url(#pd2f41eeaca)" style="fill: none; stroke: #000000; stroke-opacity: 0.2; stroke-width: 1.5; stroke-linecap: round"/>
   </g>
   <g id="line2d_13">
    <path d="M 628.690039 77.799854 
L 591.352567 174.579325 
" clip-path="url(#pd2f41eeaca)" style="fill: none; stroke: #000000; stroke-opacity: 0.2; stroke-width: 1.5; stroke-linecap: round"/>
   </g>
   <g id="line2d_14">
    <path d="M 278.066647 81.892173 
L 533.865192 176.237568 
" clip-path="url(#pd2f41eeaca)" style="fill: none; stroke: #000000; stroke-opacity: 0.2; stroke-width: 1.5; stroke-linecap: round"/>
   </g>
   <g id="line2d_15">
    <path d="M 321.557913 65.281586 
L 586.503341 183.682135 
" clip-path="url(#pd2f41eeaca)" style="fill: none; stroke: #000000; stroke-opacity: 0.2; stroke-width: 1.5; stroke-linecap: round"/>
   </g>
   <g id="line2d_16">
    <path d="M 412.799004 68.034104 
L 574.676502 191.99555 
" clip-path="url(#pd2f41eeaca)" style="fill: none; stroke: #000000; stroke-opacity: 0.2; stroke-width: 1.5; stroke-linecap: round"/>
   </g>
   <g id="line2d_17">
    <path d="M 395.111957 91.88486 
L 441.83095 184.956419 
" clip-path="url(#pd2f41eeaca)" style="fill: none; stroke: #000000; stroke-opacity: 0.2; stroke-width: 1.5; stroke-linecap: round"/>
   </g>
   <g id="line2d_18">
    <path d="M 527.27935 62.8182 
L 435.843186 181.748202 
" clip-path="url(#pd2f41eeaca)" style="fill: none; stroke: #000000; stroke-opacity: 0.2; stroke-width: 1.5; stroke-linecap: round"/>
   </g>
   <g id="line2d_19">
    <path d="M 437.482912 73.351187 
L 409.174094 185.643856 
" clip-path="url(#pd2f41eeaca)" style="fill: none; stroke: #000000; stroke-opacity: 0.2; stroke-width: 1.5; stroke-linecap: round"/>
   </g>
   <g id="line2d_20">
    <path d="M 474.260919 91.379614 
L 446.191367 190.144528 
" clip-path="url(#pd2f41eeaca)" style="fill: none; stroke: #000000; stroke-opacity: 0.2; stroke-width: 1.5; stroke-linecap: round"/>
   </g>
   <g id="line2d_21">
    <path d="M 303.847249 80.195465 
L 382.04824 187.326966 
" clip-path="url(#pd2f41eeaca)" style="fill: none; stroke: #000000; stroke-opacity: 0.2; stroke-width: 1.5; stroke-linecap: round"/>
   </g>
   <g id="line2d_22">
    <path d="M 567.930619 72.449984 
L 418.394981 181.747933 
" clip-path="url(#pd2f41eeaca)" style="fill: none; stroke: #000000; stroke-opacity: 0.2; stroke-width: 1.5; stroke-linecap: round"/>
   </g>
   <g id="line2d_23">
    <path d="M 418.462621 65.960728 
L 488.329276 177.892647 
" clip-path="url(#pd2f41eeaca)" style="fill: none; stroke: #000000; stroke-opacity: 0.2; stroke-width: 1.5; stroke-linecap: round"/>
   </g>
   <g id="line2d_24">
    <path d="M 351.701152 49.884834 
L 463.783166 177.806755 
" clip-path="url(#pd2f41eeaca)" style="fill: none; stroke: #000000; stroke-opacity: 0.2; stroke-width: 1.5; stroke-linecap: round"/>
   </g>
   <g id="line2d_25">
    <path d="M 481.482421 68.265935 
L 468.691592 189.013009 
" clip-path="url(#pd2f41eeaca)" style="fill: none; stroke: #000000; stroke-opacity: 0.2; stroke-width: 1.5; stroke-linecap: round"/>
   </g>
   <g id="line2d_26">
    <path d="M 645.793137 83.12387 
L 490.93739 204.742671 
" clip-path="url(#pd2f41eeaca)" style="fill: none; stroke: #000000; stroke-opacity: 0.2; stroke-width: 1.5; stroke-linecap: round"/>
   </g>
   <g id="line2d_27">
    <path d="M 497.198812 93.269211 
L 431.347549 190.044264 
" clip-path="url(#pd2f41eeaca)" style="fill: none; stroke: #000000; stroke-opacity: 0.2; stroke-width: 1.5; stroke-linecap: round"/>
   </g>
   <g id="line2d_28">
    <path d="M 582.37188 73.463252 
L 481.1397 184.291902 
" clip-path="url(#pd2f41eeaca)" style="fill: none; stroke: #000000; stroke-opacity: 0.2; stroke-width: 1.5; stroke-linecap: round"/>
   </g>
   <g id="line2d_29">
    <path d="M 410.363646 87.965214 
L 488.502296 190.627748 
" clip-path="url(#pd2f41eeaca)" style="fill: none; stroke: #000000; stroke-opacity: 0.2; stroke-width: 1.5; stroke-linecap: round"/>
   </g>
   <g id="line2d_30">
    <path d="M 605.330987 60.60389 
L 527.810949 181.137405 
" clip-path="url(#pd2f41eeaca)" style="fill: none; stroke: #000000; stroke-opacity: 0.2; stroke-width: 1.5; stroke-linecap: round"/>
   </g>
   <g id="line2d_31">
    <path d="M 307.11166 96.741706 
L 472.562489 177.856552 
" clip-path="url(#pd2f41eeaca)" style="fill: none; stroke: #000000; stroke-opacity: 0.2; stroke-width: 1.5; stroke-linecap: round"/>
   </g>
   <g id="line2d_32">
    <path d="M 291.164051 59.285337 
L 517.474307 200.260819 
" clip-path="url(#pd2f41eeaca)" style="fill: none; stroke: #000000; stroke-opacity: 0.2; stroke-width: 1.5; stroke-linecap: round"/>
   </g>
   <g id="line2d_33">
    <path d="M 508.206591 81.405833 
L 524.521932 210.766478 
" clip-path="url(#pd2f41eeaca)" style="fill: none; stroke: #000000; stroke-opacity: 0.2; stroke-width: 1.5; stroke-linecap: round"/>
   </g>
   <g id="line2d_34">
    <path d="M 592.508587 87.914109 
L 524.4838 171.813364 
" clip-path="url(#pd2f41eeaca)" style="fill: none; stroke: #000000; stroke-opacity: 0.2; stroke-width: 1.5; stroke-linecap: round"/>
   </g>
   <g id="line2d_35">
    <path d="M 645.753917 81.454534 
L 572.240158 198.274098 
" clip-path="url(#pd2f41eeaca)" style="fill: none; stroke: #000000; stroke-opacity: 0.2; stroke-width: 1.5; stroke-linecap: round"/>
   </g>
   <g id="line2d_36">
    <path d="M 352.410766 76.007264 
L 519.190035 179.103409 
" clip-path="url(#pd2f41eeaca)" style="fill: none; stroke: #000000; stroke-opacity: 0.2; stroke-width: 1.5; stroke-linecap: round"/>
   </g>
   <g id="line2d_37">
    <path d="M 675.955369 78.359245 
L 532.633107 195.999904 
" clip-path="url(#pd2f41eeaca)" style="fill: none; stroke: #000000; stroke-opacity: 0.2; stroke-width: 1.5; stroke-linecap: round"/>
   </g>
   <g id="line2d_38">
    <path d="M 415.448768 95.543567 
L 606.958089 189.901859 
" clip-path="url(#pd2f41eeaca)" style="fill: none; stroke: #000000; stroke-opacity: 0.2; stroke-width: 1.5; stroke-linecap: round"/>
   </g>
   <g id="line2d_39">
    <path d="M 342.437036 72.931317 
L 537.765331 183.110504 
" clip-path="url(#pd2f41eeaca)" style="fill: none; stroke: #000000; stroke-opacity: 0.2; stroke-width: 1.5; stroke-linecap: round"/>
   </g>
   <g id="line2d_40">
    <path d="M 489.128302 86.246974 
L 555.261527 166.177185 
" clip-path="url(#pd2f41eeaca)" style="fill: none; stroke: #000000; stroke-opacity: 0.2; stroke-width: 1.5; stroke-linecap: round"/>
   </g>
   <g id="line2d_41">
    <path d="M 517.278018 74.110785 
L 566.106411 197.48849 
" clip-path="url(#pd2f41eeaca)" style="fill: none; stroke: #000000; stroke-opacity: 0.2; stroke-width: 1.5; stroke-linecap: round"/>
   </g>
   <g id="line2d_42">
    <path d="M 277.704456 78.086751 
L 516.551743 175.254935 
" clip-path="url(#pd2f41eeaca)" style="fill: none; stroke: #000000; stroke-opacity: 0.2; stroke-width: 1.5; stroke-linecap: round"/>
   </g>
   <g id="line2d_43">
    <path d="M 566.006829 78.892982 
L 592.339514 175.38486 
" clip-path="url(#pd2f41eeaca)" style="fill: none; stroke: #000000; stroke-opacity: 0.2; stroke-width: 1.5; stroke-linecap: round"/>
   </g>
   <g id="line2d_44">
    <path d="M 274.776574 80.816698 
L 536.919016 184.869302 
" clip-path="url(#pd2f41eeaca)" style="fill: none; stroke: #000000; stroke-opacity: 0.2; stroke-width: 1.5; stroke-linecap: round"/>
   </g>
   <g id="line2d_45">
    <path d="M 336.164992 55.192244 
L 521.829154 207.685444 
" clip-path="url(#pd2f41eeaca)" style="fill: none; stroke: #000000; stroke-opacity: 0.2; stroke-width: 1.5; stroke-linecap: round"/>
   </g>
   <g id="line2d_46">
    <path d="M 377.678964 59.289509 
L 530.616074 192.697932 
" clip-path="url(#pd2f41eeaca)" style="fill: none; stroke: #000000; stroke-opacity: 0.2; stroke-width: 1.5; stroke-linecap: round"/>
   </g>
   <g id="line2d_47">
    <path d="M 293.179255 61.306899 
L 514.398633 212.155584 
" clip-path="url(#pd2f41eeaca)" style="fill: none; stroke: #000000; stroke-opacity: 0.2; stroke-width: 1.5; stroke-linecap: round"/>
   </g>
   <g id="line2d_48">
    <path d="M 591.670891 63.971767 
L 504.502216 180.354678 
" clip-path="url(#pd2f41eeaca)" style="fill: none; stroke: #000000; stroke-opacity: 0.2; stroke-width: 1.5; stroke-linecap: round"/>
   </g>
   <g id="line2d_49">
    <path d="M 371.151923 96.467505 
L 527.203826 202.879451 
" clip-path="url(#pd2f41eeaca)" style="fill: none; stroke: #000000; stroke-opacity: 0.2; stroke-width: 1.5; stroke-linecap: round"/>
   </g>
   <g id="line2d_50">
    <path d="M 367.791595 78.912757 
L 498.549825 190.843108 
" clip-path="url(#pd2f41eeaca)" style="fill: none; stroke: #000000; stroke-opacity: 0.2; stroke-width: 1.5; stroke-linecap: round"/>
   </g>
   <g id="line2d_51">
    <path d="M 522.76698 71.057629 
L 506.023883 210.877101 
" clip-path="url(#pd2f41eeaca)" style="fill: none; stroke: #000000; stroke-opacity: 0.2; stroke-width: 1.5; stroke-linecap: round"/>
   </g>
   <g id="line2d_52">
    <path d="M 335.505111 51.354958 
L 508.398007 174.599672 
" clip-path="url(#pd2f41eeaca)" style="fill: none; stroke: #000000; stroke-opacity: 0.2; stroke-width: 1.5; stroke-linecap: round"/>
   </g>
   <g id="line2d_53">
    <path d="M 269.905474 57.02499 
L 512.445344 178.839652 
" clip-path="url(#pd2f41eeaca)" style="fill: none; stroke: #000000; stroke-opacity: 0.2; stroke-width: 1.5; stroke-linecap: round"/>
   </g>
   <g id="line2d_54">
    <path d="M 283.57437 73.04813 
L 522.509132 199.9306 
" clip-path="url(#pd2f41eeaca)" style="fill: none; stroke: #000000; stroke-opacity: 0.2; stroke-width: 1.5; stroke-linecap: round"/>
   </g>
   <g id="line2d_55">
    <path d="M 376.280816 81.459913 
L 542.095714 205.207505 
" clip-path="url(#pd2f41eeaca)" style="fill: none; stroke: #000000; stroke-opacity: 0.2; stroke-width: 1.5; stroke-linecap: round"/>
   </g>
   <g id="line2d_56">
    <path d="M 377.429322 99.461079 
L 506.466012 193.774663 
" clip-path="url(#pd2f41eeaca)" style="fill: none; stroke: #000000; stroke-opacity: 0.2; stroke-width: 1.5; stroke-linecap: round"/>
   </g>
   <g id="line2d_57">
    <path d="M 352.070043 57.736081 
L 541.598464 183.170783 
" clip-path="url(#pd2f41eeaca)" style="fill: none; stroke: #000000; stroke-opacity: 0.2; stroke-width: 1.5; stroke-linecap: round"/>
   </g>
   <g id="line2d_58">
    <path d="M 490.445247 84.184879 
L 516.10311 191.043761 
" clip-path="url(#pd2f41eeaca)" style="fill: none; stroke: #000000; stroke-opacity: 0.2; stroke-width: 1.5; stroke-linecap: round"/>
   </g>
   <g id="line2d_59">
    <path d="M 321.695096 84.780695 
L 573.239206 176.853518 
" clip-path="url(#pd2f41eeaca)" style="fill: none; stroke: #000000; stroke-opacity: 0.2; stroke-width: 1.5; stroke-linecap: round"/>
   </g>
   <g id="line2d_60">
    <path d="M 404.598672 69.435938 
L 563.313811 187.149523 
" clip-path="url(#pd2f41eeaca)" style="fill: none; stroke: #000000; stroke-opacity: 0.2; stroke-width: 1.5; stroke-linecap: round"/>
   </g>
   <g id="line2d_61">
    <path d="M 353.463691 95.22725 
L 598.396275 193.349061 
" clip-path="url(#pd2f41eeaca)" style="fill: none; stroke: #000000; stroke-opacity: 0.2; stroke-width: 1.5; stroke-linecap: round"/>
   </g>
   <g id="LineCollection_1">
    <path d="M 437.354886 47.982727 
L 437.354886 98.411818 
" clip-path="url(#pd2f41eeaca)" style="fill: none; stroke: #1a1a1a; stroke-width: 3"/>
   </g>
   <g id="LineCollection_2">
    <path d="M 377.925264 73.197273 
L 496.784509 73.197273 
" clip-path="url(#pd2f41eeaca)" style="fill: none; stroke: #1a1a1a; stroke-width: 2"/>
   </g>
   <g id="line2d_62">
    <defs>
     <path id="m6f510fe75e" d="M 0 5 
L 0 -5 
" style="stroke: #1a1a1a"/>
    </defs>
    <g clip-path="url(#pd2f41eeaca)">
     <use xlink:href="#m6f510fe75e" x="377.925264" y="73.197273" style="fill: #1a1a1a; stroke: #1a1a1a"/>
    </g>
   </g>
   <g id="line2d_63">
    <g clip-path="url(#pd2f41eeaca)">
     <use xlink:href="#m6f510fe75e" x="496.784509" y="73.197273" style="fill: #1a1a1a; stroke: #1a1a1a"/>
    </g>
   </g>
   <g id="LineCollection_3">
    <path d="M 437.354886 161.448182 
L 437.354886 211.877273 
" clip-path="url(#pd2f41eeaca)" style="fill: none; stroke: #696969; stroke-width: 3"/>
   </g>
   <g id="LineCollection_4">
    <path d="M 519.541892 161.448182 
L 519.541892 211.877273 
" clip-path="url(#pd2f41eeaca)" style="fill: none; stroke: #1a1a1a; stroke-width: 3"/>
   </g>
   <g id="LineCollection_5">
    <path d="M 503.702246 186.662727 
L 535.381538 186.662727 
" clip-path="url(#pd2f41eeaca)" style="fill: none; stroke: #1a1a1a; stroke-width: 2"/>
   </g>
   <g id="line2d_64">
    <g clip-path="url(#pd2f41eeaca)">
     <use xlink:href="#m6f510fe75e" x="503.702246" y="186.662727" style="fill: #1a1a1a; stroke: #1a1a1a"/>
    </g>
   </g>
   <g id="line2d_65">
    <g clip-path="url(#pd2f41eeaca)">
     <use xlink:href="#m6f510fe75e" x="535.381538" y="186.662727" style="fill: #1a1a1a; stroke: #1a1a1a"/>
    </g>
   </g>
   <g id="line2d_66">
    <path d="M 437.354886 73.197273 
" clip-path="url(#pd2f41eeaca)" style="fill: none; stroke: #1a1a1a; stroke-width: 3; stroke-linecap: round"/>
   </g>
   <g id="line2d_67">
    <path d="M 437.354886 73.197273 
" clip-path="url(#pd2f41eeaca)" style="fill: none; stroke: #1a1a1a; stroke-width: 3; stroke-linecap: round"/>
   </g>
   <g id="line2d_68">
    <path d="M 437.354886 186.662727 
" clip-path="url(#pd2f41eeaca)" style="fill: none; stroke: #696969; stroke-width: 3; stroke-linecap: round"/>
   </g>
   <g id="line2d_69">
    <path d="M 519.541892 186.662727 
" clip-path="url(#pd2f41eeaca)" style="fill: none; stroke: #1a1a1a; stroke-width: 3; stroke-linecap: round"/>
   </g>
   <g id="line2d_70">
    <path d="M 519.541892 186.662727 
" clip-path="url(#pd2f41eeaca)" style="fill: none; stroke: #1a1a1a; stroke-width: 3; stroke-linecap: round"/>
   </g>
   <g id="patch_3">
    <path d="M 246.98 233.94 
L 246.98 25.92 
" style="fill: none; stroke: #cccccc; stroke-width: 2.5; stroke-linejoin: miter; stroke-linecap: square"/>
   </g>
   <g id="patch_4">
    <path d="M 694.08 233.94 
L 694.08 25.92 
" style="fill: none; stroke: #cccccc; stroke-width: 2.5; stroke-linejoin: miter; stroke-linecap: square"/>
   </g>
   <g id="patch_5">
    <path d="M 246.98 233.94 
L 694.08 233.94 
" style="fill: none; stroke: #cccccc; stroke-width: 2.5; stroke-linejoin: miter; stroke-linecap: square"/>
   </g>
   <g id="patch_6">
    <path d="M 246.98 25.92 
L 694.08 25.92 
" style="fill: none; stroke: #cccccc; stroke-width: 2.5; stroke-linejoin: miter; stroke-linecap: square"/>
   </g>
   <g id="text_8">
    <!-- 0.258 -->
    <g style="fill: #262626" transform="translate(403.001136 45.780136)scale(0.24 -0.24)">
     <defs>
      <path id="DejaVuSans-38" d="M 2034 2216 
Q 1584 2216 1326 1975 
Q 1069 1734 1069 1313 
Q 1069 891 1326 650 
Q 1584 409 2034 409 
Q 2484 409 2743 651 
Q 3003 894 3003 1313 
Q 3003 1734 2745 1975 
Q 2488 2216 2034 2216 
z
M 1403 2484 
Q 997 2584 770 2862 
Q 544 3141 544 3541 
Q 544 4100 942 4425 
Q 1341 4750 2034 4750 
Q 2731 4750 3128 4425 
Q 3525 4100 3525 3541 
Q 3525 3141 3298 2862 
Q 3072 2584 2669 2484 
Q 3125 2378 3379 2068 
Q 3634 1759 3634 1313 
Q 3634 634 3220 271 
Q 2806 -91 2034 -91 
Q 1263 -91 848 271 
Q 434 634 434 1313 
Q 434 1759 690 2068 
Q 947 2378 1403 2484 
z
M 1172 3481 
Q 1172 3119 1398 2916 
Q 1625 2713 2034 2713 
Q 2441 2713 2670 2916 
Q 2900 3119 2900 3481 
Q 2900 3844 2670 4047 
Q 2441 4250 2034 4250 
Q 1625 4250 1398 4047 
Q 1172 3844 1172 3481 
z
" transform="scale(0.015625)"/>
     </defs>
     <use xlink:href="#DejaVuSans-30"/>
     <use xlink:href="#DejaVuSans-2e" x="63.623047"/>
     <use xlink:href="#DejaVuSans-32" x="95.410156"/>
     <use xlink:href="#DejaVuSans-35" x="159.033203"/>
     <use xlink:href="#DejaVuSans-38" x="222.65625"/>
    </g>
   </g>
   <g id="text_9">
    <!-- +0.029  0.011 -->
    <g style="fill: #262626" transform="translate(423.095642 159.245591)scale(0.24 -0.24)">
     <defs>
      <path id="DejaVuSans-2b" d="M 2944 4013 
L 2944 2272 
L 4684 2272 
L 4684 1741 
L 2944 1741 
L 2944 0 
L 2419 0 
L 2419 1741 
L 678 1741 
L 678 2272 
L 2419 2272 
L 2419 4013 
L 2944 4013 
z
" transform="scale(0.015625)"/>
      <path id="DejaVuSans-39" d="M 703 97 
L 703 672 
Q 941 559 1184 500 
Q 1428 441 1663 441 
Q 2288 441 2617 861 
Q 2947 1281 2994 2138 
Q 2813 1869 2534 1725 
Q 2256 1581 1919 1581 
Q 1219 1581 811 2004 
Q 403 2428 403 3163 
Q 403 3881 828 4315 
Q 1253 4750 1959 4750 
Q 2769 4750 3195 4129 
Q 3622 3509 3622 2328 
Q 3622 1225 3098 567 
Q 2575 -91 1691 -91 
Q 1453 -91 1209 -44 
Q 966 3 703 97 
z
M 1959 2075 
Q 2384 2075 2632 2365 
Q 2881 2656 2881 3163 
Q 2881 3666 2632 3958 
Q 2384 4250 1959 4250 
Q 1534 4250 1286 3958 
Q 1038 3666 1038 3163 
Q 1038 2656 1286 2365 
Q 1534 2075 1959 2075 
z
" transform="scale(0.015625)"/>
      <path id="DejaVuSans-b1" d="M 2944 4013 
L 2944 2803 
L 4684 2803 
L 4684 2272 
L 2944 2272 
L 2944 1063 
L 2419 1063 
L 2419 2272 
L 678 2272 
L 678 2803 
L 2419 2803 
L 2419 4013 
L 2944 4013 
z
M 678 531 
L 4684 531 
L 4684 0 
L 678 0 
L 678 531 
z
" transform="scale(0.015625)"/>
     </defs>
     <use xlink:href="#DejaVuSans-2b"/>
     <use xlink:href="#DejaVuSans-30" x="83.789062"/>
     <use xlink:href="#DejaVuSans-2e" x="147.412109"/>
     <use xlink:href="#DejaVuSans-30" x="179.199219"/>
     <use xlink:href="#DejaVuSans-32" x="242.822266"/>
     <use xlink:href="#DejaVuSans-39" x="306.445312"/>
     <use xlink:href="#DejaVuSans-20" x="370.068359"/>
     <use xlink:href="#DejaVuSans-b1" x="401.855469"/>
     <use xlink:href="#DejaVuSans-20" x="485.644531"/>
     <use xlink:href="#DejaVuSans-30" x="517.431641"/>
     <use xlink:href="#DejaVuSans-2e" x="581.054688"/>
     <use xlink:href="#DejaVuSans-30" x="612.841797"/>
     <use xlink:href="#DejaVuSans-31" x="676.464844"/>
     <use xlink:href="#DejaVuSans-31" x="740.087891"/>
    </g>
   </g>
  </g>
 </g>
 <defs>
  <clipPath id="pd2f41eeaca">
   <rect x="246.98" y="25.92" width="447.1" height="208.02"/>
  </clipPath>
 </defs>
</svg>
