<?xml version="1.0" encoding="utf-8" standalone="no"?>
<!DOCTYPE svg PUBLIC "-//W3C//DTD SVG 1.1//EN"
  "http://www.w3.org/Graphics/SVG/1.1/DTD/svg11.dtd">
<svg xmlns:xlink="http://www.w3.org/1999/xlink" width="720pt" height="324pt" viewBox="0 0 720 324" xmlns="http://www.w3.org/2000/svg" version="1.1">
 <metadata>
  <rdf:RDF xmlns:dc="http://purl.org/dc/elements/1.1/" xmlns:cc="http://creativecommons.org/ns#" xmlns:rdf="http://www.w3.org/1999/02/22-rdf-syntax-ns#">
   <cc:Work>
    <dc:type rdf:resource="http://purl.org/dc/dcmitype/StillImage"/>
    <dc:date>2022-05-16T15:48:49.194900</dc:date>
    <dc:format>image/svg+xml</dc:format>
    <dc:creator>
     <cc:Agent>
      <dc:title>Matplotlib v3.5.1, https://matplotlib.org/</dc:title>
     </cc:Agent>
    </dc:creator>
   </cc:Work>
  </rdf:RDF>
 </metadata>
 <defs>
  <style type="text/css">*{stroke-linejoin: round; stroke-linecap: butt}</style>
 </defs>
 <g id="figure_1">
  <g id="patch_1">
   <path d="M 0 324 
L 720 324 
L 720 0 
L 0 0 
L 0 324 
z
" style="fill: none"/>
  </g>
  <g id="axes_1">
   <g id="patch_2">
    <path d="M 133.49 233.94 
L 694.08 233.94 
L 694.08 25.92 
L 133.49 25.92 
L 133.49 233.94 
z
" style="fill: none"/>
   </g>
   <g id="matplotlib.axis_1">
    <g id="xtick_1">
     <g id="line2d_1">
      <path d="M 168.526875 233.94 
L 168.526875 25.92 
" clip-path="url(#pd35344dee5)" style="fill: none; stroke: #cccccc; stroke-width: 2; stroke-linecap: round"/>
     </g>
     <g id="text_1">
      <!-- 0.20 -->
      <g style="fill: #262626" transform="translate(144.034687 266.156563)scale(0.22 -0.22)">
       <defs>
        <path id="DejaVuSans-30" d="M 2034 4250 
Q 1547 4250 1301 3770 
Q 1056 3291 1056 2328 
Q 1056 1369 1301 889 
Q 1547 409 2034 409 
Q 2525 409 2770 889 
Q 3016 1369 3016 2328 
Q 3016 3291 2770 3770 
Q 2525 4250 2034 4250 
z
M 2034 4750 
Q 2819 4750 3233 4129 
Q 3647 3509 3647 2328 
Q 3647 1150 3233 529 
Q 2819 -91 2034 -91 
Q 1250 -91 836 529 
Q 422 1150 422 2328 
Q 422 3509 836 4129 
Q 1250 4750 2034 4750 
z
" transform="scale(0.015625)"/>
        <path id="DejaVuSans-2e" d="M 684 794 
L 1344 794 
L 1344 0 
L 684 0 
L 684 794 
z
" transform="scale(0.015625)"/>
        <path id="DejaVuSans-32" d="M 1228 531 
L 3431 531 
L 3431 0 
L 469 0 
L 469 531 
Q 828 903 1448 1529 
Q 2069 2156 2228 2338 
Q 2531 2678 2651 2914 
Q 2772 3150 2772 3378 
Q 2772 3750 2511 3984 
Q 2250 4219 1831 4219 
Q 1534 4219 1204 4116 
Q 875 4013 500 3803 
L 500 4441 
Q 881 4594 1212 4672 
Q 1544 4750 1819 4750 
Q 2544 4750 2975 4387 
Q 3406 4025 3406 3419 
Q 3406 3131 3298 2873 
Q 3191 2616 2906 2266 
Q 2828 2175 2409 1742 
Q 1991 1309 1228 531 
z
" transform="scale(0.015625)"/>
       </defs>
       <use xlink:href="#DejaVuSans-30"/>
       <use xlink:href="#DejaVuSans-2e" x="63.623047"/>
       <use xlink:href="#DejaVuSans-32" x="95.410156"/>
       <use xlink:href="#DejaVuSans-30" x="159.033203"/>
      </g>
     </g>
    </g>
    <g id="xtick_2">
     <g id="line2d_2">
      <path d="M 238.600625 233.94 
L 238.600625 25.92 
" clip-path="url(#pd35344dee5)" style="fill: none; stroke: #cccccc; stroke-width: 2; stroke-linecap: round"/>
     </g>
     <g id="text_2">
      <!-- 0.22 -->
      <g style="fill: #262626" transform="translate(214.108437 266.156563)scale(0.22 -0.22)">
       <use xlink:href="#DejaVuSans-30"/>
       <use xlink:href="#DejaVuSans-2e" x="63.623047"/>
       <use xlink:href="#DejaVuSans-32" x="95.410156"/>
       <use xlink:href="#DejaVuSans-32" x="159.033203"/>
      </g>
     </g>
    </g>
    <g id="xtick_3">
     <g id="line2d_3">
      <path d="M 308.674375 233.94 
L 308.674375 25.92 
" clip-path="url(#pd35344dee5)" style="fill: none; stroke: #cccccc; stroke-width: 2; stroke-linecap: round"/>
     </g>
     <g id="text_3">
      <!-- 0.24 -->
      <g style="fill: #262626" transform="translate(284.182187 266.156563)scale(0.22 -0.22)">
       <defs>
        <path id="DejaVuSans-34" d="M 2419 4116 
L 825 1625 
L 2419 1625 
L 2419 4116 
z
M 2253 4666 
L 3047 4666 
L 3047 1625 
L 3713 1625 
L 3713 1100 
L 3047 1100 
L 3047 0 
L 2419 0 
L 2419 1100 
L 313 1100 
L 313 1709 
L 2253 4666 
z
" transform="scale(0.015625)"/>
       </defs>
       <use xlink:href="#DejaVuSans-30"/>
       <use xlink:href="#DejaVuSans-2e" x="63.623047"/>
       <use xlink:href="#DejaVuSans-32" x="95.410156"/>
       <use xlink:href="#DejaVuSans-34" x="159.033203"/>
      </g>
     </g>
    </g>
    <g id="xtick_4">
     <g id="line2d_4">
      <path d="M 378.748125 233.94 
L 378.748125 25.92 
" clip-path="url(#pd35344dee5)" style="fill: none; stroke: #cccccc; stroke-width: 2; stroke-linecap: round"/>
     </g>
     <g id="text_4">
      <!-- 0.26 -->
      <g style="fill: #262626" transform="translate(354.255937 266.156563)scale(0.22 -0.22)">
       <defs>
        <path id="DejaVuSans-36" d="M 2113 2584 
Q 1688 2584 1439 2293 
Q 1191 2003 1191 1497 
Q 1191 994 1439 701 
Q 1688 409 2113 409 
Q 2538 409 2786 701 
Q 3034 994 3034 1497 
Q 3034 2003 2786 2293 
Q 2538 2584 2113 2584 
z
M 3366 4563 
L 3366 3988 
Q 3128 4100 2886 4159 
Q 2644 4219 2406 4219 
Q 1781 4219 1451 3797 
Q 1122 3375 1075 2522 
Q 1259 2794 1537 2939 
Q 1816 3084 2150 3084 
Q 2853 3084 3261 2657 
Q 3669 2231 3669 1497 
Q 3669 778 3244 343 
Q 2819 -91 2113 -91 
Q 1303 -91 875 529 
Q 447 1150 447 2328 
Q 447 3434 972 4092 
Q 1497 4750 2381 4750 
Q 2619 4750 2861 4703 
Q 3103 4656 3366 4563 
z
" transform="scale(0.015625)"/>
       </defs>
       <use xlink:href="#DejaVuSans-30"/>
       <use xlink:href="#DejaVuSans-2e" x="63.623047"/>
       <use xlink:href="#DejaVuSans-32" x="95.410156"/>
       <use xlink:href="#DejaVuSans-36" x="159.033203"/>
      </g>
     </g>
    </g>
    <g id="xtick_5">
     <g id="line2d_5">
      <path d="M 448.821875 233.94 
L 448.821875 25.92 
" clip-path="url(#pd35344dee5)" style="fill: none; stroke: #cccccc; stroke-width: 2; stroke-linecap: round"/>
     </g>
     <g id="text_5">
      <!-- 0.28 -->
      <g style="fill: #262626" transform="translate(424.329688 266.156563)scale(0.22 -0.22)">
       <defs>
        <path id="DejaVuSans-38" d="M 2034 2216 
Q 1584 2216 1326 1975 
Q 1069 1734 1069 1313 
Q 1069 891 1326 650 
Q 1584 409 2034 409 
Q 2484 409 2743 651 
Q 3003 894 3003 1313 
Q 3003 1734 2745 1975 
Q 2488 2216 2034 2216 
z
M 1403 2484 
Q 997 2584 770 2862 
Q 544 3141 544 3541 
Q 544 4100 942 4425 
Q 1341 4750 2034 4750 
Q 2731 4750 3128 4425 
Q 3525 4100 3525 3541 
Q 3525 3141 3298 2862 
Q 3072 2584 2669 2484 
Q 3125 2378 3379 2068 
Q 3634 1759 3634 1313 
Q 3634 634 3220 271 
Q 2806 -91 2034 -91 
Q 1263 -91 848 271 
Q 434 634 434 1313 
Q 434 1759 690 2068 
Q 947 2378 1403 2484 
z
M 1172 3481 
Q 1172 3119 1398 2916 
Q 1625 2713 2034 2713 
Q 2441 2713 2670 2916 
Q 2900 3119 2900 3481 
Q 2900 3844 2670 4047 
Q 2441 4250 2034 4250 
Q 1625 4250 1398 4047 
Q 1172 3844 1172 3481 
z
" transform="scale(0.015625)"/>
       </defs>
       <use xlink:href="#DejaVuSans-30"/>
       <use xlink:href="#DejaVuSans-2e" x="63.623047"/>
       <use xlink:href="#DejaVuSans-32" x="95.410156"/>
       <use xlink:href="#DejaVuSans-38" x="159.033203"/>
      </g>
     </g>
    </g>
    <g id="xtick_6">
     <g id="line2d_6">
      <path d="M 518.895625 233.94 
L 518.895625 25.92 
" clip-path="url(#pd35344dee5)" style="fill: none; stroke: #cccccc; stroke-width: 2; stroke-linecap: round"/>
     </g>
     <g id="text_6">
      <!-- 0.30 -->
      <g style="fill: #262626" transform="translate(494.403437 266.156563)scale(0.22 -0.22)">
       <defs>
        <path id="DejaVuSans-33" d="M 2597 2516 
Q 3050 2419 3304 2112 
Q 3559 1806 3559 1356 
Q 3559 666 3084 287 
Q 2609 -91 1734 -91 
Q 1441 -91 1130 -33 
Q 819 25 488 141 
L 488 750 
Q 750 597 1062 519 
Q 1375 441 1716 441 
Q 2309 441 2620 675 
Q 2931 909 2931 1356 
Q 2931 1769 2642 2001 
Q 2353 2234 1838 2234 
L 1294 2234 
L 1294 2753 
L 1863 2753 
Q 2328 2753 2575 2939 
Q 2822 3125 2822 3475 
Q 2822 3834 2567 4026 
Q 2313 4219 1838 4219 
Q 1578 4219 1281 4162 
Q 984 4106 628 3988 
L 628 4550 
Q 988 4650 1302 4700 
Q 1616 4750 1894 4750 
Q 2613 4750 3031 4423 
Q 3450 4097 3450 3541 
Q 3450 3153 3228 2886 
Q 3006 2619 2597 2516 
z
" transform="scale(0.015625)"/>
       </defs>
       <use xlink:href="#DejaVuSans-30"/>
       <use xlink:href="#DejaVuSans-2e" x="63.623047"/>
       <use xlink:href="#DejaVuSans-33" x="95.410156"/>
       <use xlink:href="#DejaVuSans-30" x="159.033203"/>
      </g>
     </g>
    </g>
    <g id="xtick_7">
     <g id="line2d_7">
      <path d="M 588.969375 233.94 
L 588.969375 25.92 
" clip-path="url(#pd35344dee5)" style="fill: none; stroke: #cccccc; stroke-width: 2; stroke-linecap: round"/>
     </g>
     <g id="text_7">
      <!-- 0.32 -->
      <g style="fill: #262626" transform="translate(564.477188 266.156563)scale(0.22 -0.22)">
       <use xlink:href="#DejaVuSans-30"/>
       <use xlink:href="#DejaVuSans-2e" x="63.623047"/>
       <use xlink:href="#DejaVuSans-33" x="95.410156"/>
       <use xlink:href="#DejaVuSans-32" x="159.033203"/>
      </g>
     </g>
    </g>
    <g id="xtick_8">
     <g id="line2d_8">
      <path d="M 659.043125 233.94 
L 659.043125 25.92 
" clip-path="url(#pd35344dee5)" style="fill: none; stroke: #cccccc; stroke-width: 2; stroke-linecap: round"/>
     </g>
     <g id="text_8">
      <!-- 0.34 -->
      <g style="fill: #262626" transform="translate(634.550937 266.156563)scale(0.22 -0.22)">
       <use xlink:href="#DejaVuSans-30"/>
       <use xlink:href="#DejaVuSans-2e" x="63.623047"/>
       <use xlink:href="#DejaVuSans-33" x="95.410156"/>
       <use xlink:href="#DejaVuSans-34" x="159.033203"/>
      </g>
     </g>
    </g>
    <g id="text_9">
     <!-- Pearson correlation -->
     <g style="fill: #262626" transform="translate(297.9175 292.968125)scale(0.24 -0.24)">
      <defs>
       <path id="DejaVuSans-50" d="M 1259 4147 
L 1259 2394 
L 2053 2394 
Q 2494 2394 2734 2622 
Q 2975 2850 2975 3272 
Q 2975 3691 2734 3919 
Q 2494 4147 2053 4147 
L 1259 4147 
z
M 628 4666 
L 2053 4666 
Q 2838 4666 3239 4311 
Q 3641 3956 3641 3272 
Q 3641 2581 3239 2228 
Q 2838 1875 2053 1875 
L 1259 1875 
L 1259 0 
L 628 0 
L 628 4666 
z
" transform="scale(0.015625)"/>
       <path id="DejaVuSans-65" d="M 3597 1894 
L 3597 1613 
L 953 1613 
Q 991 1019 1311 708 
Q 1631 397 2203 397 
Q 2534 397 2845 478 
Q 3156 559 3463 722 
L 3463 178 
Q 3153 47 2828 -22 
Q 2503 -91 2169 -91 
Q 1331 -91 842 396 
Q 353 884 353 1716 
Q 353 2575 817 3079 
Q 1281 3584 2069 3584 
Q 2775 3584 3186 3129 
Q 3597 2675 3597 1894 
z
M 3022 2063 
Q 3016 2534 2758 2815 
Q 2500 3097 2075 3097 
Q 1594 3097 1305 2825 
Q 1016 2553 972 2059 
L 3022 2063 
z
" transform="scale(0.015625)"/>
       <path id="DejaVuSans-61" d="M 2194 1759 
Q 1497 1759 1228 1600 
Q 959 1441 959 1056 
Q 959 750 1161 570 
Q 1363 391 1709 391 
Q 2188 391 2477 730 
Q 2766 1069 2766 1631 
L 2766 1759 
L 2194 1759 
z
M 3341 1997 
L 3341 0 
L 2766 0 
L 2766 531 
Q 2569 213 2275 61 
Q 1981 -91 1556 -91 
Q 1019 -91 701 211 
Q 384 513 384 1019 
Q 384 1609 779 1909 
Q 1175 2209 1959 2209 
L 2766 2209 
L 2766 2266 
Q 2766 2663 2505 2880 
Q 2244 3097 1772 3097 
Q 1472 3097 1187 3025 
Q 903 2953 641 2809 
L 641 3341 
Q 956 3463 1253 3523 
Q 1550 3584 1831 3584 
Q 2591 3584 2966 3190 
Q 3341 2797 3341 1997 
z
" transform="scale(0.015625)"/>
       <path id="DejaVuSans-72" d="M 2631 2963 
Q 2534 3019 2420 3045 
Q 2306 3072 2169 3072 
Q 1681 3072 1420 2755 
Q 1159 2438 1159 1844 
L 1159 0 
L 581 0 
L 581 3500 
L 1159 3500 
L 1159 2956 
Q 1341 3275 1631 3429 
Q 1922 3584 2338 3584 
Q 2397 3584 2469 3576 
Q 2541 3569 2628 3553 
L 2631 2963 
z
" transform="scale(0.015625)"/>
       <path id="DejaVuSans-73" d="M 2834 3397 
L 2834 2853 
Q 2591 2978 2328 3040 
Q 2066 3103 1784 3103 
Q 1356 3103 1142 2972 
Q 928 2841 928 2578 
Q 928 2378 1081 2264 
Q 1234 2150 1697 2047 
L 1894 2003 
Q 2506 1872 2764 1633 
Q 3022 1394 3022 966 
Q 3022 478 2636 193 
Q 2250 -91 1575 -91 
Q 1294 -91 989 -36 
Q 684 19 347 128 
L 347 722 
Q 666 556 975 473 
Q 1284 391 1588 391 
Q 1994 391 2212 530 
Q 2431 669 2431 922 
Q 2431 1156 2273 1281 
Q 2116 1406 1581 1522 
L 1381 1569 
Q 847 1681 609 1914 
Q 372 2147 372 2553 
Q 372 3047 722 3315 
Q 1072 3584 1716 3584 
Q 2034 3584 2315 3537 
Q 2597 3491 2834 3397 
z
" transform="scale(0.015625)"/>
       <path id="DejaVuSans-6f" d="M 1959 3097 
Q 1497 3097 1228 2736 
Q 959 2375 959 1747 
Q 959 1119 1226 758 
Q 1494 397 1959 397 
Q 2419 397 2687 759 
Q 2956 1122 2956 1747 
Q 2956 2369 2687 2733 
Q 2419 3097 1959 3097 
z
M 1959 3584 
Q 2709 3584 3137 3096 
Q 3566 2609 3566 1747 
Q 3566 888 3137 398 
Q 2709 -91 1959 -91 
Q 1206 -91 779 398 
Q 353 888 353 1747 
Q 353 2609 779 3096 
Q 1206 3584 1959 3584 
z
" transform="scale(0.015625)"/>
       <path id="DejaVuSans-6e" d="M 3513 2113 
L 3513 0 
L 2938 0 
L 2938 2094 
Q 2938 2591 2744 2837 
Q 2550 3084 2163 3084 
Q 1697 3084 1428 2787 
Q 1159 2491 1159 1978 
L 1159 0 
L 581 0 
L 581 3500 
L 1159 3500 
L 1159 2956 
Q 1366 3272 1645 3428 
Q 1925 3584 2291 3584 
Q 2894 3584 3203 3211 
Q 3513 2838 3513 2113 
z
" transform="scale(0.015625)"/>
       <path id="DejaVuSans-20" transform="scale(0.015625)"/>
       <path id="DejaVuSans-63" d="M 3122 3366 
L 3122 2828 
Q 2878 2963 2633 3030 
Q 2388 3097 2138 3097 
Q 1578 3097 1268 2742 
Q 959 2388 959 1747 
Q 959 1106 1268 751 
Q 1578 397 2138 397 
Q 2388 397 2633 464 
Q 2878 531 3122 666 
L 3122 134 
Q 2881 22 2623 -34 
Q 2366 -91 2075 -91 
Q 1284 -91 818 406 
Q 353 903 353 1747 
Q 353 2603 823 3093 
Q 1294 3584 2113 3584 
Q 2378 3584 2631 3529 
Q 2884 3475 3122 3366 
z
" transform="scale(0.015625)"/>
       <path id="DejaVuSans-6c" d="M 603 4863 
L 1178 4863 
L 1178 0 
L 603 0 
L 603 4863 
z
" transform="scale(0.015625)"/>
       <path id="DejaVuSans-74" d="M 1172 4494 
L 1172 3500 
L 2356 3500 
L 2356 3053 
L 1172 3053 
L 1172 1153 
Q 1172 725 1289 603 
Q 1406 481 1766 481 
L 2356 481 
L 2356 0 
L 1766 0 
Q 1100 0 847 248 
Q 594 497 594 1153 
L 594 3053 
L 172 3053 
L 172 3500 
L 594 3500 
L 594 4494 
L 1172 4494 
z
" transform="scale(0.015625)"/>
       <path id="DejaVuSans-69" d="M 603 3500 
L 1178 3500 
L 1178 0 
L 603 0 
L 603 3500 
z
M 603 4863 
L 1178 4863 
L 1178 4134 
L 603 4134 
L 603 4863 
z
" transform="scale(0.015625)"/>
      </defs>
      <use xlink:href="#DejaVuSans-50"/>
      <use xlink:href="#DejaVuSans-65" x="56.677734"/>
      <use xlink:href="#DejaVuSans-61" x="118.201172"/>
      <use xlink:href="#DejaVuSans-72" x="179.480469"/>
      <use xlink:href="#DejaVuSans-73" x="220.59375"/>
      <use xlink:href="#DejaVuSans-6f" x="272.693359"/>
      <use xlink:href="#DejaVuSans-6e" x="333.875"/>
      <use xlink:href="#DejaVuSans-20" x="397.253906"/>
      <use xlink:href="#DejaVuSans-63" x="429.041016"/>
      <use xlink:href="#DejaVuSans-6f" x="484.021484"/>
      <use xlink:href="#DejaVuSans-72" x="545.203125"/>
      <use xlink:href="#DejaVuSans-72" x="584.566406"/>
      <use xlink:href="#DejaVuSans-65" x="623.429688"/>
      <use xlink:href="#DejaVuSans-6c" x="684.953125"/>
      <use xlink:href="#DejaVuSans-61" x="712.736328"/>
      <use xlink:href="#DejaVuSans-74" x="774.015625"/>
      <use xlink:href="#DejaVuSans-69" x="813.224609"/>
      <use xlink:href="#DejaVuSans-6f" x="841.007812"/>
      <use xlink:href="#DejaVuSans-6e" x="902.189453"/>
     </g>
    </g>
   </g>
   <g id="matplotlib.axis_2">
    <g id="ytick_1">
     <g id="line2d_9">
      <path d="M 133.49 73.197273 
L 694.08 73.197273 
" clip-path="url(#pd35344dee5)" style="fill: none; stroke: #cccccc; stroke-width: 2; stroke-linecap: round"/>
     </g>
     <g id="text_10">
      <!-- baseline -->
      <g style="fill: #262626" transform="translate(25.840938 81.555554)scale(0.22 -0.22)">
       <defs>
        <path id="DejaVuSans-62" d="M 3116 1747 
Q 3116 2381 2855 2742 
Q 2594 3103 2138 3103 
Q 1681 3103 1420 2742 
Q 1159 2381 1159 1747 
Q 1159 1113 1420 752 
Q 1681 391 2138 391 
Q 2594 391 2855 752 
Q 3116 1113 3116 1747 
z
M 1159 2969 
Q 1341 3281 1617 3432 
Q 1894 3584 2278 3584 
Q 2916 3584 3314 3078 
Q 3713 2572 3713 1747 
Q 3713 922 3314 415 
Q 2916 -91 2278 -91 
Q 1894 -91 1617 61 
Q 1341 213 1159 525 
L 1159 0 
L 581 0 
L 581 4863 
L 1159 4863 
L 1159 2969 
z
" transform="scale(0.015625)"/>
       </defs>
       <use xlink:href="#DejaVuSans-62"/>
       <use xlink:href="#DejaVuSans-61" x="63.476562"/>
       <use xlink:href="#DejaVuSans-73" x="124.755859"/>
       <use xlink:href="#DejaVuSans-65" x="176.855469"/>
       <use xlink:href="#DejaVuSans-6c" x="238.378906"/>
       <use xlink:href="#DejaVuSans-69" x="266.162109"/>
       <use xlink:href="#DejaVuSans-6e" x="293.945312"/>
       <use xlink:href="#DejaVuSans-65" x="357.324219"/>
      </g>
     </g>
    </g>
    <g id="ytick_2">
     <g id="line2d_10">
      <path d="M 133.49 186.662727 
L 694.08 186.662727 
" clip-path="url(#pd35344dee5)" style="fill: none; stroke: #cccccc; stroke-width: 2; stroke-linecap: round"/>
     </g>
     <g id="text_11">
      <!-- msm -->
      <g style="fill: #262626" transform="translate(63.670625 195.021009)scale(0.22 -0.22)">
       <defs>
        <path id="DejaVuSans-6d" d="M 3328 2828 
Q 3544 3216 3844 3400 
Q 4144 3584 4550 3584 
Q 5097 3584 5394 3201 
Q 5691 2819 5691 2113 
L 5691 0 
L 5113 0 
L 5113 2094 
Q 5113 2597 4934 2840 
Q 4756 3084 4391 3084 
Q 3944 3084 3684 2787 
Q 3425 2491 3425 1978 
L 3425 0 
L 2847 0 
L 2847 2094 
Q 2847 2600 2669 2842 
Q 2491 3084 2119 3084 
Q 1678 3084 1418 2786 
Q 1159 2488 1159 1978 
L 1159 0 
L 581 0 
L 581 3500 
L 1159 3500 
L 1159 2956 
Q 1356 3278 1631 3431 
Q 1906 3584 2284 3584 
Q 2666 3584 2933 3390 
Q 3200 3197 3328 2828 
z
" transform="scale(0.015625)"/>
       </defs>
       <use xlink:href="#DejaVuSans-6d"/>
       <use xlink:href="#DejaVuSans-73" x="97.412109"/>
       <use xlink:href="#DejaVuSans-6d" x="149.511719"/>
      </g>
     </g>
    </g>
   </g>
   <g id="PathCollection_1">
    <defs>
     <path id="C0_0_f93e9f3f6c" d="M 0 5 
C 1.326016 5 2.597899 4.473168 3.535534 3.535534 
C 4.473168 2.597899 5 1.326016 5 -0 
C 5 -1.326016 4.473168 -2.597899 3.535534 -3.535534 
C 2.597899 -4.473168 1.326016 -5 0 -5 
C -1.326016 -5 -2.597899 -4.473168 -3.535534 -3.535534 
C -4.473168 -2.597899 -5 -1.326016 -5 0 
C -5 1.326016 -4.473168 2.597899 -3.535534 3.535534 
C -2.597899 4.473168 -1.326016 5 0 5 
z
"/>
    </defs>
    <g clip-path="url(#pd35344dee5)">
     <use xlink:href="#C0_0_f93e9f3f6c" x="467.581226" y="69.261094" style="fill: #4c72b0; fill-opacity: 0.7"/>
    </g>
    <g clip-path="url(#pd35344dee5)">
     <use xlink:href="#C0_0_f93e9f3f6c" x="534.155045" y="56.730923" style="fill: #4c72b0; fill-opacity: 0.7"/>
    </g>
    <g clip-path="url(#pd35344dee5)">
     <use xlink:href="#C0_0_f93e9f3f6c" x="467.44418" y="61.845408" style="fill: #4c72b0; fill-opacity: 0.7"/>
    </g>
    <g clip-path="url(#pd35344dee5)">
     <use xlink:href="#C0_0_f93e9f3f6c" x="433.812861" y="78.090039" style="fill: #4c72b0; fill-opacity: 0.7"/>
    </g>
    <g clip-path="url(#pd35344dee5)">
     <use xlink:href="#C0_0_f93e9f3f6c" x="602.995386" y="68.930919" style="fill: #4c72b0; fill-opacity: 0.7"/>
    </g>
    <g clip-path="url(#pd35344dee5)">
     <use xlink:href="#C0_0_f93e9f3f6c" x="240.458291" y="68.345936" style="fill: #4c72b0; fill-opacity: 0.7"/>
    </g>
    <g clip-path="url(#pd35344dee5)">
     <use xlink:href="#C0_0_f93e9f3f6c" x="612.091724" y="77.799854" style="fill: #4c72b0; fill-opacity: 0.7"/>
    </g>
    <g clip-path="url(#pd35344dee5)">
     <use xlink:href="#C0_0_f93e9f3f6c" x="172.467552" y="81.892173" style="fill: #4c72b0; fill-opacity: 0.7"/>
    </g>
    <g clip-path="url(#pd35344dee5)">
     <use xlink:href="#C0_0_f93e9f3f6c" x="226.998459" y="65.281586" style="fill: #4c72b0; fill-opacity: 0.7"/>
    </g>
    <g clip-path="url(#pd35344dee5)">
     <use xlink:href="#C0_0_f93e9f3f6c" x="341.399808" y="68.034104" style="fill: #4c72b0; fill-opacity: 0.7"/>
    </g>
    <g clip-path="url(#pd35344dee5)">
     <use xlink:href="#C0_0_f93e9f3f6c" x="319.223155" y="91.88486" style="fill: #4c72b0; fill-opacity: 0.7"/>
    </g>
    <g clip-path="url(#pd35344dee5)">
     <use xlink:href="#C0_0_f93e9f3f6c" x="484.939368" y="62.8182" style="fill: #4c72b0; fill-opacity: 0.7"/>
    </g>
    <g clip-path="url(#pd35344dee5)">
     <use xlink:href="#C0_0_f93e9f3f6c" x="372.349377" y="73.351187" style="fill: #4c72b0; fill-opacity: 0.7"/>
    </g>
    <g clip-path="url(#pd35344dee5)">
     <use xlink:href="#C0_0_f93e9f3f6c" x="418.46296" y="91.379614" style="fill: #4c72b0; fill-opacity: 0.7"/>
    </g>
    <g clip-path="url(#pd35344dee5)">
     <use xlink:href="#C0_0_f93e9f3f6c" x="204.792195" y="80.195465" style="fill: #4c72b0; fill-opacity: 0.7"/>
    </g>
    <g clip-path="url(#pd35344dee5)">
     <use xlink:href="#C0_0_f93e9f3f6c" x="535.909386" y="72.449984" style="fill: #4c72b0; fill-opacity: 0.7"/>
    </g>
    <g clip-path="url(#pd35344dee5)">
     <use xlink:href="#C0_0_f93e9f3f6c" x="348.501054" y="65.960728" style="fill: #4c72b0; fill-opacity: 0.7"/>
    </g>
    <g clip-path="url(#pd35344dee5)">
     <use xlink:href="#C0_0_f93e9f3f6c" x="264.793133" y="49.884834" style="fill: #4c72b0; fill-opacity: 0.7"/>
    </g>
    <g clip-path="url(#pd35344dee5)">
     <use xlink:href="#C0_0_f93e9f3f6c" x="427.517538" y="68.265935" style="fill: #4c72b0; fill-opacity: 0.7"/>
    </g>
    <g clip-path="url(#pd35344dee5)">
     <use xlink:href="#C0_0_f93e9f3f6c" x="633.536201" y="83.12387" style="fill: #4c72b0; fill-opacity: 0.7"/>
    </g>
    <g clip-path="url(#pd35344dee5)">
     <use xlink:href="#C0_0_f93e9f3f6c" x="447.223312" y="93.269211" style="fill: #4c72b0; fill-opacity: 0.7"/>
    </g>
    <g clip-path="url(#pd35344dee5)">
     <use xlink:href="#C0_0_f93e9f3f6c" x="554.016357" y="73.463252" style="fill: #4c72b0; fill-opacity: 0.7"/>
    </g>
    <g clip-path="url(#pd35344dee5)">
     <use xlink:href="#C0_0_f93e9f3f6c" x="338.34627" y="87.965214" style="fill: #4c72b0; fill-opacity: 0.7"/>
    </g>
    <g clip-path="url(#pd35344dee5)">
     <use xlink:href="#C0_0_f93e9f3f6c" x="582.803307" y="60.60389" style="fill: #4c72b0; fill-opacity: 0.7"/>
    </g>
    <g clip-path="url(#pd35344dee5)">
     <use xlink:href="#C0_0_f93e9f3f6c" x="208.88523" y="96.741706" style="fill: #4c72b0; fill-opacity: 0.7"/>
    </g>
    <g clip-path="url(#pd35344dee5)">
     <use xlink:href="#C0_0_f93e9f3f6c" x="188.889546" y="59.285337" style="fill: #4c72b0; fill-opacity: 0.7"/>
    </g>
    <g clip-path="url(#pd35344dee5)">
     <use xlink:href="#C0_0_f93e9f3f6c" x="461.02526" y="81.405833" style="fill: #4c72b0; fill-opacity: 0.7"/>
    </g>
    <g clip-path="url(#pd35344dee5)">
     <use xlink:href="#C0_0_f93e9f3f6c" x="566.726124" y="87.914109" style="fill: #4c72b0; fill-opacity: 0.7"/>
    </g>
    <g clip-path="url(#pd35344dee5)">
     <use xlink:href="#C0_0_f93e9f3f6c" x="633.487026" y="81.454534" style="fill: #4c72b0; fill-opacity: 0.7"/>
    </g>
    <g clip-path="url(#pd35344dee5)">
     <use xlink:href="#C0_0_f93e9f3f6c" x="265.682872" y="76.007264" style="fill: #4c72b0; fill-opacity: 0.7"/>
    </g>
    <g clip-path="url(#pd35344dee5)">
     <use xlink:href="#C0_0_f93e9f3f6c" x="671.354689" y="78.359245" style="fill: #4c72b0; fill-opacity: 0.7"/>
    </g>
    <g clip-path="url(#pd35344dee5)">
     <use xlink:href="#C0_0_f93e9f3f6c" x="344.722177" y="95.543567" style="fill: #4c72b0; fill-opacity: 0.7"/>
    </g>
    <g clip-path="url(#pd35344dee5)">
     <use xlink:href="#C0_0_f93e9f3f6c" x="253.177453" y="72.931317" style="fill: #4c72b0; fill-opacity: 0.7"/>
    </g>
    <g clip-path="url(#pd35344dee5)">
     <use xlink:href="#C0_0_f93e9f3f6c" x="437.104218" y="86.246974" style="fill: #4c72b0; fill-opacity: 0.7"/>
    </g>
    <g clip-path="url(#pd35344dee5)">
     <use xlink:href="#C0_0_f93e9f3f6c" x="472.39934" y="74.110785" style="fill: #4c72b0; fill-opacity: 0.7"/>
    </g>
    <g clip-path="url(#pd35344dee5)">
     <use xlink:href="#C0_0_f93e9f3f6c" x="172.013424" y="78.086751" style="fill: #4c72b0; fill-opacity: 0.7"/>
    </g>
    <g clip-path="url(#pd35344dee5)">
     <use xlink:href="#C0_0_f93e9f3f6c" x="533.49727" y="78.892982" style="fill: #4c72b0; fill-opacity: 0.7"/>
    </g>
    <g clip-path="url(#pd35344dee5)">
     <use xlink:href="#C0_0_f93e9f3f6c" x="168.34234" y="80.816698" style="fill: #4c72b0; fill-opacity: 0.7"/>
    </g>
    <g clip-path="url(#pd35344dee5)">
     <use xlink:href="#C0_0_f93e9f3f6c" x="245.313338" y="55.192244" style="fill: #4c72b0; fill-opacity: 0.7"/>
    </g>
    <g clip-path="url(#pd35344dee5)">
     <use xlink:href="#C0_0_f93e9f3f6c" x="297.365044" y="59.289509" style="fill: #4c72b0; fill-opacity: 0.7"/>
    </g>
    <g clip-path="url(#pd35344dee5)">
     <use xlink:href="#C0_0_f93e9f3f6c" x="191.416282" y="61.306899" style="fill: #4c72b0; fill-opacity: 0.7"/>
    </g>
    <g clip-path="url(#pd35344dee5)">
     <use xlink:href="#C0_0_f93e9f3f6c" x="565.67579" y="63.971767" style="fill: #4c72b0; fill-opacity: 0.7"/>
    </g>
    <g clip-path="url(#pd35344dee5)">
     <use xlink:href="#C0_0_f93e9f3f6c" x="289.181206" y="96.467505" style="fill: #4c72b0; fill-opacity: 0.7"/>
    </g>
    <g clip-path="url(#pd35344dee5)">
     <use xlink:href="#C0_0_f93e9f3f6c" x="284.967907" y="78.912757" style="fill: #4c72b0; fill-opacity: 0.7"/>
    </g>
    <g clip-path="url(#pd35344dee5)">
     <use xlink:href="#C0_0_f93e9f3f6c" x="479.281597" y="71.057629" style="fill: #4c72b0; fill-opacity: 0.7"/>
    </g>
    <g clip-path="url(#pd35344dee5)">
     <use xlink:href="#C0_0_f93e9f3f6c" x="244.485956" y="51.354958" style="fill: #4c72b0; fill-opacity: 0.7"/>
    </g>
    <g clip-path="url(#pd35344dee5)">
     <use xlink:href="#C0_0_f93e9f3f6c" x="162.23478" y="57.02499" style="fill: #4c72b0; fill-opacity: 0.7"/>
    </g>
    <g clip-path="url(#pd35344dee5)">
     <use xlink:href="#C0_0_f93e9f3f6c" x="179.373332" y="73.04813" style="fill: #4c72b0; fill-opacity: 0.7"/>
    </g>
    <g clip-path="url(#pd35344dee5)">
     <use xlink:href="#C0_0_f93e9f3f6c" x="295.611996" y="81.459913" style="fill: #4c72b0; fill-opacity: 0.7"/>
    </g>
    <g clip-path="url(#pd35344dee5)">
     <use xlink:href="#C0_0_f93e9f3f6c" x="297.052035" y="99.461079" style="fill: #4c72b0; fill-opacity: 0.7"/>
    </g>
    <g clip-path="url(#pd35344dee5)">
     <use xlink:href="#C0_0_f93e9f3f6c" x="265.255662" y="57.736081" style="fill: #4c72b0; fill-opacity: 0.7"/>
    </g>
    <g clip-path="url(#pd35344dee5)">
     <use xlink:href="#C0_0_f93e9f3f6c" x="438.755451" y="84.184879" style="fill: #4c72b0; fill-opacity: 0.7"/>
    </g>
    <g clip-path="url(#pd35344dee5)">
     <use xlink:href="#C0_0_f93e9f3f6c" x="227.170465" y="84.780695" style="fill: #4c72b0; fill-opacity: 0.7"/>
    </g>
    <g clip-path="url(#pd35344dee5)">
     <use xlink:href="#C0_0_f93e9f3f6c" x="331.117938" y="69.435938" style="fill: #4c72b0; fill-opacity: 0.7"/>
    </g>
    <g clip-path="url(#pd35344dee5)">
     <use xlink:href="#C0_0_f93e9f3f6c" x="267.003067" y="95.22725" style="fill: #4c72b0; fill-opacity: 0.7"/>
    </g>
   </g>
   <g id="PolyCollection_1">
    <defs>
     <path id="mcf0ae44639" d="M 162.23478 -227.824728 
L 162.23478 -273.780727 
L 167.377406 -275.0662 
L 172.520031 -276.330813 
L 177.662656 -277.566617 
L 182.805282 -278.765916 
L 187.947907 -279.921347 
L 193.090532 -281.025957 
L 198.233158 -282.073268 
L 203.375783 -283.057324 
L 208.518408 -283.972742 
L 213.661034 -284.814736 
L 218.803659 -285.579152 
L 223.946284 -286.262486 
L 229.08891 -286.8619 
L 234.231535 -287.375238 
L 239.37416 -287.801037 
L 244.516786 -288.138541 
L 249.659411 -288.387711 
L 254.802036 -288.549236 
L 259.944662 -288.624545 
L 265.087287 -288.61581 
L 270.229912 -288.525953 
L 275.372538 -288.358641 
L 280.515163 -288.118281 
L 285.657788 -287.809995 
L 290.800414 -287.439595 
L 295.943039 -287.013536 
L 301.085664 -286.538861 
L 306.22829 -286.023121 
L 311.370915 -285.474292 
L 316.51354 -284.900665 
L 321.656166 -284.310727 
L 326.798791 -283.713024 
L 331.941416 -283.116021 
L 337.084042 -282.527944 
L 342.226667 -281.956625 
L 347.369292 -281.409347 
L 352.511918 -280.892693 
L 357.654543 -280.412403 
L 362.797168 -279.973255 
L 367.939794 -279.578955 
L 373.082419 -279.232063 
L 378.225044 -278.933942 
L 383.36767 -278.684743 
L 388.510295 -278.483416 
L 393.65292 -278.327769 
L 398.795546 -278.214548 
L 403.938171 -278.139554 
L 409.080796 -278.097788 
L 414.223422 -278.08362 
L 419.366047 -278.090966 
L 424.508672 -278.113488 
L 429.651298 -278.144786 
L 434.793923 -278.178587 
L 439.936548 -278.208929 
L 445.079174 -278.230311 
L 450.221799 -278.237833 
L 455.364424 -278.227297 
L 460.50705 -278.195279 
L 465.649675 -278.139162 
L 470.7923 -278.05714 
L 475.934926 -277.948189 
L 481.077551 -277.812002 
L 486.220176 -277.648908 
L 491.362802 -277.459763 
L 496.505427 -277.245833 
L 501.648052 -277.008668 
L 506.790678 -276.749978 
L 511.933303 -276.47151 
L 517.075928 -276.174936 
L 522.218554 -275.861767 
L 527.361179 -275.533268 
L 532.503804 -275.190412 
L 537.64643 -274.833844 
L 542.789055 -274.463875 
L 547.93168 -274.08049 
L 553.074306 -273.68338 
L 558.216931 -273.27199 
L 563.359556 -272.845575 
L 568.502182 -272.40327 
L 573.644807 -271.944162 
L 578.787432 -271.467364 
L 583.930058 -270.972087 
L 589.072683 -270.457709 
L 594.215309 -269.923832 
L 599.357934 -269.370334 
L 604.500559 -268.797407 
L 609.643185 -268.205584 
L 614.78581 -267.595756 
L 619.928435 -266.969174 
L 625.071061 -266.32744 
L 630.213686 -265.67249 
L 635.356311 -265.006563 
L 640.498937 -264.332169 
L 645.641562 -263.652039 
L 650.784187 -262.969084 
L 655.926813 -262.286337 
L 661.069438 -261.606904 
L 666.212063 -260.933904 
L 671.354689 -260.270418 
L 671.354689 -241.335036 
L 671.354689 -241.335036 
L 666.212063 -240.671551 
L 661.069438 -239.998551 
L 655.926813 -239.319117 
L 650.784187 -238.636371 
L 645.641562 -237.953416 
L 640.498937 -237.273286 
L 635.356311 -236.598891 
L 630.213686 -235.932965 
L 625.071061 -235.278015 
L 619.928435 -234.636281 
L 614.78581 -234.009699 
L 609.643185 -233.399871 
L 604.500559 -232.808048 
L 599.357934 -232.23512 
L 594.215309 -231.681622 
L 589.072683 -231.147745 
L 583.930058 -230.633367 
L 578.787432 -230.138091 
L 573.644807 -229.661293 
L 568.502182 -229.202185 
L 563.359556 -228.75988 
L 558.216931 -228.333465 
L 553.074306 -227.922074 
L 547.93168 -227.524965 
L 542.789055 -227.141579 
L 537.64643 -226.77161 
L 532.503804 -226.415043 
L 527.361179 -226.072187 
L 522.218554 -225.743688 
L 517.075928 -225.430518 
L 511.933303 -225.133945 
L 506.790678 -224.855476 
L 501.648052 -224.596786 
L 496.505427 -224.359622 
L 491.362802 -224.145692 
L 486.220176 -223.956546 
L 481.077551 -223.793452 
L 475.934926 -223.657266 
L 470.7923 -223.548315 
L 465.649675 -223.466293 
L 460.50705 -223.410176 
L 455.364424 -223.378157 
L 450.221799 -223.367622 
L 445.079174 -223.375144 
L 439.936548 -223.396526 
L 434.793923 -223.426867 
L 429.651298 -223.460669 
L 424.508672 -223.491966 
L 419.366047 -223.514488 
L 414.223422 -223.521835 
L 409.080796 -223.507666 
L 403.938171 -223.465901 
L 398.795546 -223.390907 
L 393.65292 -223.277686 
L 388.510295 -223.122039 
L 383.36767 -222.920712 
L 378.225044 -222.671512 
L 373.082419 -222.373392 
L 367.939794 -222.0265 
L 362.797168 -221.6322 
L 357.654543 -221.193051 
L 352.511918 -220.712762 
L 347.369292 -220.196107 
L 342.226667 -219.648829 
L 337.084042 -219.07751 
L 331.941416 -218.489433 
L 326.798791 -217.89243 
L 321.656166 -217.294728 
L 316.51354 -216.70479 
L 311.370915 -216.131163 
L 306.22829 -215.582334 
L 301.085664 -215.066594 
L 295.943039 -214.591918 
L 290.800414 -214.16586 
L 285.657788 -213.79546 
L 280.515163 -213.487174 
L 275.372538 -213.246813 
L 270.229912 -213.079502 
L 265.087287 -212.989644 
L 259.944662 -212.980909 
L 254.802036 -213.056218 
L 249.659411 -213.217744 
L 244.516786 -213.466914 
L 239.37416 -213.804418 
L 234.231535 -214.230217 
L 229.08891 -214.743554 
L 223.946284 -215.342969 
L 218.803659 -216.026303 
L 213.661034 -216.790719 
L 208.518408 -217.632713 
L 203.375783 -218.54813 
L 198.233158 -219.532187 
L 193.090532 -220.579497 
L 187.947907 -221.684108 
L 182.805282 -222.839539 
L 177.662656 -224.038837 
L 172.520031 -225.274642 
L 167.377406 -226.539255 
L 162.23478 -227.824728 
z
" style="stroke: #ffffff; stroke-opacity: 0.3; stroke-width: 2"/>
    </defs>
    <g clip-path="url(#pd35344dee5)">
     <use xlink:href="#mcf0ae44639" x="0" y="324" style="fill: #4c72b0; fill-opacity: 0.3; stroke: #ffffff; stroke-opacity: 0.3; stroke-width: 2"/>
    </g>
   </g>
   <g id="PathCollection_2">
    <defs>
     <path id="C1_0_30db77b21e" d="M 0 5 
C 1.326016 5 2.597899 4.473168 3.535534 3.535534 
C 4.473168 2.597899 5 1.326016 5 -0 
C 5 -1.326016 4.473168 -2.597899 3.535534 -3.535534 
C 2.597899 -4.473168 1.326016 -5 0 -5 
C -1.326016 -5 -2.597899 -4.473168 -3.535534 -3.535534 
C -4.473168 -2.597899 -5 -1.326016 -5 0 
C -5 1.326016 -4.473168 2.597899 -3.535534 3.535534 
C -2.597899 4.473168 -1.326016 5 0 5 
z
"/>
    </defs>
    <g clip-path="url(#pd35344dee5)">
     <use xlink:href="#C1_0_30db77b21e" x="467.581226" y="186.179033" style="fill: #dd8452; fill-opacity: 0.7"/>
    </g>
    <g clip-path="url(#pd35344dee5)">
     <use xlink:href="#C1_0_30db77b21e" x="532.860717" y="194.23229" style="fill: #dd8452; fill-opacity: 0.7"/>
    </g>
    <g clip-path="url(#pd35344dee5)">
     <use xlink:href="#C1_0_30db77b21e" x="470.578901" y="169.917914" style="fill: #dd8452; fill-opacity: 0.7"/>
    </g>
    <g clip-path="url(#pd35344dee5)">
     <use xlink:href="#C1_0_30db77b21e" x="441.8066" y="173.985459" style="fill: #dd8452; fill-opacity: 0.7"/>
    </g>
    <g clip-path="url(#pd35344dee5)">
     <use xlink:href="#C1_0_30db77b21e" x="602.995386" y="192.481699" style="fill: #dd8452; fill-opacity: 0.7"/>
    </g>
    <g clip-path="url(#pd35344dee5)">
     <use xlink:href="#C1_0_30db77b21e" x="238.639616" y="205.085619" style="fill: #dd8452; fill-opacity: 0.7"/>
    </g>
    <g clip-path="url(#pd35344dee5)">
     <use xlink:href="#C1_0_30db77b21e" x="617.99867" y="174.98163" style="fill: #dd8452; fill-opacity: 0.7"/>
    </g>
    <g clip-path="url(#pd35344dee5)">
     <use xlink:href="#C1_0_30db77b21e" x="187.047514" y="178.614809" style="fill: #dd8452; fill-opacity: 0.7"/>
    </g>
    <g clip-path="url(#pd35344dee5)">
     <use xlink:href="#C1_0_30db77b21e" x="234.22802" y="180.732625" style="fill: #dd8452; fill-opacity: 0.7"/>
    </g>
    <g clip-path="url(#pd35344dee5)">
     <use xlink:href="#C1_0_30db77b21e" x="353.631716" y="194.099982" style="fill: #dd8452; fill-opacity: 0.7"/>
    </g>
    <g clip-path="url(#pd35344dee5)">
     <use xlink:href="#C1_0_30db77b21e" x="329.057083" y="181.198512" style="fill: #dd8452; fill-opacity: 0.7"/>
    </g>
    <g clip-path="url(#pd35344dee5)">
     <use xlink:href="#C1_0_30db77b21e" x="506.828191" y="173.592126" style="fill: #dd8452; fill-opacity: 0.7"/>
    </g>
    <g clip-path="url(#pd35344dee5)">
     <use xlink:href="#C1_0_30db77b21e" x="380.2993" y="182.012901" style="fill: #dd8452; fill-opacity: 0.7"/>
    </g>
    <g clip-path="url(#pd35344dee5)">
     <use xlink:href="#C1_0_30db77b21e" x="414.310883" y="195.531967" style="fill: #dd8452; fill-opacity: 0.7"/>
    </g>
    <g clip-path="url(#pd35344dee5)">
     <use xlink:href="#C1_0_30db77b21e" x="207.195305" y="194.092815" style="fill: #dd8452; fill-opacity: 0.7"/>
    </g>
    <g clip-path="url(#pd35344dee5)">
     <use xlink:href="#C1_0_30db77b21e" x="525.933436" y="170.621381" style="fill: #dd8452; fill-opacity: 0.7"/>
    </g>
    <g clip-path="url(#pd35344dee5)">
     <use xlink:href="#C1_0_30db77b21e" x="364.676405" y="175.574888" style="fill: #dd8452; fill-opacity: 0.7"/>
    </g>
    <g clip-path="url(#pd35344dee5)">
     <use xlink:href="#C1_0_30db77b21e" x="283.738153" y="162.524805" style="fill: #dd8452; fill-opacity: 0.7"/>
    </g>
    <g clip-path="url(#pd35344dee5)">
     <use xlink:href="#C1_0_30db77b21e" x="400.909856" y="191.011808" style="fill: #dd8452; fill-opacity: 0.7"/>
    </g>
    <g clip-path="url(#pd35344dee5)">
     <use xlink:href="#C1_0_30db77b21e" x="635.332787" y="196.730878" style="fill: #dd8452; fill-opacity: 0.7"/>
    </g>
    <g clip-path="url(#pd35344dee5)">
     <use xlink:href="#C1_0_30db77b21e" x="433.587564" y="196.706337" style="fill: #dd8452; fill-opacity: 0.7"/>
    </g>
    <g clip-path="url(#pd35344dee5)">
     <use xlink:href="#C1_0_30db77b21e" x="554.016357" y="183.945576" style="fill: #dd8452; fill-opacity: 0.7"/>
    </g>
    <g clip-path="url(#pd35344dee5)">
     <use xlink:href="#C1_0_30db77b21e" x="325.206017" y="192.321479" style="fill: #dd8452; fill-opacity: 0.7"/>
    </g>
    <g clip-path="url(#pd35344dee5)">
     <use xlink:href="#C1_0_30db77b21e" x="579.25266" y="183.673935" style="fill: #dd8452; fill-opacity: 0.7"/>
    </g>
    <g clip-path="url(#pd35344dee5)">
     <use xlink:href="#C1_0_30db77b21e" x="220.482811" y="167.949947" style="fill: #dd8452; fill-opacity: 0.7"/>
    </g>
    <g clip-path="url(#pd35344dee5)">
     <use xlink:href="#C1_0_30db77b21e" x="188.889546" y="197.118594" style="fill: #dd8452; fill-opacity: 0.7"/>
    </g>
    <g clip-path="url(#pd35344dee5)">
     <use xlink:href="#C1_0_30db77b21e" x="468.993711" y="203.968845" style="fill: #dd8452; fill-opacity: 0.7"/>
    </g>
    <g clip-path="url(#pd35344dee5)">
     <use xlink:href="#C1_0_30db77b21e" x="547.292725" y="177.547179" style="fill: #dd8452; fill-opacity: 0.7"/>
    </g>
    <g clip-path="url(#pd35344dee5)">
     <use xlink:href="#C1_0_30db77b21e" x="633.487026" y="193.879093" style="fill: #dd8452; fill-opacity: 0.7"/>
    </g>
    <g clip-path="url(#pd35344dee5)">
     <use xlink:href="#C1_0_30db77b21e" x="265.682872" y="179.030433" style="fill: #dd8452; fill-opacity: 0.7"/>
    </g>
    <g clip-path="url(#pd35344dee5)">
     <use xlink:href="#C1_0_30db77b21e" x="667.116921" y="189.136539" style="fill: #dd8452; fill-opacity: 0.7"/>
    </g>
    <g clip-path="url(#pd35344dee5)">
     <use xlink:href="#C1_0_30db77b21e" x="340.251246" y="196.413209" style="fill: #dd8452; fill-opacity: 0.7"/>
    </g>
    <g clip-path="url(#pd35344dee5)">
     <use xlink:href="#C1_0_30db77b21e" x="253.177453" y="182.878584" style="fill: #dd8452; fill-opacity: 0.7"/>
    </g>
    <g clip-path="url(#pd35344dee5)">
     <use xlink:href="#C1_0_30db77b21e" x="437.104218" y="166.903297" style="fill: #dd8452; fill-opacity: 0.7"/>
    </g>
    <g clip-path="url(#pd35344dee5)">
     <use xlink:href="#C1_0_30db77b21e" x="472.39934" y="198.603536" style="fill: #dd8452; fill-opacity: 0.7"/>
    </g>
    <g clip-path="url(#pd35344dee5)">
     <use xlink:href="#C1_0_30db77b21e" x="161.955985" y="179.869044" style="fill: #dd8452; fill-opacity: 0.7"/>
    </g>
    <g clip-path="url(#pd35344dee5)">
     <use xlink:href="#C1_0_30db77b21e" x="538.097289" y="170.023146" style="fill: #dd8452; fill-opacity: 0.7"/>
    </g>
    <g clip-path="url(#pd35344dee5)">
     <use xlink:href="#C1_0_30db77b21e" x="173.545974" y="185.40641" style="fill: #dd8452; fill-opacity: 0.7"/>
    </g>
    <g clip-path="url(#pd35344dee5)">
     <use xlink:href="#C1_0_30db77b21e" x="249.771567" y="207.522869" style="fill: #dd8452; fill-opacity: 0.7"/>
    </g>
    <g clip-path="url(#pd35344dee5)">
     <use xlink:href="#C1_0_30db77b21e" x="298.121918" y="192.550346" style="fill: #dd8452; fill-opacity: 0.7"/>
    </g>
    <g clip-path="url(#pd35344dee5)">
     <use xlink:href="#C1_0_30db77b21e" x="197.980978" y="208.057482" style="fill: #dd8452; fill-opacity: 0.7"/>
    </g>
    <g clip-path="url(#pd35344dee5)">
     <use xlink:href="#C1_0_30db77b21e" x="563.529935" y="182.404553" style="fill: #dd8452; fill-opacity: 0.7"/>
    </g>
    <g clip-path="url(#pd35344dee5)">
     <use xlink:href="#C1_0_30db77b21e" x="280.389276" y="202.785856" style="fill: #dd8452; fill-opacity: 0.7"/>
    </g>
    <g clip-path="url(#pd35344dee5)">
     <use xlink:href="#C1_0_30db77b21e" x="297.219908" y="191.876013" style="fill: #dd8452; fill-opacity: 0.7"/>
    </g>
    <g clip-path="url(#pd35344dee5)">
     <use xlink:href="#C1_0_30db77b21e" x="467.25289" y="206.547095" style="fill: #dd8452; fill-opacity: 0.7"/>
    </g>
    <g clip-path="url(#pd35344dee5)">
     <use xlink:href="#C1_0_30db77b21e" x="236.492488" y="173.785693" style="fill: #dd8452; fill-opacity: 0.7"/>
    </g>
    <g clip-path="url(#pd35344dee5)">
     <use xlink:href="#C1_0_30db77b21e" x="161.864134" y="181.855306" style="fill: #dd8452; fill-opacity: 0.7"/>
    </g>
    <g clip-path="url(#pd35344dee5)">
     <use xlink:href="#C1_0_30db77b21e" x="179.373332" y="195.912735" style="fill: #dd8452; fill-opacity: 0.7"/>
    </g>
    <g clip-path="url(#pd35344dee5)">
     <use xlink:href="#C1_0_30db77b21e" x="295.611996" y="206.723461" style="fill: #dd8452; fill-opacity: 0.7"/>
    </g>
    <g clip-path="url(#pd35344dee5)">
     <use xlink:href="#C1_0_30db77b21e" x="297.052035" y="194.428058" style="fill: #dd8452; fill-opacity: 0.7"/>
    </g>
    <g clip-path="url(#pd35344dee5)">
     <use xlink:href="#C1_0_30db77b21e" x="265.255662" y="182.76978" style="fill: #dd8452; fill-opacity: 0.7"/>
    </g>
    <g clip-path="url(#pd35344dee5)">
     <use xlink:href="#C1_0_30db77b21e" x="438.755451" y="189.922214" style="fill: #dd8452; fill-opacity: 0.7"/>
    </g>
    <g clip-path="url(#pd35344dee5)">
     <use xlink:href="#C1_0_30db77b21e" x="231.456992" y="170.865999" style="fill: #dd8452; fill-opacity: 0.7"/>
    </g>
    <g clip-path="url(#pd35344dee5)">
     <use xlink:href="#C1_0_30db77b21e" x="331.117938" y="187.291113" style="fill: #dd8452; fill-opacity: 0.7"/>
    </g>
    <g clip-path="url(#pd35344dee5)">
     <use xlink:href="#C1_0_30db77b21e" x="267.003067" y="204.790839" style="fill: #dd8452; fill-opacity: 0.7"/>
    </g>
   </g>
   <g id="PolyCollection_2">
    <defs>
     <path id="mf12d1e40f7" d="M 161.864134 -115.350525 
L 161.864134 -159.32402 
L 166.967698 -160.615713 
L 172.071261 -161.893708 
L 177.174825 -163.149951 
L 182.278388 -164.376515 
L 187.381952 -165.565695 
L 192.485515 -166.710097 
L 197.589079 -167.802712 
L 202.692642 -168.836993 
L 207.796206 -169.806913 
L 212.899769 -170.707022 
L 218.003333 -171.532496 
L 223.106896 -172.279175 
L 228.21046 -172.943599 
L 233.314023 -173.523038 
L 238.417587 -174.015514 
L 243.52115 -174.419824 
L 248.624714 -174.735553 
L 253.728277 -174.963082 
L 258.831841 -175.103599 
L 263.935404 -175.159091 
L 269.038968 -175.132337 
L 274.142531 -175.026891 
L 279.246095 -174.847059 
L 284.349658 -174.597854 
L 289.453222 -174.284955 
L 294.556785 -173.914644 
L 299.660349 -173.493731 
L 304.763912 -173.029472 
L 309.867476 -172.529472 
L 314.971039 -172.001576 
L 320.074603 -171.453752 
L 325.178166 -170.893967 
L 330.28173 -170.33006 
L 335.385293 -169.769609 
L 340.488857 -169.219799 
L 345.59242 -168.687302 
L 350.695984 -168.178152 
L 355.799547 -167.697646 
L 360.903111 -167.250247 
L 366.006674 -166.839516 
L 371.110238 -166.468054 
L 376.213801 -166.137477 
L 381.317365 -165.848408 
L 386.420928 -165.600495 
L 391.524492 -165.392458 
L 396.628055 -165.222151 
L 401.731619 -165.086654 
L 406.835182 -164.982379 
L 411.938746 -164.905188 
L 417.042309 -164.85053 
L 422.145873 -164.813577 
L 427.249436 -164.789359 
L 432.353 -164.772909 
L 437.456563 -164.759381 
L 442.560127 -164.744169 
L 447.66369 -164.723005 
L 452.767254 -164.692039 
L 457.870817 -164.647896 
L 462.974381 -164.587715 
L 468.077944 -164.509166 
L 473.181508 -164.410443 
L 478.285071 -164.29024 
L 483.388635 -164.147718 
L 488.492198 -163.982446 
L 493.595762 -163.794347 
L 498.699325 -163.583629 
L 503.802889 -163.350715 
L 508.906452 -163.096185 
L 514.010016 -162.820703 
L 519.113579 -162.524973 
L 524.217143 -162.209683 
L 529.320706 -161.875475 
L 534.42427 -161.522914 
L 539.527834 -161.152475 
L 544.631397 -160.764533 
L 549.734961 -160.359366 
L 554.838524 -159.937164 
L 559.942088 -159.498047 
L 565.045651 -159.042082 
L 570.149215 -158.569309 
L 575.252778 -158.079768 
L 580.356342 -157.573527 
L 585.459905 -157.050708 
L 590.563469 -156.511516 
L 595.667032 -155.956268 
L 600.770596 -155.385411 
L 605.874159 -154.799551 
L 610.977723 -154.199466 
L 616.081286 -153.586124 
L 621.18485 -152.960697 
L 626.288413 -152.324561 
L 631.391977 -151.679305 
L 636.49554 -151.026722 
L 641.599104 -150.368801 
L 646.702667 -149.707712 
L 651.806231 -149.045786 
L 656.909794 -148.385482 
L 662.013358 -147.729361 
L 667.116921 -147.080046 
L 667.116921 -127.5945 
L 667.116921 -127.5945 
L 662.013358 -126.945185 
L 656.909794 -126.289064 
L 651.806231 -125.62876 
L 646.702667 -124.966833 
L 641.599104 -124.305745 
L 636.49554 -123.647824 
L 631.391977 -122.995241 
L 626.288413 -122.349985 
L 621.18485 -121.713849 
L 616.081286 -121.088421 
L 610.977723 -120.47508 
L 605.874159 -119.874994 
L 600.770596 -119.289134 
L 595.667032 -118.718277 
L 590.563469 -118.163029 
L 585.459905 -117.623838 
L 580.356342 -117.101019 
L 575.252778 -116.594777 
L 570.149215 -116.105236 
L 565.045651 -115.632463 
L 559.942088 -115.176498 
L 554.838524 -114.737381 
L 549.734961 -114.31518 
L 544.631397 -113.910012 
L 539.527834 -113.52207 
L 534.42427 -113.151631 
L 529.320706 -112.799071 
L 524.217143 -112.464863 
L 519.113579 -112.149573 
L 514.010016 -111.853842 
L 508.906452 -111.578361 
L 503.802889 -111.32383 
L 498.699325 -111.090917 
L 493.595762 -110.880198 
L 488.492198 -110.692099 
L 483.388635 -110.526827 
L 478.285071 -110.384305 
L 473.181508 -110.264103 
L 468.077944 -110.165379 
L 462.974381 -110.08683 
L 457.870817 -110.02665 
L 452.767254 -109.982506 
L 447.66369 -109.95154 
L 442.560127 -109.930376 
L 437.456563 -109.915164 
L 432.353 -109.901636 
L 427.249436 -109.885186 
L 422.145873 -109.860969 
L 417.042309 -109.824015 
L 411.938746 -109.769357 
L 406.835182 -109.692167 
L 401.731619 -109.587891 
L 396.628055 -109.452394 
L 391.524492 -109.282088 
L 386.420928 -109.07405 
L 381.317365 -108.826138 
L 376.213801 -108.537069 
L 371.110238 -108.206492 
L 366.006674 -107.83503 
L 360.903111 -107.424298 
L 355.799547 -106.9769 
L 350.695984 -106.496393 
L 345.59242 -105.987244 
L 340.488857 -105.454746 
L 335.385293 -104.904937 
L 330.28173 -104.344485 
L 325.178166 -103.780579 
L 320.074603 -103.220794 
L 314.971039 -102.672969 
L 309.867476 -102.145073 
L 304.763912 -101.645073 
L 299.660349 -101.180815 
L 294.556785 -100.759902 
L 289.453222 -100.38959 
L 284.349658 -100.076692 
L 279.246095 -99.827487 
L 274.142531 -99.647654 
L 269.038968 -99.542209 
L 263.935404 -99.515455 
L 258.831841 -99.570946 
L 253.728277 -99.711463 
L 248.624714 -99.938993 
L 243.52115 -100.254721 
L 238.417587 -100.659031 
L 233.314023 -101.151507 
L 228.21046 -101.730946 
L 223.106896 -102.39537 
L 218.003333 -103.142049 
L 212.899769 -103.967523 
L 207.796206 -104.867633 
L 202.692642 -105.837553 
L 197.589079 -106.871833 
L 192.485515 -107.964449 
L 187.381952 -109.10885 
L 182.278388 -110.298031 
L 177.174825 -111.524595 
L 172.071261 -112.780837 
L 166.967698 -114.058832 
L 161.864134 -115.350525 
z
" style="stroke: #ffffff; stroke-opacity: 0.3; stroke-width: 2"/>
    </defs>
    <g clip-path="url(#pd35344dee5)">
     <use xlink:href="#mf12d1e40f7" x="0" y="324" style="fill: #dd8452; fill-opacity: 0.3; stroke: #ffffff; stroke-opacity: 0.3; stroke-width: 2"/>
    </g>
   </g>
   <g id="line2d_11">
    <path d="M 467.581226 69.261094 
L 467.581226 186.179033 
" clip-path="url(#pd35344dee5)" style="fill: none; stroke: #000000; stroke-opacity: 0.2; stroke-width: 1.5; stroke-linecap: round"/>
   </g>
   <g id="line2d_12">
    <path d="M 534.155045 56.730923 
L 532.860717 194.23229 
" clip-path="url(#pd35344dee5)" style="fill: none; stroke: #000000; stroke-opacity: 0.2; stroke-width: 1.5; stroke-linecap: round"/>
   </g>
   <g id="line2d_13">
    <path d="M 467.44418 61.845408 
L 470.578901 169.917914 
" clip-path="url(#pd35344dee5)" style="fill: none; stroke: #000000; stroke-opacity: 0.2; stroke-width: 1.5; stroke-linecap: round"/>
   </g>
   <g id="line2d_14">
    <path d="M 433.812861 78.090039 
L 441.8066 173.985459 
" clip-path="url(#pd35344dee5)" style="fill: none; stroke: #000000; stroke-opacity: 0.2; stroke-width: 1.5; stroke-linecap: round"/>
   </g>
   <g id="line2d_15">
    <path d="M 602.995386 68.930919 
L 602.995386 192.481699 
" clip-path="url(#pd35344dee5)" style="fill: none; stroke: #000000; stroke-opacity: 0.2; stroke-width: 1.5; stroke-linecap: round"/>
   </g>
   <g id="line2d_16">
    <path d="M 240.458291 68.345936 
L 238.639616 205.085619 
" clip-path="url(#pd35344dee5)" style="fill: none; stroke: #000000; stroke-opacity: 0.2; stroke-width: 1.5; stroke-linecap: round"/>
   </g>
   <g id="line2d_17">
    <path d="M 612.091724 77.799854 
L 617.99867 174.98163 
" clip-path="url(#pd35344dee5)" style="fill: none; stroke: #000000; stroke-opacity: 0.2; stroke-width: 1.5; stroke-linecap: round"/>
   </g>
   <g id="line2d_18">
    <path d="M 172.467552 81.892173 
L 187.047514 178.614809 
" clip-path="url(#pd35344dee5)" style="fill: none; stroke: #000000; stroke-opacity: 0.2; stroke-width: 1.5; stroke-linecap: round"/>
   </g>
   <g id="line2d_19">
    <path d="M 226.998459 65.281586 
L 234.22802 180.732625 
" clip-path="url(#pd35344dee5)" style="fill: none; stroke: #000000; stroke-opacity: 0.2; stroke-width: 1.5; stroke-linecap: round"/>
   </g>
   <g id="line2d_20">
    <path d="M 341.399808 68.034104 
L 353.631716 194.099982 
" clip-path="url(#pd35344dee5)" style="fill: none; stroke: #000000; stroke-opacity: 0.2; stroke-width: 1.5; stroke-linecap: round"/>
   </g>
   <g id="line2d_21">
    <path d="M 319.223155 91.88486 
L 329.057083 181.198512 
" clip-path="url(#pd35344dee5)" style="fill: none; stroke: #000000; stroke-opacity: 0.2; stroke-width: 1.5; stroke-linecap: round"/>
   </g>
   <g id="line2d_22">
    <path d="M 484.939368 62.8182 
L 506.828191 173.592126 
" clip-path="url(#pd35344dee5)" style="fill: none; stroke: #000000; stroke-opacity: 0.2; stroke-width: 1.5; stroke-linecap: round"/>
   </g>
   <g id="line2d_23">
    <path d="M 372.349377 73.351187 
L 380.2993 182.012901 
" clip-path="url(#pd35344dee5)" style="fill: none; stroke: #000000; stroke-opacity: 0.2; stroke-width: 1.5; stroke-linecap: round"/>
   </g>
   <g id="line2d_24">
    <path d="M 418.46296 91.379614 
L 414.310883 195.531967 
" clip-path="url(#pd35344dee5)" style="fill: none; stroke: #000000; stroke-opacity: 0.2; stroke-width: 1.5; stroke-linecap: round"/>
   </g>
   <g id="line2d_25">
    <path d="M 204.792195 80.195465 
L 207.195305 194.092815 
" clip-path="url(#pd35344dee5)" style="fill: none; stroke: #000000; stroke-opacity: 0.2; stroke-width: 1.5; stroke-linecap: round"/>
   </g>
   <g id="line2d_26">
    <path d="M 535.909386 72.449984 
L 525.933436 170.621381 
" clip-path="url(#pd35344dee5)" style="fill: none; stroke: #000000; stroke-opacity: 0.2; stroke-width: 1.5; stroke-linecap: round"/>
   </g>
   <g id="line2d_27">
    <path d="M 348.501054 65.960728 
L 364.676405 175.574888 
" clip-path="url(#pd35344dee5)" style="fill: none; stroke: #000000; stroke-opacity: 0.2; stroke-width: 1.5; stroke-linecap: round"/>
   </g>
   <g id="line2d_28">
    <path d="M 264.793133 49.884834 
L 283.738153 162.524805 
" clip-path="url(#pd35344dee5)" style="fill: none; stroke: #000000; stroke-opacity: 0.2; stroke-width: 1.5; stroke-linecap: round"/>
   </g>
   <g id="line2d_29">
    <path d="M 427.517538 68.265935 
L 400.909856 191.011808 
" clip-path="url(#pd35344dee5)" style="fill: none; stroke: #000000; stroke-opacity: 0.2; stroke-width: 1.5; stroke-linecap: round"/>
   </g>
   <g id="line2d_30">
    <path d="M 633.536201 83.12387 
L 635.332787 196.730878 
" clip-path="url(#pd35344dee5)" style="fill: none; stroke: #000000; stroke-opacity: 0.2; stroke-width: 1.5; stroke-linecap: round"/>
   </g>
   <g id="line2d_31">
    <path d="M 447.223312 93.269211 
L 433.587564 196.706337 
" clip-path="url(#pd35344dee5)" style="fill: none; stroke: #000000; stroke-opacity: 0.2; stroke-width: 1.5; stroke-linecap: round"/>
   </g>
   <g id="line2d_32">
    <path d="M 554.016357 73.463252 
L 554.016357 183.945576 
" clip-path="url(#pd35344dee5)" style="fill: none; stroke: #000000; stroke-opacity: 0.2; stroke-width: 1.5; stroke-linecap: round"/>
   </g>
   <g id="line2d_33">
    <path d="M 338.34627 87.965214 
L 325.206017 192.321479 
" clip-path="url(#pd35344dee5)" style="fill: none; stroke: #000000; stroke-opacity: 0.2; stroke-width: 1.5; stroke-linecap: round"/>
   </g>
   <g id="line2d_34">
    <path d="M 582.803307 60.60389 
L 579.25266 183.673935 
" clip-path="url(#pd35344dee5)" style="fill: none; stroke: #000000; stroke-opacity: 0.2; stroke-width: 1.5; stroke-linecap: round"/>
   </g>
   <g id="line2d_35">
    <path d="M 208.88523 96.741706 
L 220.482811 167.949947 
" clip-path="url(#pd35344dee5)" style="fill: none; stroke: #000000; stroke-opacity: 0.2; stroke-width: 1.5; stroke-linecap: round"/>
   </g>
   <g id="line2d_36">
    <path d="M 188.889546 59.285337 
L 188.889546 197.118594 
" clip-path="url(#pd35344dee5)" style="fill: none; stroke: #000000; stroke-opacity: 0.2; stroke-width: 1.5; stroke-linecap: round"/>
   </g>
   <g id="line2d_37">
    <path d="M 461.02526 81.405833 
L 468.993711 203.968845 
" clip-path="url(#pd35344dee5)" style="fill: none; stroke: #000000; stroke-opacity: 0.2; stroke-width: 1.5; stroke-linecap: round"/>
   </g>
   <g id="line2d_38">
    <path d="M 566.726124 87.914109 
L 547.292725 177.547179 
" clip-path="url(#pd35344dee5)" style="fill: none; stroke: #000000; stroke-opacity: 0.2; stroke-width: 1.5; stroke-linecap: round"/>
   </g>
   <g id="line2d_39">
    <path d="M 633.487026 81.454534 
L 633.487026 193.879093 
" clip-path="url(#pd35344dee5)" style="fill: none; stroke: #000000; stroke-opacity: 0.2; stroke-width: 1.5; stroke-linecap: round"/>
   </g>
   <g id="line2d_40">
    <path d="M 265.682872 76.007264 
L 265.682872 179.030433 
" clip-path="url(#pd35344dee5)" style="fill: none; stroke: #000000; stroke-opacity: 0.2; stroke-width: 1.5; stroke-linecap: round"/>
   </g>
   <g id="line2d_41">
    <path d="M 671.354689 78.359245 
L 667.116921 189.136539 
" clip-path="url(#pd35344dee5)" style="fill: none; stroke: #000000; stroke-opacity: 0.2; stroke-width: 1.5; stroke-linecap: round"/>
   </g>
   <g id="line2d_42">
    <path d="M 344.722177 95.543567 
L 340.251246 196.413209 
" clip-path="url(#pd35344dee5)" style="fill: none; stroke: #000000; stroke-opacity: 0.2; stroke-width: 1.5; stroke-linecap: round"/>
   </g>
   <g id="line2d_43">
    <path d="M 253.177453 72.931317 
L 253.177453 182.878584 
" clip-path="url(#pd35344dee5)" style="fill: none; stroke: #000000; stroke-opacity: 0.2; stroke-width: 1.5; stroke-linecap: round"/>
   </g>
   <g id="line2d_44">
    <path d="M 437.104218 86.246974 
L 437.104218 166.903297 
" clip-path="url(#pd35344dee5)" style="fill: none; stroke: #000000; stroke-opacity: 0.2; stroke-width: 1.5; stroke-linecap: round"/>
   </g>
   <g id="line2d_45">
    <path d="M 472.39934 74.110785 
L 472.39934 198.603536 
" clip-path="url(#pd35344dee5)" style="fill: none; stroke: #000000; stroke-opacity: 0.2; stroke-width: 1.5; stroke-linecap: round"/>
   </g>
   <g id="line2d_46">
    <path d="M 172.013424 78.086751 
L 161.955985 179.869044 
" clip-path="url(#pd35344dee5)" style="fill: none; stroke: #000000; stroke-opacity: 0.2; stroke-width: 1.5; stroke-linecap: round"/>
   </g>
   <g id="line2d_47">
    <path d="M 533.49727 78.892982 
L 538.097289 170.023146 
" clip-path="url(#pd35344dee5)" style="fill: none; stroke: #000000; stroke-opacity: 0.2; stroke-width: 1.5; stroke-linecap: round"/>
   </g>
   <g id="line2d_48">
    <path d="M 168.34234 80.816698 
L 173.545974 185.40641 
" clip-path="url(#pd35344dee5)" style="fill: none; stroke: #000000; stroke-opacity: 0.2; stroke-width: 1.5; stroke-linecap: round"/>
   </g>
   <g id="line2d_49">
    <path d="M 245.313338 55.192244 
L 249.771567 207.522869 
" clip-path="url(#pd35344dee5)" style="fill: none; stroke: #000000; stroke-opacity: 0.2; stroke-width: 1.5; stroke-linecap: round"/>
   </g>
   <g id="line2d_50">
    <path d="M 297.365044 59.289509 
L 298.121918 192.550346 
" clip-path="url(#pd35344dee5)" style="fill: none; stroke: #000000; stroke-opacity: 0.2; stroke-width: 1.5; stroke-linecap: round"/>
   </g>
   <g id="line2d_51">
    <path d="M 191.416282 61.306899 
L 197.980978 208.057482 
" clip-path="url(#pd35344dee5)" style="fill: none; stroke: #000000; stroke-opacity: 0.2; stroke-width: 1.5; stroke-linecap: round"/>
   </g>
   <g id="line2d_52">
    <path d="M 565.67579 63.971767 
L 563.529935 182.404553 
" clip-path="url(#pd35344dee5)" style="fill: none; stroke: #000000; stroke-opacity: 0.2; stroke-width: 1.5; stroke-linecap: round"/>
   </g>
   <g id="line2d_53">
    <path d="M 289.181206 96.467505 
L 280.389276 202.785856 
" clip-path="url(#pd35344dee5)" style="fill: none; stroke: #000000; stroke-opacity: 0.2; stroke-width: 1.5; stroke-linecap: round"/>
   </g>
   <g id="line2d_54">
    <path d="M 284.967907 78.912757 
L 297.219908 191.876013 
" clip-path="url(#pd35344dee5)" style="fill: none; stroke: #000000; stroke-opacity: 0.2; stroke-width: 1.5; stroke-linecap: round"/>
   </g>
   <g id="line2d_55">
    <path d="M 479.281597 71.057629 
L 467.25289 206.547095 
" clip-path="url(#pd35344dee5)" style="fill: none; stroke: #000000; stroke-opacity: 0.2; stroke-width: 1.5; stroke-linecap: round"/>
   </g>
   <g id="line2d_56">
    <path d="M 244.485956 51.354958 
L 236.492488 173.785693 
" clip-path="url(#pd35344dee5)" style="fill: none; stroke: #000000; stroke-opacity: 0.2; stroke-width: 1.5; stroke-linecap: round"/>
   </g>
   <g id="line2d_57">
    <path d="M 162.23478 57.02499 
L 161.864134 181.855306 
" clip-path="url(#pd35344dee5)" style="fill: none; stroke: #000000; stroke-opacity: 0.2; stroke-width: 1.5; stroke-linecap: round"/>
   </g>
   <g id="line2d_58">
    <path d="M 179.373332 73.04813 
L 179.373332 195.912735 
" clip-path="url(#pd35344dee5)" style="fill: none; stroke: #000000; stroke-opacity: 0.2; stroke-width: 1.5; stroke-linecap: round"/>
   </g>
   <g id="line2d_59">
    <path d="M 295.611996 81.459913 
L 295.611996 206.723461 
" clip-path="url(#pd35344dee5)" style="fill: none; stroke: #000000; stroke-opacity: 0.2; stroke-width: 1.5; stroke-linecap: round"/>
   </g>
   <g id="line2d_60">
    <path d="M 297.052035 99.461079 
L 297.052035 194.428058 
" clip-path="url(#pd35344dee5)" style="fill: none; stroke: #000000; stroke-opacity: 0.2; stroke-width: 1.5; stroke-linecap: round"/>
   </g>
   <g id="line2d_61">
    <path d="M 265.255662 57.736081 
L 265.255662 182.76978 
" clip-path="url(#pd35344dee5)" style="fill: none; stroke: #000000; stroke-opacity: 0.2; stroke-width: 1.5; stroke-linecap: round"/>
   </g>
   <g id="line2d_62">
    <path d="M 438.755451 84.184879 
L 438.755451 189.922214 
" clip-path="url(#pd35344dee5)" style="fill: none; stroke: #000000; stroke-opacity: 0.2; stroke-width: 1.5; stroke-linecap: round"/>
   </g>
   <g id="line2d_63">
    <path d="M 227.170465 84.780695 
L 231.456992 170.865999 
" clip-path="url(#pd35344dee5)" style="fill: none; stroke: #000000; stroke-opacity: 0.2; stroke-width: 1.5; stroke-linecap: round"/>
   </g>
   <g id="line2d_64">
    <path d="M 331.117938 69.435938 
L 331.117938 187.291113 
" clip-path="url(#pd35344dee5)" style="fill: none; stroke: #000000; stroke-opacity: 0.2; stroke-width: 1.5; stroke-linecap: round"/>
   </g>
   <g id="line2d_65">
    <path d="M 267.003067 95.22725 
L 267.003067 204.790839 
" clip-path="url(#pd35344dee5)" style="fill: none; stroke: #000000; stroke-opacity: 0.2; stroke-width: 1.5; stroke-linecap: round"/>
   </g>
   <g id="LineCollection_1">
    <path d="M 372.188854 47.982727 
L 372.188854 98.411818 
" clip-path="url(#pd35344dee5)" style="fill: none; stroke: #1a1a1a; stroke-width: 3"/>
   </g>
   <g id="LineCollection_2">
    <path d="M 297.673864 73.197273 
L 446.703844 73.197273 
" clip-path="url(#pd35344dee5)" style="fill: none; stroke: #1a1a1a; stroke-width: 2"/>
   </g>
   <g id="line2d_66">
    <defs>
     <path id="m23a89c2ee0" d="M 0 5 
L 0 -5 
" style="stroke: #1a1a1a"/>
    </defs>
    <g clip-path="url(#pd35344dee5)">
     <use xlink:href="#m23a89c2ee0" x="297.673864" y="73.197273" style="fill: #1a1a1a; stroke: #1a1a1a"/>
    </g>
   </g>
   <g id="line2d_67">
    <g clip-path="url(#pd35344dee5)">
     <use xlink:href="#m23a89c2ee0" x="446.703844" y="73.197273" style="fill: #1a1a1a; stroke: #1a1a1a"/>
    </g>
   </g>
   <g id="LineCollection_3">
    <path d="M 372.188854 161.448182 
L 372.188854 211.877273 
" clip-path="url(#pd35344dee5)" style="fill: none; stroke: #696969; stroke-width: 3"/>
   </g>
   <g id="LineCollection_4">
    <path d="M 372.989801 161.448182 
L 372.989801 211.877273 
" clip-path="url(#pd35344dee5)" style="fill: none; stroke: #1a1a1a; stroke-width: 3"/>
   </g>
   <g id="LineCollection_5">
    <path d="M 298.363153 186.662727 
L 447.616448 186.662727 
" clip-path="url(#pd35344dee5)" style="fill: none; stroke: #1a1a1a; stroke-width: 2"/>
   </g>
   <g id="line2d_68">
    <g clip-path="url(#pd35344dee5)">
     <use xlink:href="#m23a89c2ee0" x="298.363153" y="186.662727" style="fill: #1a1a1a; stroke: #1a1a1a"/>
    </g>
   </g>
   <g id="line2d_69">
    <g clip-path="url(#pd35344dee5)">
     <use xlink:href="#m23a89c2ee0" x="447.616448" y="186.662727" style="fill: #1a1a1a; stroke: #1a1a1a"/>
    </g>
   </g>
   <g id="line2d_70">
    <path d="M 372.188854 73.197273 
" clip-path="url(#pd35344dee5)" style="fill: none; stroke: #1a1a1a; stroke-width: 3; stroke-linecap: round"/>
   </g>
   <g id="line2d_71">
    <path d="M 372.188854 73.197273 
" clip-path="url(#pd35344dee5)" style="fill: none; stroke: #1a1a1a; stroke-width: 3; stroke-linecap: round"/>
   </g>
   <g id="line2d_72">
    <path d="M 372.188854 186.662727 
" clip-path="url(#pd35344dee5)" style="fill: none; stroke: #696969; stroke-width: 3; stroke-linecap: round"/>
   </g>
   <g id="line2d_73">
    <path d="M 372.989801 186.662727 
" clip-path="url(#pd35344dee5)" style="fill: none; stroke: #1a1a1a; stroke-width: 3; stroke-linecap: round"/>
   </g>
   <g id="line2d_74">
    <path d="M 372.989801 186.662727 
" clip-path="url(#pd35344dee5)" style="fill: none; stroke: #1a1a1a; stroke-width: 3; stroke-linecap: round"/>
   </g>
   <g id="patch_3">
    <path d="M 133.49 233.94 
L 133.49 25.92 
" style="fill: none; stroke: #cccccc; stroke-width: 2.5; stroke-linejoin: miter; stroke-linecap: square"/>
   </g>
   <g id="patch_4">
    <path d="M 694.08 233.94 
L 694.08 25.92 
" style="fill: none; stroke: #cccccc; stroke-width: 2.5; stroke-linejoin: miter; stroke-linecap: square"/>
   </g>
   <g id="patch_5">
    <path d="M 133.49 233.94 
L 694.08 233.94 
" style="fill: none; stroke: #cccccc; stroke-width: 2.5; stroke-linejoin: miter; stroke-linecap: square"/>
   </g>
   <g id="patch_6">
    <path d="M 133.49 25.92 
L 694.08 25.92 
" style="fill: none; stroke: #cccccc; stroke-width: 2.5; stroke-linejoin: miter; stroke-linecap: square"/>
   </g>
   <g id="text_12">
    <!-- 0.258 -->
    <g style="fill: #262626" transform="translate(337.835104 45.780136)scale(0.24 -0.24)">
     <defs>
      <path id="DejaVuSans-35" d="M 691 4666 
L 3169 4666 
L 3169 4134 
L 1269 4134 
L 1269 2991 
Q 1406 3038 1543 3061 
Q 1681 3084 1819 3084 
Q 2600 3084 3056 2656 
Q 3513 2228 3513 1497 
Q 3513 744 3044 326 
Q 2575 -91 1722 -91 
Q 1428 -91 1123 -41 
Q 819 9 494 109 
L 494 744 
Q 775 591 1075 516 
Q 1375 441 1709 441 
Q 2250 441 2565 725 
Q 2881 1009 2881 1497 
Q 2881 1984 2565 2268 
Q 2250 2553 1709 2553 
Q 1456 2553 1204 2497 
Q 953 2441 691 2322 
L 691 4666 
z
" transform="scale(0.015625)"/>
     </defs>
     <use xlink:href="#DejaVuSans-30"/>
     <use xlink:href="#DejaVuSans-2e" x="63.623047"/>
     <use xlink:href="#DejaVuSans-32" x="95.410156"/>
     <use xlink:href="#DejaVuSans-35" x="159.033203"/>
     <use xlink:href="#DejaVuSans-38" x="222.65625"/>
    </g>
   </g>
   <g id="text_13">
    <!-- +0.000  0.043 -->
    <g style="fill: #262626" transform="translate(276.543551 159.245591)scale(0.24 -0.24)">
     <defs>
      <path id="DejaVuSans-2b" d="M 2944 4013 
L 2944 2272 
L 4684 2272 
L 4684 1741 
L 2944 1741 
L 2944 0 
L 2419 0 
L 2419 1741 
L 678 1741 
L 678 2272 
L 2419 2272 
L 2419 4013 
L 2944 4013 
z
" transform="scale(0.015625)"/>
      <path id="DejaVuSans-b1" d="M 2944 4013 
L 2944 2803 
L 4684 2803 
L 4684 2272 
L 2944 2272 
L 2944 1063 
L 2419 1063 
L 2419 2272 
L 678 2272 
L 678 2803 
L 2419 2803 
L 2419 4013 
L 2944 4013 
z
M 678 531 
L 4684 531 
L 4684 0 
L 678 0 
L 678 531 
z
" transform="scale(0.015625)"/>
     </defs>
     <use xlink:href="#DejaVuSans-2b"/>
     <use xlink:href="#DejaVuSans-30" x="83.789062"/>
     <use xlink:href="#DejaVuSans-2e" x="147.412109"/>
     <use xlink:href="#DejaVuSans-30" x="179.199219"/>
     <use xlink:href="#DejaVuSans-30" x="242.822266"/>
     <use xlink:href="#DejaVuSans-30" x="306.445312"/>
     <use xlink:href="#DejaVuSans-20" x="370.068359"/>
     <use xlink:href="#DejaVuSans-b1" x="401.855469"/>
     <use xlink:href="#DejaVuSans-20" x="485.644531"/>
     <use xlink:href="#DejaVuSans-30" x="517.431641"/>
     <use xlink:href="#DejaVuSans-2e" x="581.054688"/>
     <use xlink:href="#DejaVuSans-30" x="612.841797"/>
     <use xlink:href="#DejaVuSans-34" x="676.464844"/>
     <use xlink:href="#DejaVuSans-33" x="740.087891"/>
    </g>
   </g>
  </g>
 </g>
 <defs>
  <clipPath id="pd35344dee5">
   <rect x="133.49" y="25.92" width="560.59" height="208.02"/>
  </clipPath>
 </defs>
</svg>
